{"glyphs":{"0":{"ha":694,"x_min":47,"x_max":643,"o":"m 246 -14 q 102 48 157 -14 q 47 221 47 110 q 167 550 47 407 q 435 693 288 693 q 592 630 542 693 q 643 464 643 567 q 519 123 643 260 q 246 -14 396 -14 m 538 399 q 499 494 538 458 q 396 529 461 529 q 228 462 307 529 q 150 290 150 394 q 195 194 150 224 q 289 165 240 165 q 468 242 399 165 q 538 399 538 318 z "},"1":{"ha":503,"x_min":-90,"x_max":538,"o":"m -90 11 q -90 31 -90 11 q -60 88 -90 51 q 19 125 -31 125 q 103 119 69 125 q 130 203 111 163 q 158 264 149 243 q 188 321 168 285 q 215 372 207 357 q 275 478 228 394 l 274 482 q 202 444 249 461 q 115 428 156 428 q 35 497 35 428 q 50 549 35 524 q 231 577 154 549 q 338 642 308 606 q 386 712 354 686 q 448 738 418 738 q 508 718 478 738 q 538 678 538 699 q 524 640 538 658 q 497 614 511 622 l 483 606 q 425 504 467 581 q 356 371 383 428 q 317 278 329 314 q 285 101 285 181 l 289 101 q 435 131 376 101 q 450 69 450 100 q 424 11 450 38 q 364 -15 397 -15 q 234 -6 331 -15 q 85 3 138 3 q -68 -29 -24 3 q -90 11 -90 -29 z "},"2":{"ha":722,"x_min":-19,"x_max":697,"o":"m 158 57 q 33 -18 86 -18 q -19 42 -19 -18 q 15 154 -19 101 q 100 207 49 207 q 164 178 126 207 q 508 544 508 365 q 482 617 508 590 q 419 643 456 643 q 325 611 358 643 l 313 600 q 346 463 313 536 q 334 440 344 451 q 318 428 324 429 q 204 458 246 428 q 163 533 163 489 q 267 665 163 601 q 494 729 371 729 q 641 691 585 729 q 697 582 697 653 q 629 408 697 497 q 297 168 540 289 q 226 133 269 154 q 353 60 285 88 q 470 33 421 33 q 547 53 519 33 q 611 129 574 74 q 653 90 653 124 q 576 -53 653 32 q 420 -139 499 -139 q 289 -94 342 -139 q 158 57 236 -50 z "},"3":{"ha":704,"x_min":-114,"x_max":749,"o":"m 315 301 q 400 310 357 310 q 524 256 476 310 q 571 115 571 203 q 424 -178 571 -44 q 81 -312 278 -312 q -58 -272 -3 -312 q -114 -165 -114 -231 q -58 -46 -114 -100 q 33 8 -3 8 q 64 -10 56 8 q 49 -48 64 -14 q 35 -114 35 -82 q 134 -215 35 -215 q 315 -112 233 -215 q 397 86 397 -8 q 286 215 397 215 q 229 208 257 215 q 164 163 189 163 q 123 179 139 163 q 107 221 107 196 q 164 281 107 261 q 310 391 199 308 q 463 513 422 474 q 379 540 433 518 q 290 563 325 563 q 226 526 254 563 q 190 428 199 489 q 135 446 139 428 q 125 553 125 485 q 271 729 125 729 q 425 688 335 729 q 563 636 515 646 q 683 719 603 719 q 727 697 706 719 q 749 649 749 674 q 699 549 749 603 q 578 486 650 494 q 315 301 378 340 z "},"4":{"ha":740,"x_min":-82,"x_max":675,"o":"m 419 -74 q 394 -217 394 -160 q 408 -253 394 -239 q 422 -281 422 -268 q 389 -303 422 -293 q 308 -314 356 -314 q 215 -233 215 -314 q 269 -58 215 -190 q 96 42 172 -33 q -29 -47 29 -47 q -82 26 -82 -47 q -54 129 -82 79 q 22 185 -26 179 q 63 178 38 185 q 279 664 279 503 q 261 713 279 697 q 242 739 243 729 q 257 758 242 749 q 369 788 299 788 q 467 690 467 788 q 289 308 467 551 q 164 142 210 200 q 339 90 286 100 q 435 273 401 218 q 483 351 469 328 q 503 384 496 374 q 522 408 511 394 q 572 436 544 436 q 616 419 600 436 q 632 369 632 401 q 568 296 632 336 q 475 88 515 186 q 633 183 576 106 q 675 144 675 178 q 602 -7 675 53 q 419 -74 529 -67 z "},"5":{"ha":671,"x_min":-156,"x_max":703,"o":"m 326 529 q 225 335 285 424 l 203 303 q 349 315 269 315 q 481 268 429 315 q 532 138 532 221 q 489 -32 532 56 q 376 -180 446 -119 q 217 -276 306 -240 q 42 -312 128 -312 q -100 -272 -44 -312 q -156 -165 -156 -231 q -100 -46 -156 -100 q -8 8 -44 8 q 22 -10 14 8 q 8 -48 22 -14 q -7 -114 -7 -82 q 93 -215 -7 -215 q 270 -122 185 -215 q 356 86 356 -28 q 244 215 356 215 l 165 210 q 110 178 140 178 q 62 194 79 178 q 44 238 44 211 q 108 290 44 261 q 218 665 218 475 q 260 701 218 701 q 392 681 290 701 q 531 661 493 661 q 594 669 568 661 q 630 685 619 676 q 649 703 640 694 q 658 714 657 713 q 684 704 665 714 q 703 683 703 694 q 569 499 661 499 q 372 522 510 499 l 326 529 z "},"6":{"ha":772,"x_min":40,"x_max":825,"o":"m 633 636 q 647 674 633 638 q 660 751 660 710 q 565 840 660 840 q 497 833 528 840 q 364 710 428 804 q 268 501 300 617 q 478 561 374 561 q 696 361 696 561 q 565 103 696 222 q 282 -17 435 -17 q 109 56 178 -17 q 40 261 40 128 q 132 618 40 443 q 245 780 179 708 q 409 896 311 851 q 610 940 507 940 q 769 899 713 940 q 825 792 825 858 q 764 672 825 726 q 664 617 703 617 q 646 623 656 617 q 633 636 636 629 m 243 396 q 226 244 226 319 q 251 128 226 169 q 314 86 276 86 q 431 158 371 86 q 490 346 490 229 q 400 443 490 443 q 243 396 338 443 z "},"7":{"ha":629,"x_min":42,"x_max":714,"o":"m 76 421 q 42 583 42 525 q 79 681 42 642 q 173 719 117 719 q 286 706 229 719 q 419 667 343 692 q 540 631 494 642 q 567 676 557 661 q 597 703 578 690 q 639 715 615 715 q 688 691 663 715 q 714 638 714 667 q 676 570 714 610 q 589 504 639 531 l 588 504 q 433 264 503 382 l 563 264 q 567 233 567 253 q 547 190 567 213 q 495 168 528 168 q 385 181 463 168 q 238 -187 238 -83 q 253 -224 238 -210 q 268 -251 268 -239 q 235 -274 268 -264 q 154 -285 201 -285 q 47 -193 47 -285 q 221 178 47 -83 q 160 172 179 172 q 128 188 142 172 q 115 224 115 203 q 124 264 115 246 l 278 264 q 467 513 374 399 q 358 529 417 518 q 211 554 228 554 q 131 421 146 554 l 76 421 z "},"8":{"ha":768,"x_min":28,"x_max":768,"o":"m 456 574 q 571 660 528 614 q 614 769 614 706 q 478 881 614 881 q 453 878 467 881 l 428 875 q 418 872 418 874 q 372 813 386 843 q 357 735 357 783 q 456 574 357 644 m 335 433 q 233 349 272 400 q 193 238 193 299 q 237 140 193 176 q 343 103 281 103 q 457 149 406 103 q 508 267 508 194 q 433 375 508 328 q 383 404 417 385 q 335 433 350 424 m 524 528 q 603 475 576 494 q 656 419 631 456 q 682 340 682 382 q 552 91 682 194 q 260 -12 422 -12 q 93 33 158 -12 q 28 169 28 79 q 99 344 28 258 q 269 482 169 429 q 194 661 194 554 q 308 896 194 799 q 572 993 422 993 q 768 819 768 993 q 524 528 768 657 z "},"9":{"ha":772,"x_min":-44,"x_max":717,"o":"m 496 179 q 275 88 401 88 q 126 146 185 88 q 67 319 67 204 q 190 601 67 474 q 478 728 313 728 q 648 649 579 728 q 717 426 717 571 q 629 42 717 228 q 520 -134 583 -57 q 363 -260 457 -211 q 169 -308 269 -308 q 12 -264 68 -308 q -44 -147 -44 -219 q 8 -15 -44 -75 q 96 44 61 44 q 126 22 117 44 q 114 -16 126 18 q 101 -93 101 -50 q 127 -166 101 -136 q 200 -196 153 -196 q 378 -89 297 -196 q 496 179 460 18 m 522 324 q 532 429 532 379 q 425 613 532 613 q 326 582 379 613 q 257 346 257 476 q 284 255 257 285 q 354 225 311 225 q 445 253 397 225 q 522 324 493 282 z "}," ":{"ha":347,"x_min":0,"x_max":0,"o":""},"!":{"ha":543,"x_min":42,"x_max":654,"o":"m 150 268 l 150 269 q 270 600 150 314 q 456 943 390 886 q 518 947 476 947 q 607 922 560 947 q 654 861 654 897 q 632 817 654 839 q 257 269 361 539 q 203 256 239 256 q 150 268 167 256 m 182 -6 q 115 -14 160 -14 q 44 1 69 -14 q 42 28 42 18 q 81 126 42 92 q 186 161 119 161 q 240 153 215 161 q 250 124 250 149 q 229 54 250 99 q 182 -6 208 10 z "},"\"":{"ha":517,"x_min":153,"x_max":669,"o":"m 669 901 q 534 745 593 839 q 451 558 475 651 q 431 553 446 553 q 401 614 401 553 q 419 756 401 675 q 474 901 438 838 q 554 965 510 965 q 669 901 617 965 m 421 901 q 285 745 344 839 q 203 558 226 651 q 182 553 197 553 q 153 614 153 553 q 171 756 153 675 q 225 901 189 838 q 306 965 261 965 q 421 901 368 965 z "},"#":{"ha":951,"x_min":68,"x_max":833,"o":"m 310 286 l 350 406 q 149 374 193 406 q 126 413 126 374 q 157 493 126 453 q 234 533 188 533 q 388 524 281 533 q 467 793 446 711 q 537 811 503 811 q 571 796 571 811 l 571 794 q 499 582 563 758 l 475 515 q 599 510 535 510 q 682 793 647 660 q 752 811 718 811 q 786 796 786 811 l 786 794 q 744 665 778 758 q 706 558 710 571 q 689 511 693 524 q 818 539 774 518 q 833 473 833 508 q 808 413 833 438 q 745 388 782 388 q 647 392 708 388 q 624 328 639 369 q 603 271 610 288 q 760 300 708 275 q 775 234 775 269 q 749 174 775 199 q 686 149 724 149 q 561 156 649 149 q 475 -58 481 -58 q 465 -65 475 -58 q 438 -72 454 -72 q 411 -68 421 -72 q 401 -61 401 -64 l 401 -60 q 482 160 428 7 q 350 167 397 165 q 277 -22 294 14 q 260 -60 260 -57 q 222 -72 239 -72 q 196 -68 206 -72 q 186 -61 186 -64 l 186 -60 q 268 167 229 56 q 90 135 131 164 q 68 174 68 135 q 99 254 68 214 q 182 294 129 294 q 310 286 204 294 m 519 272 l 563 397 q 436 404 485 403 l 390 279 q 519 272 433 275 z "},"$":{"ha":651,"x_min":56,"x_max":679,"o":"m 296 -21 l 278 -21 q 169 -278 200 -222 q 119 -290 150 -290 q 89 -279 89 -290 l 89 -278 q 192 -7 135 -160 q 92 51 129 11 q 56 146 56 90 q 72 206 56 178 q 104 247 88 235 l 121 261 q 128 249 124 257 q 151 221 133 240 q 189 186 169 201 q 308 146 240 146 q 422 165 376 146 q 468 214 468 183 q 438 264 468 244 q 363 301 407 283 q 275 339 319 318 q 200 396 231 360 q 169 481 169 432 q 249 651 169 581 q 438 728 328 722 q 507 954 499 918 q 584 974 546 974 q 622 957 622 974 l 622 956 q 543 719 613 913 q 644 666 608 703 q 679 585 679 629 q 654 502 679 542 q 583 440 629 463 q 527 534 574 500 q 413 568 481 568 q 309 548 344 568 q 274 497 274 528 q 323 440 274 467 q 431 394 372 413 q 538 333 489 375 q 588 232 588 292 q 503 56 588 133 q 296 -21 419 -21 z "},"%":{"ha":1278,"x_min":118,"x_max":1278,"o":"m 801 578 l 604 319 q 897 465 728 399 q 1143 531 1067 531 q 1278 381 1278 531 q 1213 199 1278 297 q 1049 33 1149 101 q 858 -35 949 -35 q 770 0 806 -35 q 735 93 735 35 q 894 379 735 249 q 507 174 697 310 q 316 -90 364 -33 q 226 -146 268 -146 q 182 -122 206 -146 q 158 -75 158 -99 q 231 38 158 -37 q 413 197 303 114 l 704 597 q 589 672 667 613 l 585 675 q 472 453 565 560 q 254 346 378 346 q 156 385 193 346 q 118 493 118 424 q 160 636 118 563 q 265 759 203 710 q 399 838 328 808 q 522 867 469 867 q 617 844 574 867 q 719 776 672 814 q 793 719 767 738 l 935 911 q 1023 975 983 975 q 1090 950 1063 975 q 1118 894 1118 925 q 1019 706 1118 811 q 801 578 919 601 m 1050 397 q 890 157 890 313 q 950 94 890 94 q 1072 166 1022 94 q 1122 317 1122 238 q 1102 376 1122 356 q 1050 397 1082 396 m 514 728 q 436 753 471 753 q 326 699 378 753 q 274 563 274 644 q 288 502 274 529 q 333 475 303 475 q 428 528 386 475 q 514 728 496 610 z "},"&":{"ha":1139,"x_min":-18,"x_max":1208,"o":"m 1144 386 q 1057 435 1129 435 q 949 401 1007 435 q 829 331 892 368 q 711 288 767 294 q 670 214 699 251 q 619 157 642 176 l 597 138 q 822 86 678 86 q 957 119 904 86 q 1024 197 1010 151 l 1032 197 l 1065 192 q 988 -6 1065 71 q 774 -83 911 -83 q 586 -36 668 -83 q 483 38 510 8 l 469 51 q 440 33 458 44 q 360 4 421 22 q 238 -14 299 -14 q 59 38 136 -14 q -18 197 -18 90 q 9 316 -18 260 q 81 410 36 372 q 263 511 168 485 q 349 792 263 665 q 459 890 390 853 q 613 926 528 926 q 745 881 699 926 q 792 763 792 836 q 747 644 792 689 q 646 599 703 599 q 586 613 614 599 q 594 678 594 642 q 526 751 594 751 q 409 691 457 751 q 361 524 361 631 q 408 326 361 417 q 531 178 454 236 q 613 301 589 236 q 553 353 578 321 q 529 417 529 385 q 556 482 529 450 q 619 514 583 514 q 691 478 654 514 q 728 386 728 443 l 728 372 q 788 411 744 372 q 880 496 832 450 q 991 581 928 542 q 1103 619 1054 619 q 1181 594 1153 619 q 1208 532 1208 569 q 1192 408 1208 471 l 1188 390 q 1144 386 1156 386 m 413 111 q 400 126 408 117 q 369 168 392 136 q 329 235 347 200 q 269 432 283 322 q 181 247 181 363 q 224 138 181 179 q 326 97 267 97 q 413 111 379 97 z "},"'":{"ha":268,"x_min":153,"x_max":421,"o":"m 421 901 q 285 745 344 839 q 203 558 226 651 q 182 553 197 553 q 153 614 153 553 q 171 756 153 675 q 225 901 189 838 q 306 965 261 965 q 421 901 368 965 z "},"(":{"ha":658,"x_min":69,"x_max":915,"o":"m 431 -175 q 389 -251 422 -219 q 308 -283 356 -283 q 141 -175 213 -283 q 69 102 69 -67 q 140 432 69 271 q 321 708 211 593 q 567 895 431 824 q 833 967 704 967 q 915 908 915 967 q 901 860 915 886 q 819 878 869 878 q 638 819 735 878 q 458 667 540 761 q 320 440 375 574 q 265 183 265 306 q 307 -33 265 60 q 431 -175 349 -126 z "},")":{"ha":657,"x_min":-257,"x_max":588,"o":"m -243 -176 q -161 -194 -211 -194 q 19 -137 -78 -194 q 198 15 115 -79 q 336 241 281 108 q 392 498 392 374 q 351 716 392 622 q 226 858 310 810 q 268 935 235 903 q 349 967 301 967 q 515 860 443 967 q 588 583 588 753 q 517 251 588 413 q 337 -25 446 90 q 91 -212 228 -140 q -175 -283 -46 -283 q -257 -225 -257 -283 q -243 -176 -257 -203 z "},"*":{"ha":656,"x_min":139,"x_max":725,"o":"m 475 572 q 572 414 507 482 q 449 346 503 346 q 361 508 361 346 q 364 575 361 554 q 228 442 339 556 q 162 497 185 465 q 139 556 139 529 q 335 679 139 628 q 160 750 265 731 q 203 853 172 814 q 260 893 235 893 q 421 743 333 893 q 444 846 444 804 q 439 931 444 888 q 490 935 489 935 q 608 856 608 935 q 511 678 608 786 q 694 721 597 678 q 725 618 725 664 q 632 529 725 529 q 475 572 567 529 z "},"+":{"ha":694,"x_min":24,"x_max":622,"o":"m 403 393 l 444 393 q 607 422 549 393 q 622 354 622 392 q 596 288 622 317 q 532 258 569 258 q 353 278 518 258 q 325 175 325 211 q 333 121 325 139 q 285 76 319 97 q 222 54 250 54 q 175 120 175 54 q 225 289 175 186 l 207 289 q 46 244 89 289 q 24 288 24 244 q 54 374 24 331 q 138 417 85 417 q 279 404 154 417 q 313 564 313 485 q 311 601 313 589 q 356 604 347 604 q 447 538 447 604 q 403 393 447 494 z "},",":{"ha":333,"x_min":-62,"x_max":264,"o":"m -62 -122 q 39 -92 -11 -119 q 114 -12 89 -64 q 39 0 58 -12 q 35 29 35 13 q 78 138 35 99 q 194 175 122 175 q 254 167 228 175 q 264 142 264 161 q 229 2 264 75 q 128 -125 194 -71 q -15 -179 63 -179 q -62 -122 -62 -179 z "},"-":{"ha":688,"x_min":78,"x_max":596,"o":"m 117 232 q 90 253 103 232 q 78 308 78 274 q 103 369 78 342 q 182 396 129 396 q 328 386 235 396 q 484 376 421 376 q 582 401 547 376 q 596 346 596 368 q 469 256 596 256 q 334 265 426 256 q 203 275 242 275 q 142 263 164 275 q 117 232 119 250 z "},".":{"ha":333,"x_min":35,"x_max":264,"o":"m 190 -8 q 114 -17 163 -17 q 39 0 65 -17 q 35 29 35 25 q 78 138 35 99 q 194 175 122 175 q 254 167 228 175 q 264 134 264 161 q 241 58 264 107 q 190 -8 218 8 z "},"/":{"ha":608,"x_min":-208,"x_max":817,"o":"m 683 1006 q 763 1014 708 1014 q 817 986 817 1014 q 810 967 817 978 q 348 269 597 617 q -108 -287 99 -78 q -140 -297 -117 -297 q -186 -288 -164 -297 q -208 -268 -208 -279 q -206 -260 -208 -262 q 683 1006 110 89 z "},":":{"ha":333,"x_min":35,"x_max":400,"o":"m 326 483 q 251 475 300 475 q 175 492 201 475 q 171 521 171 517 q 214 629 171 590 q 331 667 258 667 q 390 658 364 667 q 400 626 400 653 q 377 549 400 599 q 326 483 354 500 m 190 -8 q 114 -17 163 -17 q 39 0 65 -17 q 35 29 35 25 q 78 138 35 99 q 194 175 122 175 q 254 167 228 175 q 264 134 264 161 q 241 58 264 107 q 190 -8 218 8 z "},";":{"ha":333,"x_min":-62,"x_max":400,"o":"m -62 -122 q 39 -92 -11 -119 q 114 -12 89 -64 q 39 0 58 -12 q 35 29 35 13 q 78 138 35 99 q 194 175 122 175 q 254 167 228 175 q 264 142 264 161 q 229 2 264 75 q 128 -125 194 -71 q -15 -179 63 -179 q -62 -122 -62 -179 m 326 483 q 251 475 300 475 q 175 492 201 475 q 171 521 171 517 q 214 629 171 590 q 331 667 258 667 q 390 658 364 667 q 400 626 400 653 q 377 549 400 599 q 326 483 354 500 z "},"<":{"ha":531,"x_min":28,"x_max":586,"o":"m 72 271 q 58 268 67 268 q 28 309 28 268 q 49 390 28 350 q 91 431 71 431 q 126 407 111 431 q 435 635 349 599 q 517 654 481 654 q 570 629 554 654 q 586 577 586 604 q 580 533 586 550 q 565 517 574 517 q 188 332 453 517 q 281 219 232 263 q 354 167 331 176 q 408 149 378 157 q 448 135 439 142 q 457 106 457 128 q 430 51 457 83 q 374 19 403 19 q 211 99 306 19 q 72 271 117 178 z "},"=":{"ha":694,"x_min":39,"x_max":653,"o":"m 564 288 q 579 220 579 257 q 553 157 579 183 q 493 131 526 131 q 363 140 460 131 q 214 149 267 149 q 61 117 106 149 q 39 158 39 117 q 69 240 39 199 q 153 282 100 282 q 277 270 186 282 q 437 258 368 258 q 564 288 506 258 m 638 528 q 653 460 653 497 q 626 397 653 424 q 567 371 600 371 q 437 380 533 371 q 288 389 340 389 q 135 357 179 389 q 113 398 113 357 q 143 481 113 439 q 226 522 174 522 q 351 510 260 522 q 510 499 442 499 q 638 528 579 499 z "},">":{"ha":531,"x_min":-28,"x_max":531,"o":"m 432 267 q 291 147 342 189 q 165 63 240 106 q 47 19 90 19 q -28 101 -28 19 q -22 140 -28 124 q -8 157 -15 157 q 371 342 106 157 q 277 454 326 411 q 204 507 228 497 q 150 524 181 517 q 110 539 119 532 q 101 568 101 546 q 128 622 101 590 q 185 654 156 654 q 347 575 253 654 q 486 403 442 496 q 499 406 490 406 q 531 365 531 406 q 509 284 531 325 q 467 243 488 243 q 432 267 446 243 z "},"?":{"ha":657,"x_min":125,"x_max":782,"o":"m 265 -6 q 197 -14 242 -14 q 128 1 153 -14 q 125 28 125 18 q 164 126 125 92 q 269 161 203 161 q 324 153 299 161 q 333 124 333 149 q 313 54 333 99 q 265 -6 292 10 m 358 391 q 358 381 358 391 q 383 347 358 371 q 408 306 408 324 q 378 269 408 288 q 301 250 347 250 q 224 272 256 250 q 193 337 193 294 q 233 426 193 379 q 329 510 272 474 q 443 583 386 547 q 579 750 579 669 q 548 847 579 813 q 458 882 517 882 l 389 874 q 365 788 365 829 q 376 720 365 746 q 388 690 388 694 q 381 681 388 686 q 311 664 360 664 q 232 692 263 664 q 201 772 201 721 q 323 929 201 858 q 575 1000 444 1000 q 726 950 669 1000 q 782 816 782 900 q 738 670 782 732 q 633 569 694 608 q 508 499 571 531 q 402 440 446 468 q 358 391 358 411 z "},"@":{"ha":1189,"x_min":11,"x_max":1197,"o":"m 733 453 q 654 499 699 490 q 510 349 576 451 q 443 171 443 247 q 468 138 443 138 q 537 163 499 138 q 599 213 575 188 l 622 238 q 714 421 654 322 l 733 453 m 594 142 l 588 146 q 556 106 581 133 q 508 63 531 79 q 382 18 449 18 q 316 48 343 18 q 289 148 289 78 q 345 324 289 218 q 489 505 401 429 q 653 581 576 581 q 721 561 682 581 q 779 515 760 542 q 831 575 810 560 q 878 590 853 590 q 924 554 903 590 q 946 487 946 518 q 895 390 946 456 q 793 275 844 324 l 742 226 q 678 42 678 115 q 706 7 678 7 q 846 79 767 7 q 983 267 925 151 q 1042 488 1042 382 q 978 651 1042 594 q 798 708 914 708 q 565 651 682 708 q 360 506 449 594 q 217 302 272 417 q 161 79 161 188 q 324 -74 161 -74 q 333 -107 333 -74 q 284 -152 329 -125 q 173 -179 239 -179 q 59 -124 107 -179 q 11 8 11 -69 q 83 301 11 157 q 273 556 156 446 q 551 733 390 665 q 874 800 711 800 q 1117 724 1036 800 q 1197 525 1197 647 q 1117 261 1197 403 q 910 17 1038 119 q 661 -86 782 -86 q 588 -61 614 -86 q 563 0 563 -36 q 586 122 563 60 l 594 142 z "},"A":{"ha":731,"x_min":-194,"x_max":758,"o":"m 433 274 l 433 324 q 446 549 433 436 l 222 274 l 433 274 m 436 204 l 165 204 l 67 83 q -90 -19 -18 -19 q -165 3 -136 -19 q -194 65 -194 25 q -183 100 -194 82 l -143 103 q 88 265 -62 108 q 475 731 239 421 q 535 926 500 851 q 608 1000 571 1000 q 688 966 646 1000 q 731 912 731 932 q 726 874 731 892 q 709 833 721 856 q 690 798 697 811 q 665 757 682 785 q 643 722 647 729 q 613 368 613 531 q 749 63 613 110 q 758 42 758 54 q 703 -10 758 11 q 593 -31 649 -31 q 475 29 508 -31 q 436 204 442 89 z "},"B":{"ha":867,"x_min":104,"x_max":908,"o":"m 582 426 q 545 410 574 421 q 503 400 517 400 q 465 440 465 400 q 492 513 465 474 q 542 551 519 551 q 643 528 586 551 q 711 674 711 599 q 672 786 711 750 q 572 822 633 822 q 532 819 557 822 q 421 502 532 776 q 310 153 310 228 q 385 86 310 86 q 564 144 489 86 q 639 292 639 203 q 582 426 639 382 m 406 906 l 674 918 q 844 875 781 918 q 908 744 908 832 q 854 601 908 657 q 703 500 800 546 q 847 319 847 447 q 763 144 847 225 q 558 22 678 64 q 327 -19 439 -19 q 160 8 215 -19 q 104 96 104 36 q 158 293 104 156 q 267 576 213 431 q 321 796 321 722 q 307 824 321 814 q 277 838 293 835 q 226 844 261 840 q 214 866 214 847 q 222 901 214 885 q 236 918 231 918 q 406 906 336 906 z "},"C":{"ha":796,"x_min":97,"x_max":921,"o":"m 738 140 q 583 17 692 68 q 350 -33 474 -33 q 162 33 226 -33 q 97 198 97 100 q 132 394 97 296 q 230 586 167 493 q 372 756 293 679 q 551 880 451 833 q 744 926 651 926 q 879 899 838 926 q 921 824 921 872 q 865 719 921 775 q 736 650 810 664 q 717 663 726 651 q 707 681 707 674 q 710 690 707 688 q 735 768 735 733 q 631 842 735 840 q 492 712 568 815 q 363 475 417 608 q 308 244 308 342 q 444 92 308 92 q 690 188 594 92 q 738 140 729 175 z "},"D":{"ha":929,"x_min":104,"x_max":971,"o":"m 532 819 q 476 643 532 781 q 363 360 419 506 q 306 156 306 215 q 381 90 306 90 q 503 126 438 90 q 626 224 568 163 q 721 378 683 286 q 758 585 758 471 q 708 760 758 699 q 572 822 658 822 q 532 819 557 822 m 236 918 q 405 906 349 906 q 548 912 461 906 q 707 918 635 918 q 898 841 825 918 q 971 626 971 764 q 861 301 971 453 q 590 65 751 149 q 267 -19 429 -19 q 104 101 104 -19 q 158 293 104 156 q 267 576 213 431 q 321 796 321 722 q 307 824 321 814 q 277 838 293 835 q 226 844 261 840 q 214 866 214 847 q 222 901 214 885 q 236 918 231 918 z "},"E":{"ha":732,"x_min":49,"x_max":871,"o":"m 632 521 q 578 433 632 469 q 459 397 524 397 q 360 424 394 397 q 349 417 356 421 q 325 397 342 413 q 294 363 308 381 q 260 244 260 314 q 399 92 260 92 q 644 188 549 92 q 692 140 683 175 q 537 17 646 68 q 310 -33 428 -33 q 120 20 192 -33 q 49 178 49 74 q 115 365 49 283 q 289 503 182 446 q 260 603 260 542 q 384 838 260 749 q 703 926 508 926 q 829 899 788 926 q 871 820 871 871 q 810 714 871 769 q 669 653 749 658 q 650 665 660 654 q 640 683 640 676 q 643 693 640 690 q 690 793 690 742 q 658 828 690 817 q 584 840 625 840 q 528 831 543 840 q 443 633 443 754 q 456 561 443 606 q 563 576 494 576 q 632 521 632 576 z "},"F":{"ha":788,"x_min":-28,"x_max":1051,"o":"m 604 504 l 724 504 q 815 518 789 504 q 819 483 819 501 q 790 404 819 436 q 708 372 761 372 q 572 404 654 372 q 169 -103 424 -103 q 26 -66 81 -103 q -28 36 -28 -29 q 21 140 -28 101 q 131 178 69 178 q 150 161 150 178 q 139 132 150 160 q 128 65 128 104 q 145 -1 128 26 q 194 -29 163 -29 q 278 58 243 -29 q 385 413 313 146 q 276 403 315 413 q 263 455 263 428 q 283 501 263 482 q 332 519 303 519 q 417 513 361 519 q 589 789 467 688 q 331 824 413 824 q 268 790 288 824 q 249 678 249 756 q 226 669 240 669 q 176 738 200 669 q 153 865 153 806 q 194 966 153 925 q 310 1007 235 1007 q 495 964 386 1007 q 690 869 604 921 q 971 953 846 953 q 1051 899 1051 953 q 1004 788 1051 839 q 885 738 957 738 q 682 774 814 738 l 604 504 z "},"G":{"ha":936,"x_min":18,"x_max":1040,"o":"m 646 303 l 647 328 q 772 585 656 585 q 847 560 811 585 q 882 503 882 536 q 781 318 882 435 q 804 96 804 185 q 654 -269 804 -149 q 261 -389 504 -389 q 18 -236 18 -389 q 85 -92 18 -149 q 211 -35 151 -35 q 233 -54 233 -35 q 220 -98 233 -56 q 207 -186 207 -140 q 317 -310 207 -310 q 534 -180 449 -310 q 636 211 619 -50 q 268 32 435 32 q 144 85 189 32 q 100 239 100 138 q 158 459 100 340 q 313 684 217 578 q 554 862 410 790 q 854 933 699 933 q 991 903 942 933 q 1040 829 1040 872 q 983 708 1040 765 q 850 636 926 651 q 831 648 840 638 q 822 666 822 658 q 837 697 822 674 q 851 755 851 721 q 813 815 851 789 q 707 842 774 842 q 549 751 640 842 q 390 525 457 660 q 322 277 322 390 q 413 164 322 164 q 646 303 521 164 z "},"H":{"ha":996,"x_min":83,"x_max":1107,"o":"m 378 379 q 313 203 331 261 q 294 107 294 146 q 307 43 294 68 q 256 4 294 22 q 174 -14 218 -14 q 106 5 129 -14 q 83 76 83 24 q 149 272 83 128 q 279 567 214 415 q 344 794 344 718 q 303 827 344 811 q 235 843 261 843 q 222 860 222 843 q 231 894 222 878 q 244 911 240 911 q 281 908 265 910 q 317 904 297 906 q 399 901 356 901 q 473 906 442 901 q 526 917 504 911 q 551 924 547 924 q 564 912 556 924 q 572 881 572 900 q 558 815 572 863 q 528 729 543 767 q 479 615 513 692 q 431 503 446 539 q 561 492 486 492 q 701 501 636 492 q 714 529 708 515 q 983 938 883 938 q 1065 919 1024 938 q 1107 860 1107 901 q 1040 688 1107 794 q 875 506 972 581 q 801 294 835 417 q 767 106 767 172 q 810 80 767 89 q 889 71 854 71 q 897 21 907 71 q 886 0 893 0 q 594 -14 664 0 q 579 -2 589 -14 q 569 17 569 10 q 633 297 569 117 q 671 418 661 378 q 378 379 535 379 z "},"I":{"ha":628,"x_min":28,"x_max":768,"o":"m 529 157 q 547 79 547 119 q 521 12 547 39 q 452 -15 494 -15 q 325 -7 410 -15 q 192 1 240 1 q 42 -31 86 1 q 28 19 28 -8 q 72 103 28 67 q 189 139 117 139 q 218 136 199 139 q 288 453 232 257 q 410 779 343 649 q 376 781 397 781 q 267 746 321 781 q 249 824 249 783 q 275 891 249 864 q 344 918 301 918 q 471 910 386 918 q 604 901 556 901 q 754 933 710 901 q 768 883 768 911 q 724 800 768 836 q 607 764 679 764 q 578 767 597 764 q 463 466 539 706 q 386 124 388 226 q 419 122 399 122 q 529 157 475 122 z "},"J":{"ha":650,"x_min":-222,"x_max":789,"o":"m 519 738 q 269 808 347 808 q 204 775 224 808 q 185 664 185 742 q 163 656 176 656 q 113 724 136 656 q 89 851 89 792 q 130 952 89 911 q 242 993 171 993 q 650 833 396 993 q 729 856 703 856 q 789 811 789 856 q 763 710 789 744 q 699 675 736 675 q 601 703 661 675 q 467 115 522 288 q 156 -332 353 -240 q -15 -369 78 -369 q -165 -333 -107 -369 q -222 -220 -222 -297 q -152 -81 -222 -143 q -25 -19 -82 -19 q 0 -36 0 -19 q -15 -85 0 -37 q -29 -167 -29 -132 q 11 -233 -29 -201 q 117 -264 51 -264 q 256 11 188 -264 q 319 266 286 135 q 404 530 351 397 q 519 738 457 663 z "},"K":{"ha":858,"x_min":7,"x_max":1039,"o":"m 250 915 q 390 910 328 910 q 553 925 453 910 q 567 911 558 925 q 575 890 575 897 q 494 661 549 789 q 428 501 440 533 l 439 501 q 705 806 565 688 q 935 924 844 924 q 1012 898 985 924 q 1039 828 1039 872 q 1017 747 1039 783 q 976 710 994 710 q 946 726 974 710 q 896 743 918 743 q 726 676 824 743 q 550 513 628 610 q 623 213 581 322 q 735 103 665 103 q 835 143 786 103 q 849 108 849 133 q 795 18 849 64 q 667 -28 742 -28 q 548 3 592 -28 q 483 94 504 33 q 442 399 444 203 l 347 275 q 238 65 289 143 q 140 -14 186 -14 q 51 4 94 -14 q 7 64 7 22 q 79 186 7 101 q 157 274 104 215 q 350 799 350 711 q 308 831 350 815 q 240 847 267 847 q 228 865 228 847 q 237 899 228 882 q 250 915 246 915 z "},"L":{"ha":688,"x_min":-69,"x_max":826,"o":"m -69 15 q -25 145 -69 82 q 69 208 19 208 q 183 165 119 208 q 260 403 236 271 l 300 644 q 444 911 331 832 q 674 982 549 982 q 789 956 751 982 q 826 881 826 929 q 786 790 826 833 q 715 746 746 746 q 692 771 700 746 q 640 849 675 822 q 567 876 606 876 q 510 848 528 876 q 485 747 492 819 l 454 440 q 381 242 443 317 q 319 180 349 204 q 244 124 290 156 q 284 99 251 119 q 329 72 317 79 q 370 50 342 65 q 414 28 399 35 q 493 11 458 11 q 657 92 585 11 q 697 57 694 92 q 463 -165 626 -165 q 308 -115 376 -165 q 154 50 240 -65 q -25 -29 53 -29 q -69 15 -69 -29 z "},"M":{"ha":1172,"x_min":-167,"x_max":1228,"o":"m 926 593 l 615 250 q 617 201 617 233 q 559 53 617 121 q 443 -14 501 -14 q 390 15 408 -14 q 371 79 371 44 q 436 225 371 142 q 442 286 442 264 q 394 544 442 369 q 118 61 238 174 q 22 -11 61 7 q -63 -29 -18 -29 q -137 17 -108 -29 q -167 119 -167 63 q -124 169 -167 140 q -35 147 -78 147 q 62 201 7 147 q 175 344 117 256 q 361 663 272 493 q 336 826 336 756 q 382 936 336 897 q 426 954 392 944 q 490 964 460 964 q 531 951 519 964 q 550 879 550 928 q 496 711 550 776 q 519 658 497 707 q 604 367 582 528 q 802 580 668 439 q 964 753 936 721 q 1031 898 986 838 q 1117 958 1076 958 q 1192 932 1157 958 q 1228 872 1228 906 q 1176 789 1228 843 q 1156 768 1163 775 q 1134 746 1150 761 q 1115 728 1118 731 q 1047 488 1072 633 q 1021 249 1021 342 q 1106 103 1021 103 q 1168 114 1135 103 q 1178 93 1178 106 q 1123 13 1178 57 q 994 -31 1068 -31 q 871 19 921 -31 q 821 171 821 69 q 874 439 821 279 q 926 593 890 490 z "},"N":{"ha":992,"x_min":-14,"x_max":1158,"o":"m 824 4 l 817 -21 q 736 -40 782 -40 q 660 -25 690 -40 q 600 26 629 -10 q 549 93 571 61 q 500 185 528 125 q 457 281 472 246 q 413 390 442 317 q 372 492 385 463 q 226 94 275 186 q 88 -26 163 -26 q 13 1 40 -26 q -14 57 -14 28 q 0 92 -14 86 q 36 96 14 96 q 172 255 88 96 q 317 628 256 414 q 288 824 288 765 q 306 916 288 882 q 369 950 324 950 q 497 876 497 950 q 467 747 497 839 q 513 630 482 708 q 556 519 543 551 q 593 428 569 486 q 631 339 617 371 q 706 189 668 256 l 724 278 q 853 828 817 744 q 896 897 872 869 q 1038 968 957 968 q 1124 935 1089 968 q 1158 849 1158 903 q 1151 799 1158 822 q 1109 804 1132 804 q 1056 790 1086 804 q 983 730 1025 776 q 904 608 940 683 q 833 393 868 532 q 778 72 799 254 q 824 4 778 43 z "},"O":{"ha":899,"x_min":97,"x_max":926,"o":"m 408 96 q 563 177 486 96 q 685 367 640 258 q 731 567 731 476 q 563 769 731 769 q 511 764 535 769 q 483 753 488 758 q 467 733 479 749 q 422 669 454 718 q 364 569 389 619 q 319 443 339 518 q 299 287 299 368 q 328 151 299 206 q 408 96 358 96 m 333 -21 q 159 44 221 -21 q 97 222 97 108 q 149 461 97 335 q 285 688 200 588 q 488 853 369 789 q 733 917 607 917 q 872 860 817 917 q 926 711 926 803 q 840 354 926 525 q 617 81 754 183 q 333 -21 479 -21 z "},"P":{"ha":788,"x_min":83,"x_max":939,"o":"m 406 910 l 701 918 q 876 857 814 918 q 939 704 939 796 q 818 463 939 574 q 482 335 697 351 q 461 382 461 335 q 468 417 461 403 q 674 503 596 419 q 753 682 753 586 q 716 783 753 743 q 608 822 679 822 q 549 819 568 822 q 415 458 531 743 q 299 93 299 172 q 311 43 299 75 q 260 4 299 22 q 181 -14 222 -14 q 83 68 83 -14 q 146 268 83 122 q 270 569 208 414 q 332 801 332 725 q 297 834 332 818 q 236 850 261 850 q 224 867 224 850 q 233 901 224 885 q 246 918 242 918 q 406 910 363 910 z "},"Q":{"ha":935,"x_min":0,"x_max":1013,"o":"m 288 -112 l 288 -121 q 824 -207 653 -207 q 903 -186 875 -207 q 968 -110 932 -165 q 974 -108 971 -108 q 981 -108 974 -108 q 1013 -117 999 -108 q 957 -312 1013 -236 q 805 -389 901 -389 q 567 -344 708 -389 q 297 -247 426 -299 q 132 -189 168 -196 q 53 -211 76 -211 q 15 -197 31 -211 q 0 -153 0 -183 q 26 -89 0 -122 q 93 -56 53 -56 q 169 -68 119 -56 l 186 -72 q 636 231 490 39 q 726 399 692 301 q 761 604 761 497 q 706 760 761 711 q 563 808 651 808 q 392 619 465 758 q 319 350 319 479 q 342 263 319 288 q 391 239 365 239 q 448 258 417 239 q 496 296 479 278 q 538 249 532 283 q 372 131 475 167 q 289 115 331 115 q 159 162 213 115 q 106 305 106 208 q 160 514 106 401 q 302 715 215 626 q 503 860 389 803 q 728 917 618 917 q 907 851 838 917 q 976 669 976 786 q 931 444 976 553 q 814 249 886 335 q 649 90 742 164 q 288 -112 482 -42 z "},"R":{"ha":899,"x_min":83,"x_max":940,"o":"m 406 910 l 697 918 q 874 867 808 918 q 940 707 940 815 q 858 513 940 599 q 660 393 776 428 q 803 103 703 103 q 913 143 854 103 q 926 108 926 133 q 873 18 926 64 q 733 -28 819 -28 q 525 282 525 -28 q 528 350 525 306 q 490 342 506 342 q 450 375 450 342 q 485 459 450 413 q 557 506 519 506 q 632 465 594 506 q 728 671 728 557 q 692 785 728 743 q 590 826 657 826 q 535 824 554 826 q 468 612 525 757 q 360 322 411 467 q 310 92 310 178 q 322 42 310 72 q 306 26 317 36 q 259 1 296 17 q 181 -14 222 -14 q 83 65 83 -14 q 146 260 83 118 q 272 556 208 403 q 335 793 335 710 q 313 828 335 818 q 236 843 292 839 q 225 876 225 850 q 246 918 225 901 q 285 915 256 918 q 406 910 343 910 z "},"S":{"ha":686,"x_min":35,"x_max":797,"o":"m 628 613 q 604 646 604 621 q 629 724 629 676 q 594 806 629 771 q 500 840 558 840 q 454 835 475 840 q 406 717 406 781 q 445 594 406 654 q 532 487 485 535 q 619 375 579 439 q 658 253 658 311 q 551 43 658 118 q 289 -32 444 -32 q 101 15 168 -32 q 35 134 35 63 q 81 253 35 206 q 210 300 126 300 q 225 286 225 300 q 214 244 225 281 q 203 178 203 207 q 238 87 203 121 q 328 53 272 53 q 420 90 385 53 q 456 188 456 126 q 369 343 456 243 q 297 431 333 385 q 211 649 211 540 q 319 856 211 782 q 589 931 428 931 q 742 892 686 931 q 797 793 797 854 q 746 680 797 732 q 628 613 694 628 z "},"T":{"ha":747,"x_min":-42,"x_max":983,"o":"m 564 751 q 260 832 361 832 q 178 708 178 832 q 149 700 165 700 q 106 754 126 700 q 86 858 86 808 q 124 942 86 908 q 228 976 163 976 q 534 924 342 976 q 803 871 726 871 q 868 904 849 871 q 888 1015 888 938 q 910 1024 896 1024 q 960 961 938 1024 q 983 833 983 899 q 942 727 983 768 q 828 686 901 686 q 660 718 756 686 q 442 82 565 263 q 316 -48 379 -8 q 165 -87 253 -87 q 17 -46 76 -87 q -42 60 -42 -4 q 22 178 -42 124 q 129 232 86 232 q 149 215 149 232 q 133 183 149 214 q 118 116 118 151 q 161 41 118 81 q 253 1 204 1 q 303 63 281 1 q 348 221 326 125 q 395 418 369 317 q 465 614 421 519 q 564 751 508 708 z "},"U":{"ha":949,"x_min":118,"x_max":1025,"o":"m 375 910 l 494 918 q 523 905 511 918 q 535 868 535 892 q 479 648 535 789 q 368 374 424 507 q 313 185 313 242 q 358 140 313 140 q 490 224 404 140 q 644 415 575 308 q 790 809 726 689 q 942 929 854 929 q 997 899 969 929 q 1025 842 1025 868 q 968 674 1025 788 q 792 404 911 561 q 769 293 779 360 q 760 196 760 226 q 844 88 760 88 q 925 106 881 88 q 949 58 949 88 q 883 2 949 28 q 750 -24 817 -24 q 646 14 683 -24 q 608 122 608 51 q 626 260 608 193 l 619 260 q 440 67 543 153 q 249 -18 338 -18 q 150 22 182 -18 q 118 128 118 61 q 167 323 118 196 q 266 583 217 450 q 315 799 315 717 q 285 830 307 821 q 218 842 264 839 q 208 868 208 851 q 217 901 208 885 q 235 918 226 918 l 375 910 z "},"V":{"ha":735,"x_min":36,"x_max":922,"o":"m 118 43 q 135 76 119 60 q 164 99 150 92 l 179 106 q 204 469 204 296 q 183 735 204 643 q 131 828 163 828 q 57 815 92 828 q 36 851 36 831 q 60 877 36 861 q 132 907 83 893 q 236 921 181 921 q 355 851 310 921 q 400 628 400 781 q 364 261 400 469 l 353 192 q 624 524 504 324 q 744 832 744 725 l 736 919 q 815 931 775 931 q 922 815 922 931 q 731 467 922 699 q 338 82 539 236 q 276 1 325 35 q 192 -33 226 -33 q 138 -11 157 -33 q 118 43 118 11 z "},"W":{"ha":1197,"x_min":15,"x_max":1364,"o":"m 803 100 q 672 -47 758 -47 q 609 -22 640 -47 q 578 34 578 4 q 592 83 578 64 q 640 126 607 101 q 664 461 661 279 q 325 99 506 258 q 192 -37 271 -37 q 126 -13 156 -37 q 97 39 97 11 q 158 124 97 86 q 183 478 183 314 q 163 735 183 643 q 110 828 142 828 q 36 815 71 828 q 15 851 15 831 q 39 877 15 861 q 111 907 63 893 q 215 921 160 921 q 334 851 289 921 q 379 628 379 781 q 344 261 379 469 l 332 192 q 520 403 435 281 q 661 649 606 525 q 646 768 658 710 q 633 835 633 826 q 671 901 633 876 q 767 926 708 926 q 843 909 825 926 q 861 851 861 892 q 850 728 861 810 q 839 621 839 646 q 811 194 839 450 q 1073 497 974 336 q 1172 800 1172 658 q 1160 876 1172 853 q 1149 905 1149 900 q 1158 917 1149 910 q 1244 939 1189 939 q 1332 909 1300 939 q 1364 821 1364 879 q 1172 428 1364 631 q 997 258 1079 329 q 803 100 915 186 z "},"X":{"ha":861,"x_min":-14,"x_max":1014,"o":"m 421 301 l 415 301 q 221 39 278 92 q 102 -21 157 -21 q 17 13 47 -21 q -14 88 -14 47 q -6 149 -14 128 q 11 169 3 169 q 24 163 14 169 q 93 142 53 142 q 406 413 201 142 q 347 685 375 622 q 267 747 318 747 q 203 717 229 747 q 192 707 194 707 q 183 713 189 707 q 168 763 168 728 q 219 876 168 825 q 363 926 269 926 q 490 847 456 926 q 546 567 524 768 l 553 567 q 762 848 682 772 q 925 924 842 924 q 992 899 971 924 q 1014 840 1014 875 q 1001 774 1014 806 q 974 724 988 742 q 956 707 960 707 q 931 724 953 707 q 875 740 908 740 q 734 672 801 740 q 565 458 667 603 q 633 208 596 286 q 743 131 669 131 q 810 140 797 131 q 826 149 824 149 q 835 117 835 149 q 783 11 835 61 q 642 -39 732 -39 q 501 41 553 -39 q 421 301 449 121 z "},"Y":{"ha":638,"x_min":22,"x_max":871,"o":"m 363 453 l 371 451 q 557 807 453 678 q 756 936 661 936 q 842 904 814 936 q 871 827 871 872 q 853 752 871 782 q 821 722 836 722 q 788 739 818 722 q 736 756 758 756 q 569 628 665 756 q 378 303 474 500 q 350 76 375 169 q 286 -18 325 -18 q 214 -8 249 -18 q 150 55 150 10 q 188 184 150 100 q 274 328 225 268 q 178 692 257 599 q 104 751 140 735 q 24 768 68 768 q 22 796 22 778 q 60 902 22 864 q 147 940 97 940 q 231 922 197 940 q 285 878 264 904 q 322 807 307 851 q 345 725 338 763 q 357 631 353 688 q 363 453 363 554 z "},"Z":{"ha":778,"x_min":49,"x_max":889,"o":"m 232 582 l 172 582 q 143 781 143 714 q 183 892 143 847 q 301 936 222 936 q 526 876 381 936 q 696 808 672 815 q 744 905 721 876 q 808 933 767 933 q 861 899 833 933 q 889 820 889 864 q 840 724 889 776 q 713 633 792 671 q 325 171 567 422 q 480 60 400 106 q 616 15 560 15 q 703 37 672 15 q 776 125 735 58 q 824 78 824 119 q 796 -24 824 36 q 711 -134 768 -83 q 588 -185 654 -185 q 250 69 429 -185 q 113 -28 171 -28 q 64 -8 79 -28 q 49 69 49 11 q 85 194 49 128 q 182 260 122 260 q 256 232 210 260 q 600 646 451 438 q 517 674 578 653 q 333 718 385 718 q 259 686 282 718 q 232 582 236 654 z "},"[":{"ha":604,"x_min":-111,"x_max":757,"o":"m 433 -76 l 493 -76 q 445 -220 493 -162 q 300 -278 397 -278 q 170 -248 233 -278 q 78 -189 107 -218 l 47 -158 q -42 -196 -1 -196 q -97 -180 -82 -196 q -111 -131 -111 -164 q -29 -72 -111 -72 q 11 -75 -14 -72 q 308 807 242 435 q 207 883 207 810 q 224 931 207 914 q 268 947 242 947 q 385 901 338 947 q 457 929 408 910 q 533 958 506 949 q 675 986 613 986 q 757 893 757 986 q 739 776 757 847 l 667 776 q 597 847 664 847 q 429 825 572 847 q 444 722 444 774 q 322 285 444 574 q 103 -104 200 -3 q 311 -135 201 -135 q 425 -97 394 -135 q 433 -76 432 -89 z "},"\\":{"ha":956,"x_min":139,"x_max":1164,"o":"m 272 1006 q 1161 -260 846 89 q 1164 -268 1164 -262 q 1142 -288 1164 -279 q 1096 -297 1119 -297 q 1064 -287 1072 -297 q 608 269 857 -78 q 146 967 358 617 q 139 986 139 978 q 193 1014 139 1014 q 272 1006 247 1014 z "},"]":{"ha":607,"x_min":-125,"x_max":718,"o":"m -12 -278 q -43 -278 -12 -278 q -99 -240 -74 -278 q -125 -153 -125 -203 q -112 -76 -125 -104 l -47 -76 q 18 -137 -44 -137 q 192 -117 74 -137 l 232 -110 q 214 35 214 -50 q 294 449 214 219 q 497 815 375 678 q 296 851 397 851 q 243 832 268 851 q 207 793 218 813 l 196 774 l 136 774 q 156 893 136 842 q 279 989 192 989 q 416 960 346 989 q 522 901 486 931 l 560 872 q 660 918 617 918 q 718 858 718 918 q 693 805 718 824 q 641 786 668 786 q 603 788 614 786 q 319 -106 389 286 q 421 -182 421 -108 q 403 -229 421 -212 q 360 -246 386 -246 q 260 -187 303 -246 q 193 -217 236 -197 q 122 -247 150 -236 q -12 -278 49 -278 z "},"^":{"ha":708,"x_min":81,"x_max":756,"o":"m 749 619 q 756 609 756 619 q 722 574 756 599 q 653 550 688 550 q 580 640 614 550 q 524 820 546 731 q 496 910 503 910 q 417 821 489 910 q 260 643 344 732 q 138 554 175 554 q 100 575 119 554 q 81 603 81 596 q 88 613 81 610 q 236 733 124 621 q 451 953 349 846 q 572 1060 554 1060 q 621 949 590 1060 q 685 729 651 839 q 749 619 719 619 z "},"_":{"ha":669,"x_min":-53,"x_max":599,"o":"m 583 38 q 599 -24 599 7 q 573 -76 599 -56 q 515 -96 547 -96 q 355 -88 483 -96 q 118 -81 226 -81 q -39 -106 10 -81 q -53 -51 -53 -85 q -29 7 -53 -18 q 34 32 -6 32 q 195 26 74 32 q 419 19 317 19 q 583 38 522 19 z "},"`":{"ha":563,"x_min":103,"x_max":494,"o":"m 203 1047 q 326 905 246 968 q 493 814 406 842 q 494 804 494 811 q 453 768 494 768 q 334 785 413 768 q 179 839 256 801 q 103 921 103 876 q 128 984 103 949 q 203 1047 154 1019 z "},"a":{"ha":831,"x_min":42,"x_max":831,"o":"m 579 544 q 542 581 565 567 q 503 597 518 594 l 486 600 q 302 406 386 539 q 218 164 218 274 q 230 127 218 140 q 257 114 242 114 q 347 150 297 114 q 428 222 397 186 l 458 258 q 579 544 493 386 m 446 163 q 426 140 444 161 q 384 95 408 119 q 328 44 360 71 q 183 -14 254 -14 q 77 29 113 -14 q 42 157 42 72 q 111 369 42 242 q 288 592 181 497 q 488 686 394 686 q 566 665 529 686 q 619 617 603 644 q 764 754 707 754 q 811 724 792 754 q 831 655 831 694 q 768 510 831 615 q 614 294 706 406 q 603 176 603 249 q 656 79 603 79 q 744 113 690 79 l 763 124 q 777 107 767 124 q 788 81 788 90 q 760 50 788 72 q 680 6 732 28 q 575 -15 628 -15 q 446 163 446 -15 z "},"b":{"ha":769,"x_min":0,"x_max":756,"o":"m 540 575 q 440 510 499 563 q 344 410 382 457 l 308 363 q 233 169 290 293 l 214 128 q 317 72 261 72 q 437 152 374 72 q 540 337 500 232 q 579 517 579 442 q 567 558 579 542 q 540 575 556 575 m 165 51 q 100 -10 128 -6 q 31 13 63 -10 q 0 65 0 36 q 42 161 0 93 q 154 307 83 229 q 301 885 301 678 q 262 905 290 894 q 208 915 233 915 q 194 942 194 915 q 210 978 194 969 q 310 972 260 972 q 382 974 361 972 q 422 978 403 975 q 449 984 440 982 q 475 992 457 986 q 497 999 493 999 q 508 990 501 1000 q 515 966 515 979 q 506 906 515 953 q 451 741 496 858 q 335 493 407 624 q 340 489 335 492 q 344 485 344 486 q 378 524 347 488 q 429 582 408 561 q 483 633 450 603 q 621 694 553 694 q 756 536 756 694 q 722 367 756 461 q 632 188 689 274 q 488 44 575 103 q 309 -14 401 -14 q 165 51 217 -14 z "},"c":{"ha":649,"x_min":49,"x_max":676,"o":"m 544 207 q 547 207 544 207 q 559 194 550 207 q 568 176 568 182 q 551 150 568 169 q 503 103 535 131 q 432 50 471 75 q 242 -14 336 -14 q 98 40 147 -14 q 49 190 49 94 q 115 406 49 286 q 297 610 182 525 q 532 694 411 694 q 676 560 676 694 q 626 451 676 493 q 525 410 576 410 q 501 422 501 410 q 506 489 506 485 q 431 588 506 588 q 375 578 406 588 q 324 524 354 561 q 272 452 293 488 q 234 361 251 417 q 217 247 217 306 q 247 152 217 189 q 326 115 276 115 q 426 138 376 115 q 507 184 475 161 q 544 207 539 207 z "},"d":{"ha":833,"x_min":42,"x_max":932,"o":"m 576 -14 q 446 168 446 -14 q 431 149 440 161 q 393 105 422 136 q 333 49 364 74 q 260 6 303 25 q 176 -14 217 -14 q 77 29 113 -14 q 42 156 42 72 q 111 369 42 240 q 288 592 181 497 q 488 686 394 686 q 599 639 556 686 q 824 972 747 972 q 895 949 858 972 q 932 874 932 925 q 842 672 932 822 q 632 357 753 522 q 604 185 604 290 q 657 81 604 81 q 746 114 692 81 l 764 125 q 778 108 768 125 q 789 83 789 92 q 761 51 789 74 q 681 8 733 29 q 576 -14 629 -14 m 565 561 q 486 600 535 594 q 302 406 386 539 q 218 163 218 272 q 230 126 218 139 q 257 114 242 114 q 347 150 297 114 q 428 222 397 186 l 458 258 q 565 561 488 376 z "},"e":{"ha":656,"x_min":49,"x_max":676,"o":"m 375 578 q 297 483 342 549 q 232 361 251 418 q 368 388 310 368 q 453 431 426 407 q 506 513 506 476 q 485 571 506 550 q 433 592 464 592 q 375 578 401 592 m 217 294 q 214 258 214 264 q 240 156 214 197 q 322 115 267 115 q 513 185 429 115 q 521 186 514 186 q 539 175 528 186 q 550 151 550 164 q 508 100 550 139 q 389 24 467 61 q 232 -14 311 -14 q 101 39 153 -14 q 49 178 49 92 q 90 354 49 264 q 198 519 132 444 q 354 644 264 594 q 519 694 444 694 q 635 662 594 694 q 676 571 676 629 q 628 433 676 496 q 217 294 525 306 z "},"f":{"ha":515,"x_min":-361,"x_max":932,"o":"m 557 540 q 435 549 551 540 q 383 391 414 489 q 330 227 351 293 q 275 74 308 161 q 213 -72 242 -12 q 140 -193 183 -131 q 50 -292 96 -256 q -189 -378 -57 -378 q -316 -340 -271 -378 q -361 -238 -361 -301 q -307 -133 -361 -175 q -218 -92 -253 -92 q -210 -100 -215 -92 q -206 -110 -206 -108 q -208 -121 -206 -112 q -215 -175 -215 -142 q -156 -300 -215 -300 q 31 -103 -50 -300 q 100 92 69 -7 q 258 558 214 451 q 163 528 163 558 q 129 543 144 528 q 114 590 114 558 q 151 642 114 621 q 261 663 189 663 l 303 663 q 480 910 381 821 q 714 1000 579 1000 q 870 974 808 1000 q 932 893 932 949 q 877 801 932 838 q 769 764 822 764 q 761 769 765 764 q 757 776 757 774 q 763 796 757 778 q 769 835 769 814 q 760 873 769 856 q 738 899 751 890 q 703 914 725 908 q 613 921 667 921 q 476 663 542 828 q 700 665 635 665 q 707 640 707 656 q 557 540 674 540 z "},"g":{"ha":783,"x_min":-126,"x_max":828,"o":"m 576 542 q 539 578 563 564 q 500 594 515 592 l 483 597 q 299 403 383 536 q 215 161 215 271 q 227 124 215 138 q 254 111 239 111 q 344 147 294 111 q 425 219 394 183 l 456 256 q 576 542 490 383 m 672 369 q 407 -215 554 -43 q 96 -376 269 -376 q -46 -347 25 -376 q -104 -303 -82 -333 q -126 -233 -126 -274 q -67 -106 -126 -160 q 43 -51 -7 -51 q 65 -65 65 -51 q 53 -108 65 -67 q 40 -188 40 -150 q 64 -258 40 -226 q 138 -290 88 -290 q 238 -247 188 -290 q 319 -140 288 -203 q 411 92 385 -12 l 422 135 q 424 138 422 136 q 174 -17 288 -17 q 74 26 110 -17 q 39 154 39 69 q 108 367 39 239 q 285 589 178 494 q 485 683 392 683 q 563 663 526 683 q 617 614 600 642 q 761 751 704 751 q 808 722 789 751 q 828 661 828 692 q 672 369 828 579 z "},"h":{"ha":800,"x_min":7,"x_max":744,"o":"m 211 978 l 371 972 q 463 987 431 972 q 499 1001 494 1001 q 510 990 504 1001 q 517 974 517 979 q 319 481 517 861 l 326 475 q 464 610 354 522 q 631 699 574 699 q 717 667 689 699 q 744 585 744 635 q 666 329 744 510 q 588 100 588 149 q 601 83 588 83 q 683 117 636 83 l 700 128 q 717 111 708 128 q 725 85 725 94 q 697 53 725 75 q 612 8 668 31 q 496 -14 556 -14 q 406 61 406 -14 q 478 280 406 108 q 551 531 551 451 q 544 560 551 549 q 522 574 536 571 q 481 547 507 564 q 399 474 456 529 q 308 363 342 419 q 215 106 278 224 q 118 -11 153 -11 q 45 2 83 -11 q 7 42 7 15 q 44 161 7 89 q 117 282 81 233 l 154 331 q 258 619 217 458 q 300 871 300 781 q 210 915 300 908 q 196 919 199 917 q 193 935 193 922 q 200 963 193 947 q 211 978 207 978 z "},"i":{"ha":451,"x_min":63,"x_max":556,"o":"m 507 814 q 408 800 479 800 q 310 808 338 800 q 321 883 321 849 q 319 929 321 918 q 407 974 335 953 q 547 996 479 996 q 556 965 556 996 q 540 882 556 935 q 507 814 525 829 m 374 111 q 378 103 374 111 q 382 85 382 94 q 353 53 382 75 q 269 8 325 31 q 153 -14 213 -14 q 63 61 63 -14 q 106 234 63 129 q 192 433 149 339 q 236 571 236 528 q 225 585 236 585 q 181 572 210 585 q 146 558 153 558 q 130 577 139 558 q 121 606 121 596 q 161 633 121 613 q 263 672 201 653 q 358 690 324 690 q 421 674 392 690 q 450 635 450 658 q 399 506 450 613 q 297 278 349 399 q 246 100 246 157 q 260 83 246 83 q 342 117 293 83 l 357 128 q 374 111 365 128 z "},"j":{"ha":432,"x_min":-360,"x_max":556,"o":"m 507 814 q 408 800 479 800 q 310 808 338 800 q 321 883 321 849 q 319 929 321 918 q 407 974 335 953 q 547 996 479 996 q 556 965 556 996 q 540 882 556 935 q 507 814 525 829 m 443 611 q 440 602 443 611 q 421 553 436 593 q 330 296 406 514 q 225 3 254 78 q 163 -131 196 -72 q 81 -251 131 -190 q -37 -344 32 -311 q -187 -378 -106 -378 q -315 -337 -269 -378 q -360 -228 -360 -297 q -299 -106 -360 -160 q -190 -51 -239 -51 q -168 -65 -168 -51 q -181 -108 -168 -67 q -193 -182 -193 -150 q -114 -292 -193 -292 q -14 -206 -47 -292 q 33 -46 10 -146 q 69 97 56 54 q 125 253 82 139 q 236 565 236 544 q 225 585 236 585 q 181 572 210 585 q 146 558 153 558 q 130 577 139 558 q 121 606 121 596 q 161 633 121 613 q 263 672 201 653 q 358 690 324 690 q 421 674 392 690 q 450 644 450 658 q 443 611 450 629 z "},"k":{"ha":749,"x_min":0,"x_max":769,"o":"m 204 978 l 364 972 q 456 987 425 972 q 492 1001 488 1001 q 503 990 497 1001 q 510 974 510 979 q 313 481 510 861 l 319 475 q 488 642 413 586 q 649 699 563 699 q 739 664 708 699 q 769 569 769 629 q 744 463 769 510 q 669 383 718 415 q 469 290 590 331 q 515 160 475 236 q 594 85 556 85 q 696 119 633 85 q 709 106 704 119 q 714 82 714 92 q 614 1 682 39 q 478 -36 546 -36 q 409 3 435 -36 q 374 103 383 43 q 360 256 364 163 q 347 259 353 256 q 337 265 342 263 q 331 269 332 267 q 326 275 329 271 q 322 297 322 279 q 349 342 322 314 q 399 369 375 369 q 453 339 422 369 q 543 408 508 361 q 578 511 578 456 q 536 567 578 567 q 301 363 392 536 q 208 106 271 224 q 111 -11 146 -11 q 38 2 76 -11 q 0 42 0 15 q 37 161 0 89 q 111 282 74 233 l 147 331 q 251 619 210 458 q 293 871 293 781 q 203 915 293 908 q 189 919 192 917 q 186 935 186 922 q 193 963 186 947 q 204 978 200 978 z "},"l":{"ha":428,"x_min":42,"x_max":594,"o":"m 229 76 q 350 121 274 76 q 367 104 358 121 q 375 78 375 88 q 342 45 375 68 q 249 1 310 22 q 129 -21 189 -21 q 42 74 42 -21 q 119 362 42 144 q 301 776 197 579 q 464 972 406 972 q 560 949 525 972 q 594 897 594 926 q 329 474 594 789 q 201 100 201 201 q 229 76 201 76 z "},"m":{"ha":1204,"x_min":42,"x_max":1154,"o":"m 683 289 q 595 79 647 169 q 513 -11 543 -11 q 440 2 478 -11 q 401 42 401 15 q 438 161 401 89 q 511 282 475 233 l 549 331 q 576 533 576 426 q 569 558 576 547 q 546 574 561 568 q 508 547 532 564 q 431 474 485 529 q 343 363 376 419 q 250 106 313 224 q 153 -11 188 -11 q 80 2 118 -11 q 42 42 42 15 q 78 161 42 89 q 153 282 115 233 l 189 331 q 217 538 217 425 q 196 588 217 588 q 158 576 181 588 q 129 564 136 564 q 114 581 122 564 q 106 606 106 597 q 137 637 106 615 q 221 679 168 658 q 319 700 274 700 q 355 664 340 700 q 369 570 369 628 q 367 488 369 513 q 499 627 406 556 q 663 699 593 699 q 737 662 711 699 q 763 575 763 625 q 749 479 763 525 q 889 631 804 564 q 1049 699 974 699 q 1126 667 1099 699 q 1154 579 1154 635 q 1107 419 1154 524 q 1013 222 1060 314 q 965 107 965 131 q 979 83 965 83 q 1061 117 1014 83 l 1078 128 q 1094 111 1086 128 q 1103 85 1103 94 q 1074 53 1103 75 q 990 8 1046 31 q 874 -14 933 -14 q 783 61 783 -14 q 872 286 783 111 q 961 531 961 461 q 956 560 961 549 q 939 574 950 571 q 920 559 932 568 q 874 520 908 550 q 810 458 840 490 q 683 289 728 375 z "},"n":{"ha":835,"x_min":42,"x_max":779,"o":"m 343 363 q 250 106 313 224 q 153 -11 188 -11 q 80 2 118 -11 q 42 42 42 15 q 78 161 42 89 q 153 282 115 233 l 189 331 q 217 538 217 425 q 196 588 217 588 q 158 576 181 588 q 129 564 136 564 q 114 581 122 564 q 106 606 106 597 q 137 637 106 615 q 221 679 168 658 q 319 700 274 700 q 355 663 340 700 q 369 581 369 625 q 367 488 369 538 q 505 626 406 554 q 664 699 604 699 q 751 667 724 699 q 779 585 779 635 q 701 329 779 510 q 622 100 622 149 q 636 83 622 83 q 719 117 671 83 l 735 128 q 751 111 743 128 q 760 85 760 94 q 731 53 760 75 q 647 8 703 31 q 531 -14 590 -14 q 440 61 440 -14 q 513 280 440 108 q 586 531 586 451 q 579 560 586 549 q 557 574 572 571 q 516 547 542 564 q 433 474 490 529 q 343 363 376 419 z "},"o":{"ha":693,"x_min":49,"x_max":686,"o":"m 297 110 q 451 224 379 110 q 522 438 522 338 q 406 579 522 579 q 369 575 386 579 q 350 567 353 571 q 338 553 347 564 q 307 508 329 543 q 267 439 285 474 q 221 265 221 343 q 242 148 221 186 q 297 110 263 110 m 203 -12 q 49 144 49 -12 q 88 326 49 229 q 188 506 126 424 q 336 642 250 588 q 512 697 422 697 q 644 662 601 697 q 686 547 686 626 q 608 283 686 415 q 417 69 531 150 q 203 -12 304 -12 z "},"p":{"ha":815,"x_min":-111,"x_max":794,"o":"m 558 576 q 385 443 469 539 q 272 156 342 299 q 254 115 257 122 q 336 86 297 86 q 515 218 429 86 q 601 488 601 350 q 558 576 601 576 m 218 38 q 170 -64 204 10 q 119 -172 136 -137 q 76 -253 103 -206 q -10 -339 28 -339 q -73 -316 -35 -339 q -111 -268 -111 -293 q -1 -7 -111 -215 q 196 329 108 201 q 236 533 236 450 q 196 593 236 593 q 143 578 175 593 q 107 561 111 563 q 90 581 99 563 q 82 614 82 600 q 318 714 229 714 q 383 686 358 714 q 408 600 408 658 q 403 539 408 586 q 661 701 553 701 q 794 536 794 701 q 736 310 794 433 q 569 93 678 186 q 342 0 461 0 q 218 38 274 0 z "},"q":{"ha":749,"x_min":42,"x_max":776,"o":"m 571 554 q 500 597 542 589 l 486 600 q 302 406 386 539 q 218 164 218 274 q 230 127 218 140 q 257 114 242 114 q 347 150 297 114 q 428 222 397 186 l 458 258 q 571 554 501 404 m 531 -329 q 515 -344 525 -335 q 470 -367 506 -353 q 393 -382 435 -382 q 331 -365 351 -382 q 311 -307 311 -349 q 433 153 311 -164 q 321 41 390 96 q 182 -14 251 -14 q 77 29 113 -14 q 42 157 42 72 q 111 369 42 242 q 288 592 181 497 q 488 686 394 686 q 611 628 556 686 q 665 686 647 686 q 738 673 700 686 q 776 633 776 660 q 740 517 776 589 q 667 394 703 444 l 629 344 q 607 294 619 325 q 517 -247 517 -56 q 531 -329 517 -307 z "},"r":{"ha":646,"x_min":42,"x_max":729,"o":"m 504 557 q 425 465 485 547 q 333 322 365 382 q 245 86 301 183 q 153 -11 189 -11 q 80 2 118 -11 q 42 42 42 15 q 78 161 42 89 q 153 282 115 233 l 189 331 q 217 538 217 425 q 196 588 217 588 q 158 576 181 588 q 129 564 136 564 q 114 581 122 564 q 106 606 106 597 q 137 637 106 615 q 221 679 168 658 q 319 700 274 700 q 355 661 340 700 q 369 578 369 622 q 368 513 369 535 q 367 483 367 492 q 484 636 418 574 q 610 699 550 699 q 699 667 669 699 q 729 578 729 635 q 651 425 729 500 q 517 350 574 350 q 489 368 489 350 q 510 417 489 372 q 532 509 532 461 q 504 557 532 557 z "},"s":{"ha":639,"x_min":14,"x_max":639,"o":"m 492 454 q 484 482 472 454 q 496 538 496 510 q 470 583 496 565 q 412 601 444 601 q 343 593 379 601 q 322 520 322 558 q 358 441 322 482 q 435 372 393 400 q 513 303 478 343 q 549 225 549 264 q 454 51 549 114 q 249 -12 360 -12 q 76 38 139 -12 q 14 142 14 88 q 52 230 14 197 q 167 263 90 263 q 178 251 178 263 q 169 219 178 247 q 161 169 161 192 q 192 97 161 122 q 267 71 224 71 q 342 96 311 71 q 374 158 374 121 q 352 219 374 194 q 299 265 331 243 q 236 311 268 286 q 163 457 163 368 q 256 633 163 568 q 468 697 349 697 q 592 668 544 697 q 639 583 639 639 q 624 521 639 547 q 589 482 608 494 q 544 463 569 469 q 492 454 514 454 z "},"t":{"ha":568,"x_min":76,"x_max":638,"o":"m 481 79 q 370 8 439 36 q 235 -19 301 -19 q 127 15 169 -19 q 85 117 85 50 q 129 303 85 185 q 240 550 174 422 q 183 557 210 557 q 107 525 131 557 q 76 592 76 557 q 114 650 76 626 q 204 674 151 674 q 292 667 257 674 q 335 838 328 742 q 478 885 383 885 q 517 870 503 885 q 532 831 532 856 q 436 643 532 763 q 528 633 476 633 q 633 653 581 633 q 638 613 638 632 q 490 496 638 496 q 374 518 429 496 q 275 151 275 256 q 338 96 275 96 q 405 109 369 96 q 456 138 440 122 q 483 99 483 128 q 481 79 483 90 z "},"u":{"ha":842,"x_min":69,"x_max":821,"o":"m 226 592 q 147 565 194 592 q 129 582 138 565 q 121 608 121 599 q 147 636 121 618 q 225 672 174 654 q 332 689 276 689 q 422 614 422 689 q 381 487 422 571 q 297 310 339 403 q 256 156 256 218 q 263 126 256 138 q 285 113 269 115 q 300 119 290 115 q 338 142 310 124 q 392 182 367 160 q 506 324 460 240 q 753 708 622 708 q 799 681 778 708 q 821 629 821 653 q 776 501 821 578 q 688 375 732 425 l 643 324 q 625 176 625 269 q 678 83 625 83 q 738 101 706 83 q 785 128 771 118 q 799 111 789 128 q 810 85 810 94 q 781 53 810 76 q 697 8 751 31 q 585 -15 643 -15 q 499 35 526 -15 q 472 154 472 86 q 474 186 472 176 q 342 53 438 119 q 185 -12 246 -12 q 97 19 125 -12 q 69 101 69 51 q 155 351 69 176 q 240 575 240 526 q 226 592 240 592 z "},"v":{"ha":767,"x_min":56,"x_max":788,"o":"m 583 615 q 644 656 601 638 q 722 674 686 674 q 772 649 757 674 q 788 593 788 624 q 714 365 788 507 q 518 106 640 224 q 282 -12 396 -12 q 172 38 213 -12 q 132 179 132 89 q 282 529 132 343 q 151 585 194 585 q 120 547 125 585 q 101 508 115 508 q 69 514 81 508 q 57 524 58 519 q 56 548 56 528 q 60 600 56 568 q 92 668 65 632 q 161 704 119 704 q 250 690 203 704 q 325 663 297 676 l 354 649 q 424 681 401 681 q 468 660 447 681 q 490 610 489 639 q 453 538 490 582 q 369 494 415 494 q 279 225 279 350 q 298 160 279 190 q 358 131 317 131 q 519 253 444 131 q 593 515 593 376 q 583 615 593 564 z "},"w":{"ha":1117,"x_min":69,"x_max":1103,"o":"m 656 -14 q 504 157 529 -14 q 460 103 493 138 q 398 46 426 68 q 328 5 369 24 q 249 -14 288 -14 q 138 38 178 -14 q 99 174 99 90 q 140 350 99 258 q 222 492 181 442 l 263 542 q 165 585 211 585 q 134 547 139 585 q 115 508 129 508 q 69 532 69 508 q 73 578 69 556 q 86 633 76 601 q 121 684 96 664 q 182 704 146 704 q 265 690 218 704 q 339 663 311 676 l 368 649 q 439 681 415 681 q 483 658 463 681 q 504 607 504 636 q 465 536 504 578 q 383 494 426 494 q 356 503 368 494 q 246 233 246 365 q 263 160 246 190 q 314 129 281 129 q 377 142 347 129 q 428 172 407 154 q 486 239 467 207 l 493 251 q 525 427 496 328 q 603 603 554 526 q 699 681 651 681 q 749 653 722 681 q 776 604 776 625 q 731 453 776 547 q 610 276 685 360 q 638 151 610 194 q 700 107 665 107 q 850 212 789 107 q 911 488 911 317 q 906 582 911 547 q 897 615 900 617 q 958 656 915 638 q 1038 674 1001 674 q 1088 647 1074 674 q 1103 588 1103 621 q 1066 413 1103 515 q 971 215 1029 311 q 827 53 913 119 q 656 -14 742 -14 z "},"x":{"ha":758,"x_min":-42,"x_max":814,"o":"m 306 201 q 167 43 236 100 q 46 -14 99 -14 q -42 75 -42 -14 q -23 142 -42 107 q 15 198 -4 178 q 42 218 35 218 q 71 210 71 218 q 126 129 71 129 q 299 304 167 149 q 286 482 294 454 q 268 532 278 510 q 208 572 250 572 q 144 547 183 572 l 131 538 q 115 556 126 538 q 103 584 103 575 q 134 619 103 593 q 222 669 165 644 q 334 694 278 694 q 418 635 390 694 q 454 474 446 576 q 598 633 524 572 q 726 694 672 694 q 814 599 814 694 q 794 526 814 567 q 754 458 775 485 q 726 432 733 432 q 688 443 688 432 q 673 510 688 482 q 639 538 658 538 q 461 368 594 517 q 478 177 471 201 q 496 130 486 153 q 521 97 506 107 q 556 88 536 88 q 636 119 590 88 l 653 131 q 668 111 657 131 q 679 82 679 92 q 651 50 679 72 q 572 6 624 28 q 467 -15 519 -15 q 352 42 388 -15 q 306 201 317 100 z "},"y":{"ha":803,"x_min":-119,"x_max":821,"o":"m 226 592 q 147 565 194 592 q 129 582 138 565 q 121 608 121 599 q 147 636 121 618 q 225 672 174 654 q 332 689 276 689 q 422 614 422 689 q 381 487 422 571 q 297 310 339 403 q 256 156 256 218 q 263 126 256 138 q 285 113 269 115 q 300 119 290 115 q 338 142 310 124 q 392 182 367 160 q 506 324 460 240 q 753 708 622 708 q 799 681 778 708 q 821 629 821 653 q 676 363 821 535 q 421 -207 561 -37 q 103 -376 281 -376 q -39 -347 32 -376 q -97 -303 -75 -333 q -119 -233 -119 -274 q -60 -106 -119 -160 q 50 -51 0 -51 q 72 -65 72 -51 q 60 -108 72 -67 q 47 -188 47 -150 q 71 -258 47 -226 q 139 -290 94 -290 q 224 -263 183 -290 q 296 -189 264 -236 q 353 -94 328 -142 q 400 8 379 -47 q 444 144 426 83 q 315 35 394 83 q 180 -12 235 -12 q 97 19 125 -12 q 69 101 69 51 q 155 351 69 176 q 240 575 240 526 q 226 592 240 592 z "},"z":{"ha":679,"x_min":0,"x_max":728,"o":"m 178 53 q 53 -22 106 -22 q 0 38 0 -22 q 34 150 0 97 q 119 203 68 203 q 181 178 142 203 q 479 476 351 325 q 374 508 458 481 q 253 536 290 536 q 202 518 217 536 q 183 480 188 500 q 171 413 178 460 q 141 408 156 408 q 114 413 126 408 q 86 567 86 510 q 123 660 86 624 q 224 696 160 696 q 404 653 289 696 q 556 603 519 611 q 601 671 578 649 q 651 693 624 693 q 703 667 679 693 q 728 609 728 640 q 681 533 728 578 q 578 461 635 489 q 246 129 446 294 q 474 15 393 15 q 631 125 574 15 q 672 86 672 119 q 595 -58 672 28 q 440 -143 518 -143 q 308 -99 361 -143 q 178 53 256 -54 z "},"{":{"ha":508,"x_min":0,"x_max":675,"o":"m 240 -110 q 282 -153 240 -153 q 365 -125 324 -153 q 378 -183 378 -144 q 330 -249 378 -221 q 210 -278 282 -278 q 85 -239 138 -278 q 33 -139 33 -200 q 59 -47 33 -97 q 115 41 85 3 q 170 129 144 79 q 196 221 196 179 q 132 322 196 283 q 90 310 121 317 q 40 303 58 303 q 0 346 0 303 q 26 413 0 372 q 82 454 51 454 q 186 425 128 454 q 272 494 247 446 q 311 686 299 550 q 336 853 321 817 q 368 917 351 889 q 406 960 385 944 q 531 996 457 996 q 640 967 604 996 q 675 896 675 939 q 665 852 675 874 q 644 819 654 831 l 633 810 q 533 849 576 849 q 490 806 506 849 q 458 681 474 763 q 429 557 443 599 q 257 376 390 446 q 319 224 319 317 q 280 57 319 164 q 240 -110 240 -50 z "},"|":{"ha":439,"x_min":69,"x_max":467,"o":"m 69 -261 q 228 490 132 8 q 328 981 325 971 q 419 1001 371 1001 q 467 983 467 1001 q 386 619 450 910 q 190 -261 275 111 q 126 -281 158 -281 q 81 -274 93 -281 q 69 -261 69 -267 z "},"}":{"ha":539,"x_min":-111,"x_max":539,"o":"m 246 107 l 249 7 q 208 -190 249 -118 q 6 -278 158 -278 q -73 -258 -35 -278 q -111 -196 -111 -237 q -95 -147 -111 -171 q -54 -111 -79 -122 q 3 -149 -29 -149 q 67 -91 47 -149 q 107 150 86 -33 q 283 338 119 263 q 215 485 215 399 q 276 651 215 543 q 338 818 338 758 q 293 860 338 860 q 238 847 265 860 q 219 910 219 868 q 260 974 219 953 q 363 996 300 996 q 476 958 426 996 q 526 858 526 919 q 497 768 526 818 q 431 678 467 718 q 365 585 394 638 q 335 486 335 532 q 408 388 335 422 q 510 414 440 414 q 539 383 539 414 q 508 303 539 353 q 447 253 478 253 l 446 253 q 351 286 408 254 q 246 107 246 246 z "},"~":{"ha":976,"x_min":97,"x_max":976,"o":"m 900 579 l 969 579 q 976 496 976 524 q 796 300 976 300 q 542 367 681 300 q 413 414 488 393 q 269 435 339 435 q 207 392 228 435 q 186 283 186 349 l 126 283 q 97 435 97 369 q 139 542 97 501 q 246 583 181 583 q 539 535 363 583 q 793 488 715 488 q 900 579 900 488 z "},"":{"ha":451,"x_min":-111,"x_max":493,"o":"m -111 -182 q -23 -94 -72 -158 q 72 51 26 -31 q 155 206 118 133 q 222 342 192 278 q 253 408 251 406 q 314 424 279 424 q 372 413 349 424 l 354 356 q 252 42 279 110 q 201 -83 225 -25 q 156 -177 178 -140 q 111 -247 135 -214 q 15 -314 65 -314 q -70 -281 -35 -314 q -111 -182 -106 -247 m 425 506 q 358 497 403 497 q 288 513 313 497 q 285 551 285 529 q 298 601 285 572 q 324 642 311 629 q 429 676 363 676 q 483 668 458 676 q 493 638 493 664 q 472 567 493 613 q 425 506 451 521 z "},"":{"ha":699,"x_min":83,"x_max":740,"o":"m 422 565 q 258 481 325 551 q 190 321 192 411 q 215 226 190 268 q 282 163 240 183 q 422 565 357 367 m 336 -21 l 304 -19 q 192 -278 210 -244 q 142 -290 172 -290 q 111 -278 111 -290 l 221 0 q 83 243 83 57 q 204 558 83 410 q 474 726 325 707 q 533 954 514 868 q 610 974 572 974 q 649 958 649 974 q 635 897 649 943 q 603 797 621 851 q 581 722 586 742 q 698 669 656 708 q 740 586 740 631 q 715 502 740 542 q 644 440 690 463 q 525 560 629 532 q 369 146 443 328 q 582 213 513 149 q 608 181 592 207 q 494 33 571 88 q 336 -21 417 -21 z "},"":{"ha":758,"x_min":-22,"x_max":876,"o":"m 475 526 l 706 526 q 710 496 710 517 q 690 453 710 475 q 618 431 671 431 q 474 443 565 431 q 419 267 463 342 q 285 122 375 192 q 326 84 297 111 q 366 46 354 57 q 402 13 378 35 q 438 -17 426 -8 q 469 -42 450 -26 q 501 -64 489 -57 q 531 -79 514 -71 q 585 -93 557 -93 q 641 -78 614 -93 q 683 -47 668 -62 q 725 1 699 -31 q 758 -9 744 1 q 774 -35 772 -19 q 672 -193 740 -126 q 515 -260 603 -260 q 353 -190 426 -260 q 197 47 281 -119 q 31 -31 97 -31 q -22 25 -22 -31 q 11 151 -22 96 q 97 206 44 206 q 219 165 150 206 q 279 444 265 303 q 154 435 185 435 q 110 450 124 435 q 97 487 97 465 q 106 526 97 508 l 285 526 l 299 633 q 375 833 314 753 q 671 982 486 982 q 822 951 767 982 q 876 865 876 919 q 839 765 876 811 q 774 718 801 718 q 746 743 760 718 q 536 883 664 883 q 487 860 499 883 q 475 765 475 838 l 475 526 z "},"":{"ha":649,"x_min":42,"x_max":885,"o":"m 268 346 l 132 346 q 94 411 94 374 q 99 422 94 422 q 274 432 154 424 q 203 720 265 594 q 42 858 140 846 q 192 954 128 954 q 299 892 256 954 q 393 558 378 779 q 592 853 497 754 q 788 951 686 951 q 860 923 836 951 q 885 848 885 894 q 854 778 885 801 q 800 786 828 786 q 421 446 632 786 q 579 464 526 456 q 618 381 618 426 q 394 350 618 358 q 349 69 385 169 q 261 -31 313 -31 q 153 60 153 -31 q 193 192 153 96 q 268 346 233 288 z "},"":{"ha":439,"x_min":69,"x_max":467,"o":"m 224 469 l 328 981 q 419 1001 371 1001 q 467 983 467 1001 q 438 856 458 944 q 350 465 385 626 q 280 453 331 453 q 224 469 229 453 m 319 303 l 190 -261 q 126 -281 158 -281 q 81 -274 93 -281 q 69 -261 69 -267 q 193 301 143 53 q 268 315 221 315 q 319 303 315 315 z "},"":{"ha":639,"x_min":-340,"x_max":958,"o":"m 811 758 q 803 786 792 758 q 815 842 815 814 q 790 888 815 869 q 732 906 764 906 q 679 894 700 906 q 641 856 658 882 q 611 803 624 829 q 587 728 599 776 q 568 646 575 681 q 553 550 561 611 q 529 349 540 454 l 526 319 q 454 -56 499 54 q 329 -253 400 -190 q -62 -382 183 -382 q -261 -343 -182 -382 q -340 -218 -340 -304 q -302 -137 -340 -169 q -187 -104 -264 -104 q -176 -115 -176 -104 q -185 -147 -176 -119 q -193 -197 -193 -175 q -162 -270 -193 -244 q -86 -296 -131 -296 q 95 -52 36 -225 q 175 371 154 121 q 242 746 200 653 q 293 844 263 794 q 706 1011 394 1011 q 887 982 815 1011 q 958 888 958 953 q 943 825 958 851 q 908 786 928 799 q 864 767 889 774 q 811 758 833 758 m 17 -294 q 244 -103 172 -275 q 336 342 311 53 q 383 690 354 606 q 450 833 419 799 q 599 942 515 908 q 424 882 485 933 q 326 754 353 824 q 283 600 293 668 q 269 495 274 532 q 260 401 265 458 q 249 289 256 344 q 237 199 242 233 q 219 92 232 165 q 192 -24 207 18 q 153 -122 176 -67 q 17 -294 110 -225 z "},"":{"ha":768,"x_min":139,"x_max":629,"o":"m 308 814 q 220 800 281 800 q 139 808 160 800 q 150 883 150 849 q 149 929 150 918 q 224 975 165 954 q 349 996 283 996 q 357 965 357 996 q 342 881 357 933 q 308 814 326 829 m 581 814 q 492 800 553 800 q 411 808 432 800 q 422 883 422 849 q 421 929 422 918 q 497 975 438 954 q 621 996 556 996 q 629 965 629 996 q 614 881 629 933 q 581 814 599 829 z "},"":{"ha":1006,"x_min":111,"x_max":1006,"o":"m 560 588 q 505 487 526 544 q 483 381 483 429 q 504 307 483 333 q 568 281 525 281 q 647 311 611 281 q 669 322 661 322 q 687 312 678 322 q 697 296 696 301 q 690 278 697 290 q 665 249 682 265 q 628 217 649 232 q 506 178 575 178 q 397 222 438 178 q 356 338 356 267 q 446 556 356 446 q 642 665 536 665 q 718 644 685 665 q 751 579 751 624 q 708 497 751 535 q 650 460 665 460 q 617 482 617 460 q 623 507 617 488 q 629 538 629 526 q 560 588 626 576 m 931 292 q 895 224 931 292 q 725 67 858 156 q 444 -21 592 -21 q 204 54 297 -21 q 111 268 111 129 q 162 480 111 372 q 294 671 213 588 q 486 807 375 754 q 722 860 597 860 q 926 785 847 860 q 1005 569 1006 711 q 931 292 1004 428 m 236 304 q 299 124 236 185 q 472 63 363 63 q 678 135 582 63 q 827 318 775 207 q 879 544 879 429 q 825 717 879 658 q 679 775 771 775 q 373 628 510 775 q 236 304 236 482 z "},"":{"ha":807,"x_min":0,"x_max":807,"o":"m 681 507 l 681 511 q 707 572 681 547 q 756 597 733 597 q 792 585 778 597 q 807 557 807 572 q 788 518 807 542 q 750 481 769 494 l 731 465 q 740 393 740 431 q 664 231 738 297 q 482 165 590 165 q 301 215 425 165 q 118 264 178 264 q 69 240 92 264 q 46 215 47 215 q 0 232 28 215 q 67 329 13 285 q 181 374 121 374 q 365 332 240 374 q 545 290 490 290 q 648 325 600 290 q 696 417 696 360 q 693 443 696 424 q 574 403 629 403 q 494 452 518 403 q 469 564 469 501 l 469 581 q 326 461 407 497 q 254 446 294 446 q 184 479 214 446 q 154 578 154 513 q 206 741 154 643 q 340 910 257 839 q 501 982 424 982 q 563 965 535 982 q 603 926 590 949 q 714 1033 668 1033 q 753 1010 735 1033 q 771 957 771 988 q 721 847 771 926 q 599 682 671 768 q 588 596 588 642 q 599 519 588 550 q 630 488 611 488 q 681 507 649 488 m 564 864 q 497 903 544 894 q 365 765 425 860 q 304 590 304 669 q 331 556 304 556 q 397 581 361 556 q 456 633 433 607 l 476 658 q 564 864 506 760 z "},"":{"ha":893,"x_min":28,"x_max":949,"o":"m 582 579 l 549 581 q 457 536 513 581 q 327 420 401 492 q 208 317 253 349 q 239 247 219 292 q 266 185 258 201 q 288 141 274 168 q 313 103 301 114 q 396 61 347 68 q 413 50 413 58 q 362 -8 413 17 q 275 -33 311 -33 q 212 -14 239 -33 q 169 42 185 6 q 143 113 153 79 q 123 195 133 146 q 106 267 113 244 q 83 265 100 265 q 47 283 65 265 q 28 324 28 300 q 59 381 28 349 q 115 413 90 413 q 167 401 140 413 q 232 473 192 419 q 306 574 272 526 q 388 660 340 621 q 478 699 436 699 q 557 668 519 699 q 594 600 594 638 q 582 579 594 579 m 936 579 l 903 581 q 808 531 867 581 q 673 405 750 482 q 549 292 596 328 q 642 122 608 167 q 750 61 679 72 q 767 50 767 58 q 716 -8 767 17 q 632 -33 665 -33 q 574 -19 599 -33 q 533 13 549 -6 q 502 64 517 31 q 481 120 488 97 q 463 183 474 143 q 446 239 451 224 q 423 238 440 238 q 387 255 406 238 q 368 299 368 272 q 398 355 368 326 q 456 383 428 383 q 511 372 485 383 q 575 460 535 397 q 649 571 615 522 q 733 659 682 619 q 828 699 783 699 q 911 668 874 699 q 949 600 949 638 q 936 579 949 579 z "},"":{"ha":990,"x_min":0,"x_max":990,"o":"m 822 331 l 818 331 q 490 342 686 331 q 174 353 293 353 q 50 310 56 353 q 15 334 31 314 q 0 387 0 354 q 33 448 0 419 q 140 476 65 476 q 428 465 260 476 q 760 454 597 454 l 832 456 q 896 494 840 494 q 971 485 951 494 q 990 441 990 476 q 951 374 990 406 q 860 15 907 156 q 798 -7 836 -7 q 760 1 760 -7 l 760 3 q 822 331 810 229 z "},"":{"ha":806,"x_min":111,"x_max":806,"o":"m 749 540 q 720 487 749 540 q 588 366 692 435 q 369 297 483 297 q 183 355 256 297 q 111 519 111 413 q 255 833 111 688 q 576 978 399 978 q 744 920 682 978 q 806 753 806 863 q 749 540 806 644 m 388 360 q 614 476 521 360 q 707 736 707 593 q 665 867 707 822 q 553 913 624 913 q 315 799 421 913 q 208 549 208 686 q 258 408 208 456 q 388 360 307 360 m 438 626 q 438 631 438 626 q 451 653 438 636 q 477 669 465 669 q 497 640 489 669 q 526 710 526 672 q 482 744 526 744 l 458 744 q 426 657 454 728 q 397 549 397 586 l 403 525 q 349 501 372 501 q 315 513 325 501 q 306 542 306 524 q 339 634 306 560 q 372 747 372 708 q 360 758 372 753 q 347 768 347 763 q 351 785 347 774 q 358 796 354 796 l 524 796 q 588 776 561 796 q 614 720 614 756 q 575 651 614 685 q 506 617 536 618 q 542 554 513 554 q 594 578 581 554 q 600 581 597 581 q 610 555 610 581 q 583 508 610 529 q 527 486 557 486 q 477 504 497 486 q 457 552 457 522 q 464 604 457 582 q 446 610 454 604 q 438 626 438 617 z "},"":{"ha":778,"x_min":169,"x_max":606,"o":"m 574 818 q 179 782 404 782 q 169 804 169 782 q 218 926 169 864 q 408 911 332 911 q 599 918 485 911 q 606 900 606 918 q 574 818 606 853 z "},"":{"ha":490,"x_min":167,"x_max":574,"o":"m 167 488 q 249 714 167 614 q 432 814 331 814 q 540 769 506 814 q 574 653 574 724 q 490 417 574 513 q 303 321 406 321 q 205 365 242 321 q 167 488 168 410 m 335 458 q 447 506 404 458 q 490 597 490 553 q 466 663 490 640 q 394 686 442 686 q 297 644 346 686 q 249 536 249 601 q 276 476 249 494 q 335 458 304 458 z "},"":{"ha":694,"x_min":13,"x_max":682,"o":"m 389 185 l 433 185 q 596 214 538 185 q 611 146 611 183 q 585 79 611 108 q 526 50 558 50 q 376 65 493 50 q 196 81 260 81 q 35 36 78 81 q 13 79 13 36 q 43 163 13 122 q 121 204 74 204 q 256 194 168 204 l 256 213 q 304 390 256 268 q 267 392 292 392 q 106 347 149 392 q 83 390 83 347 q 114 476 83 433 q 197 519 144 519 q 347 506 231 519 q 374 643 374 594 q 372 704 374 692 l 376 704 q 417 707 407 707 q 508 640 508 707 q 468 496 508 592 l 504 496 q 667 525 608 496 q 682 457 682 494 q 656 390 682 419 q 592 361 629 361 q 418 381 581 361 q 381 244 381 286 q 389 185 381 203 z "},"":{"ha":569,"x_min":-29,"x_max":522,"o":"m 360 717 q 343 763 360 746 q 299 781 326 781 q 235 754 272 781 q 247 651 235 682 q 231 630 243 640 q 214 618 219 619 q 101 708 101 618 q 182 815 101 764 q 347 865 263 865 q 477 834 432 865 q 522 751 522 803 q 501 657 522 700 q 436 574 479 614 q 359 506 393 533 q 267 441 325 479 q 190 389 210 403 q 294 361 250 361 q 431 444 372 361 q 478 404 478 440 q 417 298 478 360 q 288 236 357 236 q 201 258 244 236 q 136 300 157 279 l 114 322 q 19 272 47 272 q -29 331 -29 272 q -1 417 -29 374 q 71 461 28 461 q 118 440 89 461 q 360 717 360 592 z "},"":{"ha":569,"x_min":18,"x_max":540,"o":"m 431 700 l 324 610 q 421 575 382 607 q 460 494 460 543 q 370 328 460 400 q 153 256 281 256 q 56 283 94 256 q 18 353 18 310 q 58 431 18 396 q 124 467 99 467 q 164 443 150 467 q 155 422 164 440 q 146 383 146 404 q 185 338 146 338 q 278 383 239 338 q 317 474 317 428 q 307 507 317 496 q 272 522 293 522 q 227 507 250 522 q 187 492 204 492 q 153 506 169 492 q 138 539 138 519 q 181 585 138 565 l 331 718 l 307 728 q 215 743 271 743 q 174 665 185 743 q 123 678 136 665 q 110 722 110 692 q 113 772 110 751 q 125 817 115 792 q 215 867 142 867 q 319 844 256 867 q 397 817 382 821 q 482 861 431 861 q 520 844 500 861 q 540 801 540 826 q 508 742 540 776 q 431 700 475 707 z "},"":{"ha":563,"x_min":150,"x_max":525,"o":"m 525 890 q 340 852 435 890 q 179 750 246 814 q 160 763 169 750 q 150 790 150 775 q 199 866 150 804 q 322 986 249 928 q 446 1044 394 1044 q 499 1001 472 1044 q 525 890 525 957 z "},"":{"ha":858,"x_min":-111,"x_max":838,"o":"m 243 592 q 164 565 211 592 q 146 582 154 565 q 138 608 138 599 q 164 636 138 618 q 242 672 190 654 q 349 689 293 689 q 439 614 439 689 q 397 487 439 571 q 314 310 356 403 q 272 156 272 218 q 279 126 272 138 q 301 113 286 115 q 317 119 307 115 q 355 142 326 124 q 408 182 383 160 q 522 324 476 240 q 769 708 639 708 q 816 681 794 708 q 838 629 838 653 q 793 501 838 578 q 704 375 749 425 l 660 324 q 642 176 642 269 q 694 83 642 83 q 755 101 722 83 q 801 128 788 118 q 816 111 806 128 q 826 85 826 94 q 797 53 826 76 q 714 8 768 31 q 601 -15 660 -15 q 516 35 543 -15 q 489 154 489 86 q 490 186 489 176 q 383 49 450 111 q 253 -12 317 -12 q 172 24 190 -12 l 168 24 q 100 -253 100 -160 q 135 -322 100 -287 q 118 -337 129 -328 q 69 -362 107 -347 q -11 -378 32 -378 q -83 -351 -54 -378 q -111 -276 -111 -324 q -68 -135 -111 -229 q 47 92 -25 -42 q 136 261 119 225 q 176 349 153 297 q 208 419 200 400 q 231 474 217 438 q 257 575 257 538 q 243 592 257 592 z "},"":{"ha":840,"x_min":-160,"x_max":1067,"o":"m 867 915 q 751 873 797 906 q 674 773 706 840 q 609 585 642 706 q 547 347 576 465 q 476 105 517 228 q 371 -125 436 -18 q 219 -294 306 -232 q 379 -203 310 -271 q 493 -42 449 -135 q 572 160 538 51 q 635 382 606 268 q 694 597 664 496 q 867 915 763 832 m 429 285 q 324 260 379 260 q 171 317 233 260 q 108 474 108 375 q 238 834 108 681 q 539 988 367 988 q 658 980 588 988 q 770 972 729 972 q 919 988 811 972 q 1050 1004 1026 1004 q 1061 992 1056 1004 q 1067 967 1067 981 q 1060 942 1067 953 q 1044 931 1053 931 q 931 885 981 931 q 849 765 882 840 q 787 590 815 689 q 730 383 758 492 q 669 165 701 274 q 588 -42 636 57 q 479 -216 540 -140 q 326 -337 418 -292 q 119 -382 233 -382 q -77 -331 6 -382 q -160 -190 -160 -279 q -121 -99 -160 -139 q -7 -58 -82 -58 q 4 -69 4 -58 q -4 -110 4 -74 q -12 -169 -12 -147 q 78 -293 -12 -272 q 300 -81 215 -254 q 369 87 342 6 q 429 285 397 168 z "},"":{"ha":406,"x_min":83,"x_max":329,"o":"m 281 281 q 182 267 253 267 q 83 275 111 267 q 94 350 94 315 q 93 396 94 385 q 181 441 108 419 q 321 463 253 463 q 329 432 329 463 q 314 349 329 401 q 281 281 299 296 z "},"":{"ha":1157,"x_min":176,"x_max":731,"o":"m 731 174 q 557 88 646 143 q 422 -6 468 33 l 375 -46 q 456 -85 429 -57 q 482 -149 482 -112 q 415 -260 482 -208 q 263 -312 347 -312 q 201 -292 226 -312 q 176 -241 176 -271 q 203 -187 176 -211 q 249 -162 231 -162 q 272 -183 267 -162 q 267 -199 272 -187 q 261 -222 261 -211 q 291 -244 261 -244 q 346 -215 321 -244 q 371 -158 371 -185 q 358 -113 371 -131 q 322 -94 344 -96 q 292 -114 308 -114 q 261 -68 261 -114 q 289 -44 261 -44 q 490 126 344 19 q 690 232 635 232 q 719 212 708 232 q 731 174 731 192 z "},"":{"ha":569,"x_min":15,"x_max":508,"o":"m 174 607 q 123 628 142 607 q 104 672 104 649 q 124 724 104 696 q 257 743 200 724 q 336 788 314 763 q 376 843 349 822 q 430 864 404 864 q 482 845 456 864 q 508 808 508 826 q 475 750 508 776 l 465 742 q 311 369 313 474 q 439 393 388 369 q 458 344 458 356 q 434 284 458 308 q 376 260 410 260 l 156 272 q 32 249 67 272 q 15 285 15 249 q 37 353 15 322 q 99 385 58 385 q 158 382 139 385 q 274 611 179 443 l 304 665 q 174 607 226 607 z "},"":{"ha":810,"x_min":0,"x_max":860,"o":"m 540 740 q 550 817 550 776 q 535 878 550 858 q 500 899 519 899 q 472 857 472 899 q 540 740 472 771 m 628 440 l 658 442 q 668 374 668 410 q 613 223 668 281 q 456 165 558 165 q 288 215 404 165 q 118 264 171 264 q 69 240 92 264 q 46 215 47 215 q 0 232 28 215 q 67 329 13 285 q 181 374 121 374 q 346 335 242 374 q 490 297 450 297 q 588 334 558 297 q 628 440 617 371 m 618 617 q 488 485 581 540 q 321 431 394 431 q 171 572 171 431 q 223 741 171 661 q 336 861 275 821 q 360 846 349 858 q 371 819 371 833 q 310 629 310 735 q 328 549 310 575 q 381 522 347 522 q 455 560 415 522 q 511 651 494 597 q 401 853 401 726 q 442 946 401 906 q 542 986 482 986 q 643 946 603 986 q 683 840 683 906 q 671 739 683 788 l 667 724 q 777 756 746 725 q 829 860 808 786 q 854 852 849 860 q 860 810 860 844 q 810 674 860 733 q 656 614 761 614 q 618 617 646 614 z "},"":{"ha":899,"x_min":-28,"x_max":899,"o":"m -15 85 l 18 83 q 108 127 53 83 q 240 245 164 171 q 361 353 317 319 q 333 415 350 376 q 309 469 317 453 q 289 509 301 485 q 268 544 276 533 q 247 567 260 554 q 171 603 221 594 q 154 614 154 606 q 205 672 154 647 q 292 697 256 697 q 354 679 328 697 q 397 625 381 661 q 424 558 414 589 q 444 478 433 526 q 461 408 456 429 q 495 413 475 413 q 534 395 515 413 q 553 349 553 378 q 523 292 553 321 q 460 264 493 264 q 399 281 428 264 q 336 195 375 256 q 267 88 297 135 q 187 3 236 42 q 92 -35 138 -35 q 10 -4 47 -35 q -28 64 -28 26 q -15 85 -28 85 m 814 383 l 831 385 q 899 343 899 385 q 869 272 899 306 q 809 239 840 239 q 754 249 778 239 q 614 83 718 222 q 533 1 581 38 q 443 -35 485 -35 q 364 -4 401 -35 q 326 64 326 26 q 339 85 326 85 l 372 83 q 463 126 408 83 q 592 236 518 168 q 711 335 667 304 q 681 407 699 365 q 654 470 663 449 q 632 518 646 492 q 607 558 618 544 q 525 603 575 594 q 508 614 508 606 q 559 672 508 647 q 646 697 610 697 q 709 676 682 697 q 752 617 736 656 q 777 542 768 578 q 797 456 786 506 q 814 383 807 406 z "},"":{"ha":1389,"x_min":174,"x_max":1215,"o":"m 256 607 q 233 607 256 607 q 192 628 211 607 q 174 672 174 649 q 193 724 174 696 q 392 788 333 724 q 432 843 404 822 q 485 864 460 864 q 538 845 511 864 q 564 808 564 826 q 531 750 564 776 l 521 742 q 369 319 369 510 q 279 272 340 272 q 204 339 204 272 q 294 556 204 406 q 347 643 342 633 q 256 607 300 607 m 956 151 l 967 174 q 1089 375 1044 333 q 1133 394 1111 394 q 1169 380 1154 394 q 1185 344 1185 365 q 1169 303 1185 322 q 1136 275 1153 285 q 1108 213 1125 249 q 1081 153 1092 178 q 1168 217 1133 169 q 1215 175 1215 211 q 1163 63 1215 108 q 1032 8 1110 18 q 1015 -69 1015 -49 q 1025 -103 1015 -90 q 1035 -129 1035 -117 q 1008 -153 1035 -142 q 942 -164 982 -164 q 864 -94 864 -164 q 896 22 864 -62 q 792 83 844 38 q 703 26 747 26 q 653 92 653 26 q 675 173 653 133 q 736 217 697 213 q 760 214 743 217 q 890 418 847 300 q 789 394 836 394 q 679 474 693 394 q 560 292 626 394 q 465 143 494 189 q 400 49 435 97 q 345 -17 365 0 q 303 -33 325 -33 q 253 -21 281 -33 q 226 15 226 -8 l 663 636 q 713 820 669 747 q 817 893 756 893 q 876 865 853 893 q 899 810 899 838 q 871 740 899 782 l 754 585 q 753 568 753 579 q 782 502 753 526 q 846 478 811 478 q 911 489 881 478 q 919 560 919 531 q 918 599 919 589 l 918 603 q 985 646 918 646 q 1046 626 1025 646 q 1067 567 1067 606 q 1028 485 1067 528 q 860 179 985 346 q 956 151 918 158 z "},"":{"ha":1389,"x_min":192,"x_max":1197,"o":"m 274 607 q 251 607 274 607 q 210 628 229 607 q 192 672 192 649 q 211 724 192 696 q 410 788 351 724 q 450 843 422 822 q 503 864 478 864 q 556 845 529 864 q 582 808 582 826 q 550 750 582 774 l 539 742 q 388 319 388 510 q 297 272 358 272 q 222 339 222 272 q 314 556 222 406 q 365 643 360 633 q 274 607 318 607 m 1026 392 q 1008 442 1026 424 q 960 461 990 461 q 890 433 929 461 q 917 326 890 381 q 903 302 914 314 q 886 289 892 290 q 697 474 732 289 q 522 205 610 342 q 394 17 433 68 q 326 -33 354 -33 q 272 -21 299 -33 q 244 15 244 -8 l 681 636 q 731 820 688 747 q 835 893 774 893 q 894 865 871 893 q 917 810 917 838 q 889 740 917 782 l 772 585 q 790 463 772 514 q 893 524 829 500 q 1030 549 957 549 q 1150 516 1103 549 q 1197 428 1197 483 q 1169 322 1197 372 q 1104 237 1140 272 q 1008 163 1068 201 q 829 61 928 110 q 1007 -7 922 -7 q 1063 9 1042 -7 q 1115 71 1083 25 q 1163 28 1163 63 q 1097 -93 1163 -21 q 968 -165 1032 -165 q 858 -128 904 -165 q 756 -14 813 -90 q 657 -68 699 -68 q 604 -6 604 -68 q 634 86 604 40 q 710 132 664 132 q 763 110 731 132 q 1026 392 1026 256 z "},"":{"ha":1389,"x_min":90,"x_max":1297,"o":"m 522 700 l 415 610 q 503 575 468 607 q 538 494 538 543 q 442 319 538 400 q 225 238 347 238 q 128 265 167 238 q 90 335 90 292 q 131 413 90 378 q 197 449 171 449 q 236 425 222 449 q 227 404 236 422 q 218 365 218 386 q 257 319 218 319 q 350 374 306 319 q 394 474 394 429 q 374 519 394 514 q 354 522 367 522 q 319 507 342 522 q 278 492 296 492 q 245 506 261 492 q 229 539 229 519 q 272 585 229 565 l 422 718 l 399 728 q 349 743 363 743 q 307 665 318 743 q 242 678 257 665 q 228 722 228 692 q 231 772 228 751 q 242 817 233 792 q 333 867 261 867 q 421 843 364 867 q 489 817 478 819 q 574 861 522 861 q 612 844 592 861 q 632 801 632 826 q 599 742 632 776 q 522 700 567 707 m 1038 151 l 1049 174 q 1171 375 1126 333 q 1215 394 1193 394 q 1251 380 1236 394 q 1267 344 1267 365 q 1251 303 1267 322 q 1218 275 1235 285 q 1190 213 1207 249 q 1163 153 1174 178 q 1250 217 1215 169 q 1297 175 1297 211 q 1244 63 1297 108 q 1114 8 1192 18 q 1097 -69 1097 -49 q 1107 -103 1097 -90 q 1117 -129 1117 -117 q 1090 -153 1117 -142 q 1024 -164 1064 -164 q 946 -94 946 -164 q 978 22 946 -62 q 874 83 926 38 q 785 26 829 26 q 735 92 735 26 q 757 173 735 133 q 818 217 779 213 q 842 214 825 217 q 972 418 929 300 q 871 394 918 394 q 761 474 775 394 q 642 292 708 394 q 547 143 576 189 q 482 49 517 97 q 427 -17 447 0 q 385 -33 407 -33 q 335 -21 363 -33 q 308 15 308 -8 l 744 636 q 794 820 751 747 q 899 893 838 893 q 958 865 935 893 q 981 810 981 838 q 953 740 981 782 l 836 585 q 835 568 835 579 q 864 502 835 526 q 928 478 893 478 q 993 489 963 478 q 1001 560 1001 531 q 1000 603 1001 589 q 1067 646 1000 646 q 1128 626 1107 646 q 1149 567 1149 606 q 1110 485 1149 528 q 942 179 1067 346 q 1038 151 1000 158 z "},"":{"ha":588,"x_min":-125,"x_max":546,"o":"m 543 685 q 546 658 546 668 q 507 560 546 594 q 396 525 468 525 q 340 533 365 525 q 331 563 331 538 q 351 632 331 588 q 399 692 372 676 q 470 700 422 700 q 543 685 518 700 m 443 -100 q 328 -250 443 -186 q 82 -314 214 -314 q -69 -264 -12 -314 q -125 -130 -125 -214 q -83 14 -125 -46 q 21 110 -40 74 q 143 178 82 147 q 247 240 204 208 q 289 298 289 271 q 273 349 289 325 q 257 385 257 374 q 358 436 257 436 q 433 414 401 436 q 464 349 464 392 q 424 260 464 307 q 328 176 385 213 q 214 103 271 139 q 78 -64 78 17 q 109 -161 78 -126 q 199 -196 140 -196 l 268 -187 q 289 -116 289 -147 q 279 -61 289 -85 q 269 -33 269 -37 q 278 -22 269 -28 q 343 -6 297 -6 q 416 -31 389 -6 q 443 -100 443 -57 z "},"":{"ha":731,"x_min":-194,"x_max":810,"o":"m 518 1282 q 641 1140 561 1203 q 808 1049 721 1076 q 810 1039 810 1046 q 769 1003 810 1003 q 649 1019 728 1003 q 494 1074 571 1036 q 418 1156 418 1111 q 444 1219 418 1183 q 518 1282 469 1254 m 433 274 l 433 324 q 446 549 433 436 l 222 274 l 433 274 m 436 204 l 165 204 l 67 83 q -90 -19 -18 -19 q -165 3 -136 -19 q -194 65 -194 25 q -183 100 -194 82 l -143 103 q 88 265 -62 108 q 475 731 239 421 q 535 926 500 851 q 608 1000 571 1000 q 688 966 646 1000 q 731 912 731 932 q 726 874 731 892 q 709 833 721 856 q 690 798 697 811 q 665 757 682 785 q 643 722 647 729 q 613 368 613 531 q 749 63 613 110 q 758 42 758 54 q 703 -10 758 11 q 593 -31 649 -31 q 475 29 508 -31 q 436 204 442 89 z "},"":{"ha":731,"x_min":-194,"x_max":890,"o":"m 890 1135 q 706 1097 800 1135 q 544 994 611 1058 q 525 1007 535 994 q 515 1034 515 1019 q 565 1110 515 1049 q 687 1231 614 1172 q 811 1289 760 1289 q 864 1245 838 1289 q 890 1135 890 1201 m 433 274 l 433 324 q 446 549 433 436 l 222 274 l 433 274 m 436 204 l 165 204 l 67 83 q -90 -19 -18 -19 q -165 3 -136 -19 q -194 65 -194 25 q -183 100 -194 82 l -143 103 q 88 265 -62 108 q 475 731 239 421 q 535 926 500 851 q 608 1000 571 1000 q 688 966 646 1000 q 731 912 731 932 q 726 874 731 892 q 709 833 721 856 q 690 798 697 811 q 665 757 682 785 q 643 722 647 729 q 613 368 613 531 q 749 63 613 110 q 758 42 758 54 q 703 -10 758 11 q 593 -31 649 -31 q 475 29 508 -31 q 436 204 442 89 z "},"":{"ha":731,"x_min":-194,"x_max":825,"o":"m 767 996 q 665 1132 725 1068 q 454 999 556 1076 q 431 1017 444 999 q 417 1046 417 1036 q 482 1117 417 1056 q 624 1240 547 1179 q 722 1300 700 1300 q 792 1184 758 1300 q 825 1035 825 1068 q 801 1010 824 1024 q 767 996 778 996 m 433 274 l 433 324 q 446 549 433 436 l 222 274 l 433 274 m 436 204 l 165 204 l 67 83 q -90 -19 -18 -19 q -165 3 -136 -19 q -194 65 -194 25 q -183 100 -194 82 l -143 103 q 88 265 -62 108 q 475 731 239 421 q 535 926 500 851 q 608 1000 571 1000 q 688 966 646 1000 q 731 912 731 932 q 726 874 731 892 q 709 833 721 856 q 690 798 697 811 q 665 757 682 785 q 643 722 647 729 q 613 368 613 531 q 749 63 613 110 q 758 42 758 54 q 703 -10 758 11 q 593 -31 649 -31 q 475 29 508 -31 q 436 204 442 89 z "},"":{"ha":731,"x_min":-194,"x_max":943,"o":"m 907 1308 q 943 1275 943 1303 q 885 1151 943 1221 q 740 1081 826 1081 q 582 1156 654 1081 q 425 1083 479 1156 q 390 1117 390 1089 q 455 1232 390 1164 q 594 1311 519 1300 q 776 1222 692 1222 q 907 1308 860 1222 m 433 274 l 433 324 q 446 549 433 436 l 222 274 l 433 274 m 436 204 l 165 204 l 67 83 q -90 -19 -18 -19 q -165 3 -136 -19 q -194 65 -194 25 q -183 100 -194 82 l -143 103 q 88 265 -62 108 q 475 731 239 421 q 535 926 500 851 q 608 1000 571 1000 q 688 966 646 1000 q 731 912 731 932 q 726 874 731 892 q 709 833 721 856 q 690 798 697 811 q 665 757 682 785 q 643 722 647 729 q 613 368 613 531 q 749 63 613 110 q 758 42 758 54 q 703 -10 758 11 q 593 -31 649 -31 q 475 29 508 -31 q 436 204 442 89 z "},"":{"ha":731,"x_min":-194,"x_max":922,"o":"m 601 1057 q 513 1043 574 1043 q 432 1051 453 1043 q 443 1126 443 1092 q 442 1172 443 1161 q 517 1218 458 1197 q 642 1239 576 1239 q 650 1208 650 1239 q 635 1124 650 1176 q 601 1057 619 1072 m 874 1057 q 785 1043 846 1043 q 704 1051 725 1043 q 715 1126 715 1092 q 714 1172 715 1161 q 790 1218 731 1197 q 914 1239 849 1239 q 922 1208 922 1239 q 907 1124 922 1176 q 874 1057 892 1072 m 433 274 l 433 324 q 446 549 433 436 l 222 274 l 433 274 m 436 204 l 165 204 l 67 83 q -90 -19 -18 -19 q -165 3 -136 -19 q -194 65 -194 25 q -183 100 -194 82 l -143 103 q 88 265 -62 108 q 475 731 239 421 q 535 926 500 851 q 608 1000 571 1000 q 688 966 646 1000 q 731 912 731 932 q 726 874 731 892 q 709 833 721 856 q 690 798 697 811 q 665 757 682 785 q 643 722 647 729 q 613 368 613 531 q 749 63 613 110 q 758 42 758 54 q 703 -10 758 11 q 593 -31 649 -31 q 475 29 508 -31 q 436 204 442 89 z "},"":{"ha":731,"x_min":-194,"x_max":914,"o":"m 765 1274 q 745 1274 765 1274 q 697 1238 725 1274 q 668 1163 668 1201 q 706 1124 668 1124 q 774 1158 744 1124 q 804 1233 804 1193 q 765 1274 804 1274 m 914 1250 q 834 1113 914 1172 q 661 1053 754 1053 q 583 1080 614 1053 q 553 1147 553 1107 q 626 1280 553 1217 q 792 1343 699 1343 q 881 1317 849 1343 q 914 1250 914 1290 m 433 274 l 433 324 q 446 549 433 436 l 222 274 l 433 274 m 436 204 l 165 204 l 67 83 q -90 -19 -18 -19 q -165 3 -136 -19 q -194 65 -194 25 q -183 100 -194 82 l -143 103 q 88 265 -62 108 q 475 731 239 421 q 535 926 500 851 q 608 1000 571 1000 q 688 966 646 1000 q 731 912 731 932 q 726 874 731 892 q 709 833 721 856 q 690 798 697 811 q 665 757 682 785 q 643 722 647 729 q 613 368 613 531 q 749 63 613 110 q 758 42 758 54 q 703 -10 758 11 q 593 -31 649 -31 q 475 29 508 -31 q 436 204 442 89 z "},"":{"ha":996,"x_min":-250,"x_max":1135,"o":"m 204 274 l 379 274 q 436 402 390 329 q 549 506 482 475 q 524 594 524 546 q 526 619 524 613 l 204 274 m 374 204 l 139 204 q -44 24 13 68 q -147 -19 -100 -19 q -222 1 -193 -19 q -250 65 -250 22 q -236 100 -250 76 l -196 100 q -102 132 -156 100 q 48 253 -49 164 q 226 426 144 343 q 455 663 307 508 q 698 875 603 818 q 904 932 793 932 q 1075 901 1015 932 q 1135 816 1135 869 q 1092 716 1135 763 q 988 653 1050 669 q 965 667 975 654 q 956 693 956 679 q 989 770 989 736 q 954 822 989 804 q 875 839 919 839 q 799 831 831 839 q 703 740 743 797 q 663 632 663 683 q 672 578 663 589 q 699 557 686 560 q 829 579 768 579 q 922 521 922 579 q 867 437 922 469 q 744 404 811 404 q 638 431 678 404 q 585 349 606 400 q 564 254 564 299 q 735 92 564 92 q 951 188 876 92 q 1004 140 992 181 q 864 17 967 68 q 643 -33 761 -33 q 450 27 525 -33 q 374 204 375 88 z "},"":{"ha":796,"x_min":97,"x_max":921,"o":"m 738 140 q 622 38 701 83 q 447 -25 542 -8 l 382 -79 q 463 -118 436 -90 q 489 -182 489 -146 q 422 -294 489 -242 q 269 -346 354 -346 q 208 -325 233 -346 q 183 -274 183 -304 q 210 -220 183 -244 q 255 -196 238 -196 q 279 -217 272 -196 q 274 -233 279 -221 q 268 -256 268 -244 q 298 -278 268 -278 q 353 -248 328 -278 q 378 -191 378 -218 q 365 -147 378 -164 q 329 -128 351 -129 q 299 -147 314 -147 q 268 -101 268 -147 q 296 -78 268 -78 q 340 -33 318 -53 q 157 38 217 -28 q 97 199 97 103 q 132 394 97 296 q 230 586 167 493 q 372 756 293 679 q 551 880 451 833 q 744 926 651 926 q 879 899 838 926 q 921 824 921 872 q 865 719 921 775 q 736 650 810 664 q 717 663 726 651 q 707 681 707 674 q 710 690 707 688 q 735 768 735 733 q 631 842 735 840 q 492 712 568 815 q 363 475 417 608 q 308 244 308 342 q 444 92 308 92 q 500 94 467 92 q 697 199 644 199 q 726 178 715 199 q 738 140 738 158 z "},"":{"ha":732,"x_min":49,"x_max":871,"o":"m 561 1242 q 684 1099 604 1163 q 851 1008 764 1036 q 853 999 853 1006 q 812 963 853 963 q 692 979 771 963 q 538 1033 614 996 q 461 1115 461 1071 q 487 1178 461 1143 q 561 1242 513 1214 m 632 521 q 578 433 632 469 q 459 397 524 397 q 360 424 394 397 q 349 417 356 421 q 325 397 342 413 q 294 363 308 381 q 260 244 260 314 q 399 92 260 92 q 644 188 549 92 q 692 140 683 175 q 537 17 646 68 q 310 -33 428 -33 q 120 20 192 -33 q 49 178 49 74 q 115 365 49 283 q 289 503 182 446 q 260 603 260 542 q 384 838 260 749 q 703 926 508 926 q 829 899 788 926 q 871 820 871 871 q 810 714 871 769 q 669 653 749 658 q 650 665 660 654 q 640 683 640 676 q 643 693 640 690 q 690 793 690 742 q 658 828 690 817 q 584 840 625 840 q 528 831 543 840 q 443 633 443 754 q 456 561 443 606 q 563 576 494 576 q 632 521 632 576 z "},"":{"ha":732,"x_min":49,"x_max":993,"o":"m 993 1093 q 808 1055 903 1093 q 647 953 714 1017 q 628 965 638 953 q 618 992 618 978 q 667 1069 618 1007 q 790 1189 717 1131 q 914 1247 863 1247 q 967 1203 940 1247 q 993 1093 993 1160 m 632 521 q 578 433 632 469 q 459 397 524 397 q 360 424 394 397 q 349 417 356 421 q 325 397 342 413 q 294 363 308 381 q 260 244 260 314 q 399 92 260 92 q 644 188 549 92 q 692 140 683 175 q 537 17 646 68 q 310 -33 428 -33 q 120 20 192 -33 q 49 178 49 74 q 115 365 49 283 q 289 503 182 446 q 260 603 260 542 q 384 838 260 749 q 703 926 508 926 q 829 899 788 926 q 871 820 871 871 q 810 714 871 769 q 669 653 749 658 q 650 665 660 654 q 640 683 640 676 q 643 693 640 690 q 690 793 690 742 q 658 828 690 817 q 584 840 625 840 q 528 831 543 840 q 443 633 443 754 q 456 561 443 606 q 563 576 494 576 q 632 521 632 576 z "},"":{"ha":732,"x_min":49,"x_max":875,"o":"m 817 963 q 715 1099 775 1035 q 504 965 606 1043 q 481 984 494 965 q 467 1013 467 1003 q 532 1084 467 1022 q 674 1206 597 1146 q 772 1267 750 1267 q 842 1151 808 1267 q 875 1001 875 1035 q 851 976 874 990 q 817 963 828 963 m 632 521 q 578 433 632 469 q 459 397 524 397 q 360 424 394 397 q 349 417 356 421 q 325 397 342 413 q 294 363 308 381 q 260 244 260 314 q 399 92 260 92 q 644 188 549 92 q 692 140 683 175 q 537 17 646 68 q 310 -33 428 -33 q 120 20 192 -33 q 49 178 49 74 q 115 365 49 283 q 289 503 182 446 q 260 603 260 542 q 384 838 260 749 q 703 926 508 926 q 829 899 788 926 q 871 820 871 871 q 810 714 871 769 q 669 653 749 658 q 650 665 660 654 q 640 683 640 676 q 643 693 640 690 q 690 793 690 742 q 658 828 690 817 q 584 840 625 840 q 528 831 543 840 q 443 633 443 754 q 456 561 443 606 q 563 576 494 576 q 632 521 632 576 z "},"":{"ha":732,"x_min":49,"x_max":961,"o":"m 640 1004 q 552 990 613 990 q 471 999 492 990 q 482 1074 482 1039 q 481 1119 482 1108 q 556 1165 497 1144 q 681 1186 615 1186 q 689 1155 689 1186 q 674 1072 689 1124 q 640 1004 658 1019 m 913 1004 q 824 990 885 990 q 743 999 764 990 q 754 1074 754 1039 q 753 1119 754 1108 q 828 1165 769 1144 q 953 1186 888 1186 q 961 1155 961 1186 q 946 1072 961 1124 q 913 1004 931 1019 m 632 521 q 578 433 632 469 q 459 397 524 397 q 360 424 394 397 q 349 417 356 421 q 325 397 342 413 q 294 363 308 381 q 260 244 260 314 q 399 92 260 92 q 644 188 549 92 q 692 140 683 175 q 537 17 646 68 q 310 -33 428 -33 q 120 20 192 -33 q 49 178 49 74 q 115 365 49 283 q 289 503 182 446 q 260 603 260 542 q 384 838 260 749 q 703 926 508 926 q 829 899 788 926 q 871 820 871 871 q 810 714 871 769 q 669 653 749 658 q 650 665 660 654 q 640 683 640 676 q 643 693 640 690 q 690 793 690 742 q 658 828 690 817 q 584 840 625 840 q 528 831 543 840 q 443 633 443 754 q 456 561 443 606 q 563 576 494 576 q 632 521 632 576 z "},"":{"ha":628,"x_min":28,"x_max":768,"o":"m 431 1242 q 553 1099 474 1163 q 721 1008 633 1036 q 722 999 722 1006 q 681 963 722 963 q 562 979 640 963 q 407 1033 483 996 q 331 1115 331 1071 q 356 1178 331 1143 q 431 1242 382 1214 m 529 157 q 547 79 547 119 q 521 12 547 39 q 452 -15 494 -15 q 325 -7 410 -15 q 192 1 240 1 q 42 -31 86 1 q 28 19 28 -8 q 72 103 28 67 q 189 139 117 139 q 218 136 199 139 q 288 453 232 257 q 410 779 343 649 q 376 781 397 781 q 267 746 321 781 q 249 824 249 783 q 275 891 249 864 q 344 918 301 918 q 471 910 386 918 q 604 901 556 901 q 754 933 710 901 q 768 883 768 911 q 724 800 768 836 q 607 764 679 764 q 578 767 597 764 q 463 466 539 706 q 386 124 388 226 q 419 122 399 122 q 529 157 475 122 z "},"":{"ha":628,"x_min":28,"x_max":857,"o":"m 857 1118 q 672 1080 767 1118 q 511 978 578 1042 q 492 990 501 978 q 482 1017 482 1003 q 531 1094 482 1032 q 653 1214 581 1156 q 778 1272 726 1272 q 831 1228 804 1272 q 857 1118 857 1185 m 529 157 q 547 79 547 119 q 521 12 547 39 q 452 -15 494 -15 q 325 -7 410 -15 q 192 1 240 1 q 42 -31 86 1 q 28 19 28 -8 q 72 103 28 67 q 189 139 117 139 q 218 136 199 139 q 288 453 232 257 q 410 779 343 649 q 376 781 397 781 q 267 746 321 781 q 249 824 249 783 q 275 891 249 864 q 344 918 301 918 q 471 910 386 918 q 604 901 556 901 q 754 933 710 901 q 768 883 768 911 q 724 800 768 836 q 607 764 679 764 q 578 767 597 764 q 463 466 539 706 q 386 124 388 226 q 419 122 399 122 q 529 157 475 122 z "},"":{"ha":628,"x_min":28,"x_max":774,"o":"m 715 990 q 614 1126 674 1063 q 403 993 504 1071 q 379 1012 393 993 q 365 1040 365 1031 q 431 1112 365 1050 q 572 1234 496 1174 q 671 1294 649 1294 q 740 1178 707 1294 q 774 1029 774 1063 q 749 1004 772 1018 q 715 990 726 990 m 529 157 q 547 79 547 119 q 521 12 547 39 q 452 -15 494 -15 q 325 -7 410 -15 q 192 1 240 1 q 42 -31 86 1 q 28 19 28 -8 q 72 103 28 67 q 189 139 117 139 q 218 136 199 139 q 288 453 232 257 q 410 779 343 649 q 376 781 397 781 q 267 746 321 781 q 249 824 249 783 q 275 891 249 864 q 344 918 301 918 q 471 910 386 918 q 604 901 556 901 q 754 933 710 901 q 768 883 768 911 q 724 800 768 836 q 607 764 679 764 q 578 767 597 764 q 463 466 539 706 q 386 124 388 226 q 419 122 399 122 q 529 157 475 122 z "},"":{"ha":628,"x_min":28,"x_max":861,"o":"m 540 1035 q 452 1021 513 1021 q 371 1029 392 1021 q 382 1104 382 1069 q 381 1150 382 1139 q 456 1196 397 1175 q 581 1217 515 1217 q 589 1185 589 1217 q 574 1102 589 1154 q 540 1035 558 1050 m 813 1035 q 724 1021 785 1021 q 643 1029 664 1021 q 654 1104 654 1069 q 653 1150 654 1139 q 728 1196 669 1175 q 853 1217 788 1217 q 861 1185 861 1217 q 846 1102 861 1154 q 813 1035 831 1050 m 529 157 q 547 79 547 119 q 521 12 547 39 q 452 -15 494 -15 q 325 -7 410 -15 q 192 1 240 1 q 42 -31 86 1 q 28 19 28 -8 q 72 103 28 67 q 189 139 117 139 q 218 136 199 139 q 288 453 232 257 q 410 779 343 649 q 376 781 397 781 q 267 746 321 781 q 249 824 249 783 q 275 891 249 864 q 344 918 301 918 q 471 910 386 918 q 604 901 556 901 q 754 933 710 901 q 768 883 768 911 q 724 800 768 836 q 607 764 679 764 q 578 767 597 764 q 463 466 539 706 q 386 124 388 226 q 419 122 399 122 q 529 157 475 122 z "},"":{"ha":929,"x_min":39,"x_max":971,"o":"m 236 918 q 405 906 349 906 q 548 912 461 906 q 707 918 635 918 q 898 841 825 918 q 971 626 971 764 q 861 301 971 453 q 590 65 751 149 q 267 -19 429 -19 q 104 101 104 -19 q 189 376 104 165 q 90 313 97 363 q 57 333 75 313 q 39 389 39 354 q 89 481 39 456 q 243 510 139 507 q 321 796 321 714 q 307 824 321 814 q 277 838 293 835 q 226 844 261 840 q 214 866 214 847 q 222 901 214 885 q 236 918 231 918 m 532 819 q 424 517 532 774 q 549 568 510 529 q 572 494 572 535 q 519 415 572 436 q 372 388 467 393 q 306 156 306 217 q 381 90 306 90 q 503 126 438 90 q 626 224 568 163 q 721 378 683 286 q 758 585 758 471 q 708 760 758 699 q 572 822 658 822 q 532 819 557 822 z "},"":{"ha":992,"x_min":-14,"x_max":1158,"o":"m 1003 1232 q 1039 1199 1039 1226 q 981 1074 1039 1144 q 836 1004 922 1004 q 678 1079 750 1004 q 521 1007 575 1079 q 486 1040 486 1013 q 551 1156 486 1088 q 690 1235 615 1224 q 872 1146 788 1146 q 1003 1232 956 1146 m 824 4 l 817 -21 q 736 -40 782 -40 q 660 -25 690 -40 q 600 26 629 -10 q 549 93 571 61 q 500 185 528 125 q 457 281 472 246 q 413 390 442 317 q 372 492 385 463 q 226 94 275 186 q 88 -26 163 -26 q 13 1 40 -26 q -14 57 -14 28 q 0 92 -14 86 q 36 96 14 96 q 172 255 88 96 q 317 628 256 414 q 288 824 288 765 q 306 916 288 882 q 369 950 324 950 q 497 876 497 950 q 467 747 497 839 q 513 630 482 708 q 556 519 543 551 q 593 428 569 486 q 631 339 617 371 q 706 189 668 256 l 724 278 q 853 828 817 744 q 896 897 872 869 q 1038 968 957 968 q 1124 935 1089 968 q 1158 849 1158 903 q 1151 799 1158 822 q 1109 804 1132 804 q 1056 790 1086 804 q 983 730 1025 776 q 904 608 940 683 q 833 393 868 532 q 778 72 799 254 q 824 4 778 43 z "},"":{"ha":899,"x_min":97,"x_max":926,"o":"m 563 1214 q 685 1072 606 1135 q 853 981 765 1008 q 854 971 854 978 q 813 935 854 935 q 694 951 772 935 q 539 1006 615 968 q 463 1088 463 1043 q 488 1151 463 1115 q 563 1214 514 1186 m 408 96 q 563 177 486 96 q 685 367 640 258 q 731 567 731 476 q 563 769 731 769 q 511 764 535 769 q 483 753 488 758 q 467 733 479 749 q 422 669 454 718 q 364 569 389 619 q 319 443 339 518 q 299 287 299 368 q 328 151 299 206 q 408 96 358 96 m 333 -21 q 159 44 221 -21 q 97 222 97 108 q 149 461 97 335 q 285 688 200 588 q 488 853 369 789 q 733 917 607 917 q 872 860 817 917 q 926 711 926 803 q 840 354 926 525 q 617 81 754 183 q 333 -21 479 -21 z "},"":{"ha":899,"x_min":97,"x_max":967,"o":"m 967 1083 q 782 1045 876 1083 q 621 943 688 1007 q 601 956 611 943 q 592 983 592 968 q 641 1059 592 997 q 763 1179 690 1121 q 888 1238 836 1238 q 940 1194 914 1238 q 967 1083 967 1150 m 408 96 q 563 177 486 96 q 685 367 640 258 q 731 567 731 476 q 563 769 731 769 q 511 764 535 769 q 483 753 488 758 q 467 733 479 749 q 422 669 454 718 q 364 569 389 619 q 319 443 339 518 q 299 287 299 368 q 328 151 299 206 q 408 96 358 96 m 333 -21 q 159 44 221 -21 q 97 222 97 108 q 149 461 97 335 q 285 688 200 588 q 488 853 369 789 q 733 917 607 917 q 872 860 817 917 q 926 711 926 803 q 840 354 926 525 q 617 81 754 183 q 333 -21 479 -21 z "},"":{"ha":899,"x_min":97,"x_max":947,"o":"m 889 949 q 788 1085 847 1021 q 576 951 678 1029 q 553 970 567 951 q 539 999 539 989 q 604 1070 539 1008 q 746 1192 669 1132 q 844 1253 822 1253 q 914 1137 881 1253 q 947 988 947 1021 q 923 963 946 976 q 889 949 900 949 m 408 96 q 563 177 486 96 q 685 367 640 258 q 731 567 731 476 q 563 769 731 769 q 511 764 535 769 q 483 753 488 758 q 467 733 479 749 q 422 669 454 718 q 364 569 389 619 q 319 443 339 518 q 299 287 299 368 q 328 151 299 206 q 408 96 358 96 m 333 -21 q 159 44 221 -21 q 97 222 97 108 q 149 461 97 335 q 285 688 200 588 q 488 853 369 789 q 733 917 607 917 q 872 860 817 917 q 926 711 926 803 q 840 354 926 525 q 617 81 754 183 q 333 -21 479 -21 z "},"":{"ha":899,"x_min":97,"x_max":1022,"o":"m 986 1226 q 1022 1193 1022 1221 q 964 1069 1022 1139 q 819 999 906 999 q 661 1074 733 999 q 504 1001 558 1074 q 469 1035 469 1007 q 534 1150 469 1082 q 674 1229 599 1218 q 855 1140 771 1140 q 986 1226 939 1140 m 408 96 q 563 177 486 96 q 685 367 640 258 q 731 567 731 476 q 563 769 731 769 q 511 764 535 769 q 483 753 488 758 q 467 733 479 749 q 422 669 454 718 q 364 569 389 619 q 319 443 339 518 q 299 287 299 368 q 328 151 299 206 q 408 96 358 96 m 333 -21 q 159 44 221 -21 q 97 222 97 108 q 149 461 97 335 q 285 688 200 588 q 488 853 369 789 q 733 917 607 917 q 872 860 817 917 q 926 711 926 803 q 840 354 926 525 q 617 81 754 183 q 333 -21 479 -21 z "},"":{"ha":899,"x_min":97,"x_max":1021,"o":"m 700 1006 q 612 992 672 992 q 531 1000 551 992 q 542 1075 542 1040 q 540 1121 542 1110 q 616 1167 557 1146 q 740 1188 675 1188 q 749 1156 749 1188 q 733 1073 749 1125 q 700 1006 718 1021 m 972 1006 q 884 992 944 992 q 803 1000 824 992 q 814 1075 814 1040 q 813 1121 814 1110 q 888 1167 829 1146 q 1013 1188 947 1188 q 1021 1156 1021 1188 q 1006 1073 1021 1125 q 972 1006 990 1021 m 408 96 q 563 177 486 96 q 685 367 640 258 q 731 567 731 476 q 563 769 731 769 q 511 764 535 769 q 483 753 488 758 q 467 733 479 749 q 422 669 454 718 q 364 569 389 619 q 319 443 339 518 q 299 287 299 368 q 328 151 299 206 q 408 96 358 96 m 333 -21 q 159 44 221 -21 q 97 222 97 108 q 149 461 97 335 q 285 688 200 588 q 488 853 369 789 q 733 917 607 917 q 872 860 817 917 q 926 711 926 803 q 840 354 926 525 q 617 81 754 183 q 333 -21 479 -21 z "},"":{"ha":694,"x_min":96,"x_max":624,"o":"m 138 496 q 136 504 136 499 q 174 545 136 525 q 261 565 213 565 q 335 524 310 565 q 361 474 343 510 q 385 426 361 474 q 553 582 517 510 q 606 536 588 565 q 624 469 624 507 q 590 406 624 431 q 442 319 557 382 q 579 154 515 186 q 465 83 536 83 q 399 118 419 83 q 332 256 388 138 q 165 82 175 156 q 156 79 160 79 q 116 114 136 79 q 96 197 96 149 q 138 276 96 246 q 281 363 164 296 l 256 408 q 138 496 210 485 z "},"":{"ha":899,"x_min":-35,"x_max":1008,"o":"m 828 893 q 940 1028 938 1028 q 983 1003 964 1028 q 1008 950 1003 978 q 892 833 960 906 q 926 711 926 781 q 840 354 926 525 q 617 81 754 183 q 333 -21 479 -21 q 179 26 240 -21 l 18 -161 q 5 -164 13 -164 q -19 -146 -3 -164 q -35 -111 -35 -128 l 131 79 q 97 213 97 136 q 149 461 97 335 q 285 688 200 588 q 488 853 369 789 q 733 917 607 917 q 828 893 785 917 m 408 96 q 563 177 486 96 q 685 367 640 258 q 731 567 731 476 q 722 649 731 614 q 314 183 592 503 q 408 96 343 96 m 299 296 l 299 274 l 685 724 q 563 769 643 769 q 511 764 535 769 q 483 753 488 758 q 467 733 479 749 q 422 669 454 718 q 364 569 389 619 q 319 443 339 518 q 299 296 299 368 z "},"":{"ha":949,"x_min":118,"x_max":1025,"o":"m 547 1240 q 670 1098 590 1161 q 838 1007 750 1035 q 839 997 839 1004 q 798 961 839 961 q 678 978 757 961 q 524 1032 600 994 q 447 1114 447 1069 q 473 1177 447 1142 q 547 1240 499 1213 m 375 910 l 494 918 q 523 905 511 918 q 535 868 535 892 q 479 648 535 789 q 368 374 424 507 q 313 185 313 242 q 358 140 313 140 q 490 224 404 140 q 644 415 575 308 q 790 809 726 689 q 942 929 854 929 q 997 899 969 929 q 1025 842 1025 868 q 968 674 1025 788 q 792 404 911 561 q 769 293 779 360 q 760 196 760 226 q 844 88 760 88 q 925 106 881 88 q 949 58 949 88 q 883 2 949 28 q 750 -24 817 -24 q 646 14 683 -24 q 608 122 608 51 q 626 260 608 193 l 619 260 q 440 67 543 153 q 249 -18 338 -18 q 150 22 182 -18 q 118 128 118 61 q 167 323 118 196 q 266 583 217 450 q 315 799 315 717 q 285 830 307 821 q 218 842 264 839 q 208 868 208 851 q 217 901 208 885 q 235 918 226 918 l 375 910 z "},"":{"ha":949,"x_min":118,"x_max":1025,"o":"m 990 1114 q 806 1076 900 1114 q 644 974 711 1038 q 625 986 635 974 q 615 1013 615 999 q 665 1090 615 1028 q 787 1210 714 1151 q 911 1268 860 1268 q 964 1224 938 1268 q 990 1114 990 1181 m 375 910 l 494 918 q 523 905 511 918 q 535 868 535 892 q 479 648 535 789 q 368 374 424 507 q 313 185 313 242 q 358 140 313 140 q 490 224 404 140 q 644 415 575 308 q 790 809 726 689 q 942 929 854 929 q 997 899 969 929 q 1025 842 1025 868 q 968 674 1025 788 q 792 404 911 561 q 769 293 779 360 q 760 196 760 226 q 844 88 760 88 q 925 106 881 88 q 949 58 949 88 q 883 2 949 28 q 750 -24 817 -24 q 646 14 683 -24 q 608 122 608 51 q 626 260 608 193 l 619 260 q 440 67 543 153 q 249 -18 338 -18 q 150 22 182 -18 q 118 128 118 61 q 167 323 118 196 q 266 583 217 450 q 315 799 315 717 q 285 830 307 821 q 218 842 264 839 q 208 868 208 851 q 217 901 208 885 q 235 918 226 918 l 375 910 z "},"":{"ha":949,"x_min":118,"x_max":1025,"o":"m 838 976 q 736 1113 796 1049 q 525 979 626 1057 q 501 998 515 979 q 488 1026 488 1017 q 553 1098 488 1036 q 694 1220 618 1160 q 793 1281 771 1281 q 863 1165 829 1281 q 896 1015 896 1049 q 872 990 894 1004 q 838 976 849 976 m 375 910 l 494 918 q 523 905 511 918 q 535 868 535 892 q 479 648 535 789 q 368 374 424 507 q 313 185 313 242 q 358 140 313 140 q 490 224 404 140 q 644 415 575 308 q 790 809 726 689 q 942 929 854 929 q 997 899 969 929 q 1025 842 1025 868 q 968 674 1025 788 q 792 404 911 561 q 769 293 779 360 q 760 196 760 226 q 844 88 760 88 q 925 106 881 88 q 949 58 949 88 q 883 2 949 28 q 750 -24 817 -24 q 646 14 683 -24 q 608 122 608 51 q 626 260 608 193 l 619 260 q 440 67 543 153 q 249 -18 338 -18 q 150 22 182 -18 q 118 128 118 61 q 167 323 118 196 q 266 583 217 450 q 315 799 315 717 q 285 830 307 821 q 218 842 264 839 q 208 868 208 851 q 217 901 208 885 q 235 918 226 918 l 375 910 z "},"":{"ha":949,"x_min":118,"x_max":1025,"o":"m 642 1001 q 553 988 614 988 q 472 996 493 988 q 483 1071 483 1036 q 482 1117 483 1106 q 558 1163 499 1142 q 682 1183 617 1183 q 690 1152 690 1183 q 675 1069 690 1121 q 642 1001 660 1017 m 914 1001 q 826 988 886 988 q 744 996 765 988 q 756 1071 756 1036 q 754 1117 756 1106 q 830 1163 771 1142 q 954 1183 889 1183 q 963 1152 963 1183 q 947 1069 963 1121 q 914 1001 932 1017 m 375 910 l 494 918 q 523 905 511 918 q 535 868 535 892 q 479 648 535 789 q 368 374 424 507 q 313 185 313 242 q 358 140 313 140 q 490 224 404 140 q 644 415 575 308 q 790 809 726 689 q 942 929 854 929 q 997 899 969 929 q 1025 842 1025 868 q 968 674 1025 788 q 792 404 911 561 q 769 293 779 360 q 760 196 760 226 q 844 88 760 88 q 925 106 881 88 q 949 58 949 88 q 883 2 949 28 q 750 -24 817 -24 q 646 14 683 -24 q 608 122 608 51 q 626 260 608 193 l 619 260 q 440 67 543 153 q 249 -18 338 -18 q 150 22 182 -18 q 118 128 118 61 q 167 323 118 196 q 266 583 217 450 q 315 799 315 717 q 285 830 307 821 q 218 842 264 839 q 208 868 208 851 q 217 901 208 885 q 235 918 226 918 l 375 910 z "},"":{"ha":638,"x_min":22,"x_max":871,"o":"m 786 1128 q 601 1090 696 1128 q 440 988 507 1051 q 421 1000 431 988 q 411 1027 411 1013 q 460 1103 411 1042 q 583 1224 510 1165 q 707 1282 656 1282 q 760 1238 733 1282 q 786 1128 786 1194 m 363 453 l 371 451 q 557 807 453 678 q 756 936 661 936 q 842 904 814 936 q 871 827 871 872 q 853 752 871 782 q 821 722 836 722 q 788 739 818 722 q 736 756 758 756 q 569 628 665 756 q 378 303 474 500 q 350 76 375 169 q 286 -18 325 -18 q 214 -8 249 -18 q 150 55 150 10 q 188 184 150 100 q 274 328 225 268 q 178 692 257 599 q 104 751 140 735 q 24 768 68 768 q 22 796 22 778 q 60 902 22 864 q 147 940 97 940 q 231 922 197 940 q 285 878 264 904 q 322 807 307 851 q 345 725 338 763 q 357 631 353 688 q 363 453 363 554 z "},"":{"ha":793,"x_min":83,"x_max":890,"o":"m 406 910 l 546 924 q 560 911 551 924 q 568 889 568 899 q 536 760 565 835 q 666 768 567 768 q 828 707 765 768 q 890 554 890 646 q 779 311 890 425 q 635 220 725 256 q 458 185 544 185 q 321 192 372 185 q 310 106 310 140 q 322 42 310 72 q 306 26 317 36 q 259 1 296 17 q 181 -14 222 -14 q 83 65 83 -14 q 146 260 83 118 q 272 556 208 403 q 335 793 335 710 q 313 828 335 818 q 236 843 292 839 q 225 876 225 850 q 246 918 225 901 q 285 915 256 918 q 406 910 343 910 m 339 267 q 382 264 367 264 q 605 336 506 264 q 704 532 704 408 q 667 633 704 593 q 560 672 631 672 q 500 669 519 672 q 339 267 374 386 z "},"":{"ha":869,"x_min":-431,"x_max":932,"o":"m 450 200 l 444 146 q 467 91 444 111 q 533 71 490 71 q 607 94 576 71 q 638 152 638 117 q 620 214 638 188 q 578 264 603 240 q 528 314 553 288 q 467 451 467 374 q 494 542 467 501 q 561 608 522 582 q 639 657 600 633 q 735 783 735 714 q 681 886 735 851 q 543 921 628 921 q 346 497 436 781 q 268 251 308 379 q 181 13 228 124 q 76 -186 135 -97 q -67 -326 18 -275 q -247 -378 -153 -378 q -385 -340 -340 -378 q -431 -238 -431 -301 q -376 -133 -431 -175 q -287 -92 -322 -92 q -280 -100 -285 -92 q -275 -110 -275 -108 q -278 -121 -275 -112 q -285 -175 -285 -142 q -225 -300 -285 -300 q -107 -228 -161 -300 q -12 -42 -53 -157 q 69 211 28 72 q 161 489 110 350 q 275 742 213 628 q 432 928 338 857 q 652 1000 526 1000 q 855 948 778 1000 q 932 819 932 896 q 884 715 932 761 q 779 645 836 669 q 674 588 722 621 q 626 518 626 554 q 656 444 626 482 q 719 376 685 406 q 783 305 754 347 q 813 218 813 263 q 718 49 813 111 q 514 -12 624 -12 q 358 26 404 -12 q 311 111 311 64 q 345 184 311 158 q 440 210 379 210 q 450 200 450 210 z "},"":{"ha":831,"x_min":42,"x_max":831,"o":"m 485 1047 q 608 905 528 968 q 775 814 688 842 q 776 804 776 811 q 735 768 776 768 q 616 785 694 768 q 461 839 538 801 q 385 921 385 876 q 410 984 385 949 q 485 1047 436 1019 m 579 544 q 542 581 565 567 q 503 597 518 594 l 486 600 q 302 406 386 539 q 218 164 218 274 q 230 127 218 140 q 257 114 242 114 q 347 150 297 114 q 428 222 397 186 l 458 258 q 579 544 493 386 m 446 163 q 426 140 444 161 q 384 95 408 119 q 328 44 360 71 q 183 -14 254 -14 q 77 29 113 -14 q 42 157 42 72 q 111 369 42 242 q 288 592 181 497 q 488 686 394 686 q 566 665 529 686 q 619 617 603 644 q 764 754 707 754 q 811 724 792 754 q 831 655 831 694 q 768 510 831 615 q 614 294 706 406 q 603 176 603 249 q 656 79 603 79 q 744 113 690 79 l 763 124 q 777 107 767 124 q 788 81 788 90 q 760 50 788 72 q 680 6 732 28 q 575 -15 628 -15 q 446 163 446 -15 z "},"":{"ha":831,"x_min":42,"x_max":899,"o":"m 899 890 q 714 852 808 890 q 553 750 619 814 q 533 763 543 750 q 524 790 524 775 q 573 866 524 804 q 695 986 622 928 q 819 1044 768 1044 q 872 1001 846 1044 q 899 890 899 957 m 579 544 q 542 581 565 567 q 503 597 518 594 l 486 600 q 302 406 386 539 q 218 164 218 274 q 230 127 218 140 q 257 114 242 114 q 347 150 297 114 q 428 222 397 186 l 458 258 q 579 544 493 386 m 446 163 q 426 140 444 161 q 384 95 408 119 q 328 44 360 71 q 183 -14 254 -14 q 77 29 113 -14 q 42 157 42 72 q 111 369 42 242 q 288 592 181 497 q 488 686 394 686 q 566 665 529 686 q 619 617 603 644 q 764 754 707 754 q 811 724 792 754 q 831 655 831 694 q 768 510 831 615 q 614 294 706 406 q 603 176 603 249 q 656 79 603 79 q 744 113 690 79 l 763 124 q 777 107 767 124 q 788 81 788 90 q 760 50 788 72 q 680 6 732 28 q 575 -15 628 -15 q 446 163 446 -15 z "},"":{"ha":831,"x_min":42,"x_max":831,"o":"m 749 763 q 647 899 707 835 q 436 765 538 843 q 413 784 426 765 q 399 813 399 803 q 464 884 399 822 q 606 1006 529 946 q 704 1067 682 1067 q 774 951 740 1067 q 807 801 807 835 q 783 776 806 790 q 749 763 760 763 m 579 544 q 542 581 565 567 q 503 597 518 594 l 486 600 q 302 406 386 539 q 218 164 218 274 q 230 127 218 140 q 257 114 242 114 q 347 150 297 114 q 428 222 397 186 l 458 258 q 579 544 493 386 m 446 163 q 426 140 444 161 q 384 95 408 119 q 328 44 360 71 q 183 -14 254 -14 q 77 29 113 -14 q 42 157 42 72 q 111 369 42 242 q 288 592 181 497 q 488 686 394 686 q 566 665 529 686 q 619 617 603 644 q 764 754 707 754 q 811 724 792 754 q 831 655 831 694 q 768 510 831 615 q 614 294 706 406 q 603 176 603 249 q 656 79 603 79 q 744 113 690 79 l 763 124 q 777 107 767 124 q 788 81 788 90 q 760 50 788 72 q 680 6 732 28 q 575 -15 628 -15 q 446 163 446 -15 z "},"":{"ha":831,"x_min":42,"x_max":942,"o":"m 906 1021 q 942 988 942 1015 q 883 863 942 933 q 739 793 825 793 q 581 868 653 793 q 424 796 478 868 q 389 829 389 801 q 453 944 389 876 q 593 1024 518 1013 q 774 935 690 935 q 906 1021 858 935 m 579 544 q 542 581 565 567 q 503 597 518 594 l 486 600 q 302 406 386 539 q 218 164 218 274 q 230 127 218 140 q 257 114 242 114 q 347 150 297 114 q 428 222 397 186 l 458 258 q 579 544 493 386 m 446 163 q 426 140 444 161 q 384 95 408 119 q 328 44 360 71 q 183 -14 254 -14 q 77 29 113 -14 q 42 157 42 72 q 111 369 42 242 q 288 592 181 497 q 488 686 394 686 q 566 665 529 686 q 619 617 603 644 q 764 754 707 754 q 811 724 792 754 q 831 655 831 694 q 768 510 831 615 q 614 294 706 406 q 603 176 603 249 q 656 79 603 79 q 744 113 690 79 l 763 124 q 777 107 767 124 q 788 81 788 90 q 760 50 788 72 q 680 6 732 28 q 575 -15 628 -15 q 446 163 446 -15 z "},"":{"ha":831,"x_min":42,"x_max":914,"o":"m 593 814 q 505 800 565 800 q 424 808 444 800 q 435 883 435 849 q 433 929 435 918 q 509 975 450 954 q 633 996 568 996 q 642 965 642 996 q 626 881 642 933 q 593 814 611 829 m 865 814 q 777 800 838 800 q 696 808 717 800 q 707 883 707 849 q 706 929 707 918 q 781 975 722 954 q 906 996 840 996 q 914 965 914 996 q 899 881 914 933 q 865 814 883 829 m 579 544 q 542 581 565 567 q 503 597 518 594 l 486 600 q 302 406 386 539 q 218 164 218 274 q 230 127 218 140 q 257 114 242 114 q 347 150 297 114 q 428 222 397 186 l 458 258 q 579 544 493 386 m 446 163 q 426 140 444 161 q 384 95 408 119 q 328 44 360 71 q 183 -14 254 -14 q 77 29 113 -14 q 42 157 42 72 q 111 369 42 242 q 288 592 181 497 q 488 686 394 686 q 566 665 529 686 q 619 617 603 644 q 764 754 707 754 q 811 724 792 754 q 831 655 831 694 q 768 510 831 615 q 614 294 706 406 q 603 176 603 249 q 656 79 603 79 q 744 113 690 79 l 763 124 q 777 107 767 124 q 788 81 788 90 q 760 50 788 72 q 680 6 732 28 q 575 -15 628 -15 q 446 163 446 -15 z "},"":{"ha":831,"x_min":42,"x_max":876,"o":"m 727 999 q 707 999 727 999 q 659 963 688 999 q 631 888 631 926 q 669 849 631 849 q 737 883 707 849 q 767 958 767 918 q 727 999 767 999 m 876 975 q 797 838 876 897 q 624 778 717 778 q 546 805 576 778 q 515 872 515 832 q 588 1005 515 942 q 754 1068 661 1068 q 844 1042 811 1068 q 876 975 876 1015 m 579 544 q 542 581 565 567 q 503 597 518 594 l 486 600 q 302 406 386 539 q 218 164 218 274 q 230 127 218 140 q 257 114 242 114 q 347 150 297 114 q 428 222 397 186 l 458 258 q 579 544 493 386 m 446 163 q 426 140 444 161 q 384 95 408 119 q 328 44 360 71 q 183 -14 254 -14 q 77 29 113 -14 q 42 157 42 72 q 111 369 42 242 q 288 592 181 497 q 488 686 394 686 q 566 665 529 686 q 619 617 603 644 q 764 754 707 754 q 811 724 792 754 q 831 655 831 694 q 768 510 831 615 q 614 294 706 406 q 603 176 603 249 q 656 79 603 79 q 744 113 690 79 l 763 124 q 777 107 767 124 q 788 81 788 90 q 760 50 788 72 q 680 6 732 28 q 575 -15 628 -15 q 446 163 446 -15 z "},"":{"ha":1058,"x_min":42,"x_max":1079,"o":"m 778 578 q 699 483 744 549 q 635 361 654 418 q 847 421 786 375 q 908 524 908 467 q 833 592 908 592 q 778 578 804 592 m 585 536 q 546 574 571 558 q 503 594 521 590 l 486 600 q 302 406 386 539 q 218 164 218 274 q 230 127 218 140 q 257 114 242 114 q 347 150 297 114 q 428 222 397 186 l 458 258 q 585 536 500 410 m 451 165 q 388 97 422 131 q 291 25 354 64 q 170 -14 228 -14 q 77 29 113 -14 q 42 157 42 72 q 111 369 42 242 q 288 592 181 497 q 488 686 394 686 q 571 663 529 686 q 629 611 613 639 q 706 719 675 683 q 760 754 736 754 q 799 726 783 754 q 818 664 815 699 q 937 694 872 694 q 1040 662 1001 694 q 1079 574 1079 629 q 619 294 1079 324 q 617 258 617 272 q 643 158 617 200 q 725 115 669 115 q 915 185 832 115 q 924 186 917 186 q 942 175 931 186 q 953 151 953 164 q 911 100 953 139 q 792 24 869 61 q 637 -14 714 -14 q 508 33 560 -14 q 451 165 457 81 z "},"":{"ha":649,"x_min":14,"x_max":676,"o":"m 568 174 q 527 124 568 165 q 407 36 486 82 q 250 -14 328 -10 l 213 -46 q 293 -85 267 -57 q 319 -149 319 -112 q 252 -260 319 -208 q 100 -312 185 -312 q 39 -292 64 -312 q 14 -241 14 -271 q 41 -187 14 -211 q 86 -162 68 -162 q 110 -183 104 -162 q 104 -199 110 -187 q 99 -222 99 -211 q 128 -244 99 -244 q 183 -215 158 -244 q 208 -158 208 -185 q 195 -113 208 -131 q 160 -94 182 -96 q 129 -114 144 -114 q 99 -68 99 -114 q 126 -44 99 -44 q 167 -3 131 -39 q 79 64 110 15 q 49 181 49 113 q 115 406 49 286 q 297 610 182 525 q 532 694 411 694 q 676 560 676 694 q 626 451 676 493 q 525 410 576 410 q 501 422 501 410 q 506 489 506 485 q 431 588 506 588 q 375 578 406 588 q 324 524 354 561 q 272 452 293 488 q 234 361 251 417 q 217 249 217 306 q 242 157 217 193 q 314 115 267 121 q 528 232 469 232 q 556 213 546 232 q 568 176 567 194 l 568 174 z "},"":{"ha":656,"x_min":49,"x_max":735,"o":"m 443 1047 q 566 905 486 968 q 733 814 646 842 q 735 804 735 811 q 694 768 735 768 q 574 785 653 768 q 419 839 496 801 q 343 921 343 876 q 369 984 343 949 q 443 1047 394 1019 m 375 578 q 297 483 342 549 q 232 361 251 418 q 368 388 310 368 q 453 431 426 407 q 506 513 506 476 q 485 571 506 550 q 433 592 464 592 q 375 578 401 592 m 217 294 q 214 258 214 264 q 240 156 214 197 q 322 115 267 115 q 513 185 429 115 q 521 186 514 186 q 539 175 528 186 q 550 151 550 164 q 508 100 550 139 q 389 24 467 61 q 232 -14 311 -14 q 101 39 153 -14 q 49 178 49 92 q 90 354 49 264 q 198 519 132 444 q 354 644 264 594 q 519 694 444 694 q 635 662 594 694 q 676 571 676 629 q 628 433 676 496 q 217 294 525 306 z "},"":{"ha":656,"x_min":49,"x_max":847,"o":"m 847 890 q 663 852 757 890 q 501 750 568 814 q 482 763 492 750 q 472 790 472 775 q 522 866 472 804 q 644 986 571 928 q 768 1044 717 1044 q 821 1001 794 1044 q 847 890 847 957 m 375 578 q 297 483 342 549 q 232 361 251 418 q 368 388 310 368 q 453 431 426 407 q 506 513 506 476 q 485 571 506 550 q 433 592 464 592 q 375 578 401 592 m 217 294 q 214 258 214 264 q 240 156 214 197 q 322 115 267 115 q 513 185 429 115 q 521 186 514 186 q 539 175 528 186 q 550 151 550 164 q 508 100 550 139 q 389 24 467 61 q 232 -14 311 -14 q 101 39 153 -14 q 49 178 49 92 q 90 354 49 264 q 198 519 132 444 q 354 644 264 594 q 519 694 444 694 q 635 662 594 694 q 676 571 676 629 q 628 433 676 496 q 217 294 525 306 z "},"":{"ha":656,"x_min":49,"x_max":782,"o":"m 724 756 q 622 892 682 828 q 411 758 513 836 q 388 777 401 758 q 374 806 374 796 q 439 877 374 815 q 581 999 504 939 q 679 1060 657 1060 q 749 944 715 1060 q 782 794 782 828 q 758 769 781 783 q 724 756 735 756 m 375 578 q 297 483 342 549 q 232 361 251 418 q 368 388 310 368 q 453 431 426 407 q 506 513 506 476 q 485 571 506 550 q 433 592 464 592 q 375 578 401 592 m 217 294 q 214 258 214 264 q 240 156 214 197 q 322 115 267 115 q 513 185 429 115 q 521 186 514 186 q 539 175 528 186 q 550 151 550 164 q 508 100 550 139 q 389 24 467 61 q 232 -14 311 -14 q 101 39 153 -14 q 49 178 49 92 q 90 354 49 264 q 198 519 132 444 q 354 644 264 594 q 519 694 444 694 q 635 662 594 694 q 676 571 676 629 q 628 433 676 496 q 217 294 525 306 z "},"":{"ha":656,"x_min":49,"x_max":868,"o":"m 547 814 q 459 800 519 800 q 378 808 399 800 q 389 883 389 849 q 388 929 389 918 q 463 975 404 954 q 588 996 522 996 q 596 965 596 996 q 581 881 596 933 q 547 814 565 829 m 819 814 q 731 800 792 800 q 650 808 671 800 q 661 883 661 849 q 660 929 661 918 q 735 975 676 954 q 860 996 794 996 q 868 965 868 996 q 853 881 868 933 q 819 814 838 829 m 375 578 q 297 483 342 549 q 232 361 251 418 q 368 388 310 368 q 453 431 426 407 q 506 513 506 476 q 485 571 506 550 q 433 592 464 592 q 375 578 401 592 m 217 294 q 214 258 214 264 q 240 156 214 197 q 322 115 267 115 q 513 185 429 115 q 521 186 514 186 q 539 175 528 186 q 550 151 550 164 q 508 100 550 139 q 389 24 467 61 q 232 -14 311 -14 q 101 39 153 -14 q 49 178 49 92 q 90 354 49 264 q 198 519 132 444 q 354 644 264 594 q 519 694 444 694 q 635 662 594 694 q 676 571 676 629 q 628 433 676 496 q 217 294 525 306 z "},"":{"ha":451,"x_min":63,"x_max":550,"o":"m 258 1047 q 381 905 301 968 q 549 814 461 842 q 550 804 550 811 q 509 768 550 768 q 390 785 468 768 q 235 839 311 801 q 158 921 158 876 q 184 984 158 949 q 258 1047 210 1019 m 374 111 q 378 103 374 111 q 382 85 382 94 q 353 53 382 75 q 269 8 325 31 q 153 -14 213 -14 q 63 61 63 -14 q 106 234 63 129 q 192 433 149 339 q 236 571 236 528 q 225 585 236 585 q 181 572 210 585 q 146 558 153 558 q 130 577 139 558 q 121 606 121 596 q 161 633 121 613 q 263 672 201 653 q 358 690 324 690 q 421 674 392 690 q 450 635 450 658 q 399 506 450 613 q 297 278 349 399 q 246 100 246 157 q 260 83 246 83 q 342 117 293 83 l 357 128 q 374 111 365 128 z "},"":{"ha":451,"x_min":63,"x_max":611,"o":"m 611 890 q 426 852 521 890 q 265 750 332 814 q 246 763 256 750 q 236 790 236 775 q 285 866 236 804 q 408 986 335 928 q 532 1044 481 1044 q 585 1001 558 1044 q 611 890 611 957 m 374 111 q 378 103 374 111 q 382 85 382 94 q 353 53 382 75 q 269 8 325 31 q 153 -14 213 -14 q 63 61 63 -14 q 106 234 63 129 q 192 433 149 339 q 236 571 236 528 q 225 585 236 585 q 181 572 210 585 q 146 558 153 558 q 130 577 139 558 q 121 606 121 596 q 161 633 121 613 q 263 672 201 653 q 358 690 324 690 q 421 674 392 690 q 450 635 450 658 q 399 506 450 613 q 297 278 349 399 q 246 100 246 157 q 260 83 246 83 q 342 117 293 83 l 357 128 q 374 111 365 128 z "},"":{"ha":451,"x_min":63,"x_max":567,"o":"m 508 756 q 407 892 467 828 q 196 758 297 836 q 172 777 186 758 q 158 806 158 796 q 224 877 158 815 q 365 999 289 939 q 464 1060 442 1060 q 533 944 500 1060 q 567 794 567 828 q 542 769 565 783 q 508 756 519 756 m 374 111 q 378 103 374 111 q 382 85 382 94 q 353 53 382 75 q 269 8 325 31 q 153 -14 213 -14 q 63 61 63 -14 q 106 234 63 129 q 192 433 149 339 q 236 571 236 528 q 225 585 236 585 q 181 572 210 585 q 146 558 153 558 q 130 577 139 558 q 121 606 121 596 q 161 633 121 613 q 263 672 201 653 q 358 690 324 690 q 421 674 392 690 q 450 635 450 658 q 399 506 450 613 q 297 278 349 399 q 246 100 246 157 q 260 83 246 83 q 342 117 293 83 l 357 128 q 374 111 365 128 z "},"":{"ha":451,"x_min":63,"x_max":656,"o":"m 335 814 q 247 800 307 800 q 165 808 186 800 q 176 883 176 849 q 175 929 176 918 q 251 975 192 954 q 375 996 310 996 q 383 965 383 996 q 368 881 383 933 q 335 814 353 829 m 607 814 q 519 800 579 800 q 438 808 458 800 q 449 883 449 849 q 447 929 449 918 q 523 975 464 954 q 647 996 582 996 q 656 965 656 996 q 640 881 656 933 q 607 814 625 829 m 374 111 q 378 103 374 111 q 382 85 382 94 q 353 53 382 75 q 269 8 325 31 q 153 -14 213 -14 q 63 61 63 -14 q 106 234 63 129 q 192 433 149 339 q 236 571 236 528 q 225 585 236 585 q 181 572 210 585 q 146 558 153 558 q 130 577 139 558 q 121 606 121 596 q 161 633 121 613 q 263 672 201 653 q 358 690 324 690 q 421 674 392 690 q 450 635 450 658 q 399 506 450 613 q 297 278 349 399 q 246 100 246 157 q 260 83 246 83 q 342 117 293 83 l 357 128 q 374 111 365 128 z "},"":{"ha":693,"x_min":49,"x_max":761,"o":"m 332 544 q 296 497 318 531 q 258 431 274 463 q 221 265 221 344 q 242 148 221 186 q 297 110 263 110 q 451 224 379 110 q 522 438 522 338 q 486 530 522 503 q 401 557 450 557 q 332 544 351 557 m 521 813 q 417 750 438 785 q 397 749 411 749 q 367 763 382 749 q 351 797 351 776 q 464 890 351 851 q 350 969 417 938 q 471 1067 404 1067 q 622 940 551 1067 q 725 990 703 964 q 761 924 761 950 q 661 850 761 879 q 696 637 696 753 q 652 397 696 521 q 539 185 608 274 q 380 42 469 96 q 203 -12 290 -12 q 49 144 49 -12 q 78 307 49 218 q 159 478 107 396 q 297 616 211 561 q 482 671 382 671 q 575 640 532 671 q 521 813 558 743 z "},"":{"ha":835,"x_min":42,"x_max":864,"o":"m 828 1003 q 864 969 864 997 q 806 845 864 915 q 661 775 747 775 q 503 850 575 775 q 346 778 400 850 q 311 811 311 783 q 376 926 311 858 q 515 1006 440 994 q 697 917 613 917 q 828 1003 781 917 m 343 363 q 250 106 313 224 q 153 -11 188 -11 q 80 2 118 -11 q 42 42 42 15 q 78 161 42 89 q 153 282 115 233 l 189 331 q 217 538 217 425 q 196 588 217 588 q 158 576 181 588 q 129 564 136 564 q 114 581 122 564 q 106 606 106 597 q 137 637 106 615 q 221 679 168 658 q 319 700 274 700 q 355 663 340 700 q 369 581 369 625 q 367 488 369 538 q 505 626 406 554 q 664 699 604 699 q 751 667 724 699 q 779 585 779 635 q 701 329 779 510 q 622 100 622 149 q 636 83 622 83 q 719 117 671 83 l 735 128 q 751 111 743 128 q 760 85 760 94 q 731 53 760 75 q 647 8 703 31 q 531 -14 590 -14 q 440 61 440 -14 q 513 280 440 108 q 586 531 586 451 q 579 560 586 549 q 557 574 572 571 q 516 547 542 564 q 433 474 490 529 q 343 363 376 419 z "},"":{"ha":693,"x_min":49,"x_max":711,"o":"m 419 1033 q 542 891 463 954 q 710 800 622 828 q 711 790 711 797 q 670 754 711 754 q 551 771 629 754 q 396 825 472 788 q 319 907 319 863 q 345 970 319 935 q 419 1033 371 1006 m 297 110 q 451 224 379 110 q 522 438 522 338 q 406 579 522 579 q 369 575 386 579 q 350 567 353 571 q 338 553 347 564 q 307 508 329 543 q 267 439 285 474 q 221 265 221 343 q 242 148 221 186 q 297 110 263 110 m 203 -12 q 49 144 49 -12 q 88 326 49 229 q 188 506 126 424 q 336 642 250 588 q 512 697 422 697 q 644 662 601 697 q 686 547 686 626 q 608 283 686 415 q 417 69 531 150 q 203 -12 304 -12 z "},"":{"ha":693,"x_min":49,"x_max":804,"o":"m 804 890 q 619 852 714 890 q 458 750 525 814 q 439 763 449 750 q 429 790 429 775 q 478 866 429 804 q 601 986 528 928 q 725 1044 674 1044 q 778 1001 751 1044 q 804 890 804 957 m 297 110 q 451 224 379 110 q 522 438 522 338 q 406 579 522 579 q 369 575 386 579 q 350 567 353 571 q 338 553 347 564 q 307 508 329 543 q 267 439 285 474 q 221 265 221 343 q 242 148 221 186 q 297 110 263 110 m 203 -12 q 49 144 49 -12 q 88 326 49 229 q 188 506 126 424 q 336 642 250 588 q 512 697 422 697 q 644 662 601 697 q 686 547 686 626 q 608 283 686 415 q 417 69 531 150 q 203 -12 304 -12 z "},"":{"ha":693,"x_min":49,"x_max":713,"o":"m 654 756 q 553 892 613 828 q 342 758 443 836 q 318 777 332 758 q 304 806 304 796 q 369 877 304 815 q 511 999 435 939 q 610 1060 588 1060 q 679 944 646 1060 q 713 794 713 828 q 688 769 711 783 q 654 756 665 756 m 297 110 q 451 224 379 110 q 522 438 522 338 q 406 579 522 579 q 369 575 386 579 q 350 567 353 571 q 338 553 347 564 q 307 508 329 543 q 267 439 285 474 q 221 265 221 343 q 242 148 221 186 q 297 110 263 110 m 203 -12 q 49 144 49 -12 q 88 326 49 229 q 188 506 126 424 q 336 642 250 588 q 512 697 422 697 q 644 662 601 697 q 686 547 686 626 q 608 283 686 415 q 417 69 531 150 q 203 -12 304 -12 z "},"":{"ha":693,"x_min":49,"x_max":839,"o":"m 803 1003 q 839 969 839 997 q 781 845 839 915 q 636 775 722 775 q 478 850 550 775 q 321 778 375 850 q 286 811 286 783 q 351 926 286 858 q 490 1006 415 994 q 672 917 588 917 q 803 1003 756 917 m 297 110 q 451 224 379 110 q 522 438 522 338 q 406 579 522 579 q 369 575 386 579 q 350 567 353 571 q 338 553 347 564 q 307 508 329 543 q 267 439 285 474 q 221 265 221 343 q 242 148 221 186 q 297 110 263 110 m 203 -12 q 49 144 49 -12 q 88 326 49 229 q 188 506 126 424 q 336 642 250 588 q 512 697 422 697 q 644 662 601 697 q 686 547 686 626 q 608 283 686 415 q 417 69 531 150 q 203 -12 304 -12 z "},"":{"ha":693,"x_min":49,"x_max":824,"o":"m 503 814 q 415 800 475 800 q 333 808 354 800 q 344 883 344 849 q 343 929 344 918 q 419 975 360 954 q 543 996 478 996 q 551 965 551 996 q 536 881 551 933 q 503 814 521 829 m 775 814 q 687 800 747 800 q 606 808 626 800 q 617 883 617 849 q 615 929 617 918 q 691 975 632 954 q 815 996 750 996 q 824 965 824 996 q 808 881 824 933 q 775 814 793 829 m 297 110 q 451 224 379 110 q 522 438 522 338 q 406 579 522 579 q 369 575 386 579 q 350 567 353 571 q 338 553 347 564 q 307 508 329 543 q 267 439 285 474 q 221 265 221 343 q 242 148 221 186 q 297 110 263 110 m 203 -12 q 49 144 49 -12 q 88 326 49 229 q 188 506 126 424 q 336 642 250 588 q 512 697 422 697 q 644 662 601 697 q 686 547 686 626 q 608 283 686 415 q 417 69 531 150 q 203 -12 304 -12 z "},"":{"ha":758,"x_min":24,"x_max":686,"o":"m 446 492 q 376 482 426 482 q 281 496 325 482 q 292 569 292 536 q 290 614 292 603 q 343 654 304 636 q 425 672 382 672 q 496 667 468 672 q 507 637 507 665 q 487 558 507 608 q 446 492 467 507 m 686 358 q 518 251 686 251 q 347 266 464 251 q 184 281 229 281 q 110 274 139 281 q 65 260 81 267 q 46 253 50 253 q 24 300 24 253 q 65 374 24 347 q 168 400 107 400 q 341 386 229 400 q 506 372 453 372 q 592 379 560 372 q 644 393 625 386 q 667 400 663 400 q 686 358 686 400 m 406 47 q 353 7 392 25 q 271 -11 314 -11 q 200 -6 228 -11 q 189 24 189 -4 q 209 103 189 53 q 250 169 229 154 q 319 179 269 179 q 415 165 369 179 q 404 92 404 125 q 406 47 404 58 z "},"":{"ha":693,"x_min":-147,"x_max":817,"o":"m -147 -160 l 58 76 q 49 144 49 104 q 88 326 49 229 q 188 506 126 424 q 336 642 250 588 q 508 697 422 697 q 589 688 558 697 q 749 865 744 865 q 792 840 772 865 q 817 788 811 815 q 665 636 776 750 q 686 547 686 601 q 608 283 686 415 q 417 69 531 150 q 203 -12 304 -12 q 101 15 139 -12 q -94 -210 15 -83 q -108 -212 -100 -212 q -131 -194 -115 -212 q -147 -160 -147 -176 m 297 110 q 451 224 379 110 q 522 438 522 338 q 518 479 522 461 q 233 164 403 354 q 297 110 256 110 m 349 567 q 344 560 349 567 q 318 528 339 554 q 260 421 297 501 q 221 264 224 340 l 476 558 q 406 579 450 579 q 349 567 360 579 z "},"":{"ha":842,"x_min":69,"x_max":821,"o":"m 442 1038 q 565 895 485 958 q 732 804 644 832 q 733 794 733 801 q 692 758 733 758 q 573 775 651 758 q 418 829 494 792 q 342 911 342 867 q 367 974 342 939 q 442 1038 393 1010 m 226 592 q 147 565 194 592 q 129 582 138 565 q 121 608 121 599 q 147 636 121 618 q 225 672 174 654 q 332 689 276 689 q 422 614 422 689 q 381 487 422 571 q 297 310 339 403 q 256 156 256 218 q 263 126 256 138 q 285 113 269 115 q 300 119 290 115 q 338 142 310 124 q 392 182 367 160 q 506 324 460 240 q 753 708 622 708 q 799 681 778 708 q 821 629 821 653 q 776 501 821 578 q 688 375 732 425 l 643 324 q 625 176 625 269 q 678 83 625 83 q 738 101 706 83 q 785 128 771 118 q 799 111 789 128 q 810 85 810 94 q 781 53 810 76 q 697 8 751 31 q 585 -15 643 -15 q 499 35 526 -15 q 472 154 472 86 q 474 186 472 176 q 342 53 438 119 q 185 -12 246 -12 q 97 19 125 -12 q 69 101 69 51 q 155 351 69 176 q 240 575 240 526 q 226 592 240 592 z "},"":{"ha":842,"x_min":69,"x_max":847,"o":"m 847 890 q 663 852 757 890 q 501 750 568 814 q 482 763 492 750 q 472 790 472 775 q 522 866 472 804 q 644 986 571 928 q 768 1044 717 1044 q 821 1001 794 1044 q 847 890 847 957 m 226 592 q 147 565 194 592 q 129 582 138 565 q 121 608 121 599 q 147 636 121 618 q 225 672 174 654 q 332 689 276 689 q 422 614 422 689 q 381 487 422 571 q 297 310 339 403 q 256 156 256 218 q 263 126 256 138 q 285 113 269 115 q 300 119 290 115 q 338 142 310 124 q 392 182 367 160 q 506 324 460 240 q 753 708 622 708 q 799 681 778 708 q 821 629 821 653 q 776 501 821 578 q 688 375 732 425 l 643 324 q 625 176 625 269 q 678 83 625 83 q 738 101 706 83 q 785 128 771 118 q 799 111 789 128 q 810 85 810 94 q 781 53 810 76 q 697 8 751 31 q 585 -15 643 -15 q 499 35 526 -15 q 472 154 472 86 q 474 186 472 176 q 342 53 438 119 q 185 -12 246 -12 q 97 19 125 -12 q 69 101 69 51 q 155 351 69 176 q 240 575 240 526 q 226 592 240 592 z "},"":{"ha":842,"x_min":69,"x_max":821,"o":"m 685 756 q 583 892 643 828 q 372 758 474 836 q 349 777 363 758 q 335 806 335 796 q 400 877 335 815 q 542 999 465 939 q 640 1060 618 1060 q 710 944 676 1060 q 743 794 743 828 q 719 769 742 783 q 685 756 696 756 m 226 592 q 147 565 194 592 q 129 582 138 565 q 121 608 121 599 q 147 636 121 618 q 225 672 174 654 q 332 689 276 689 q 422 614 422 689 q 381 487 422 571 q 297 310 339 403 q 256 156 256 218 q 263 126 256 138 q 285 113 269 115 q 300 119 290 115 q 338 142 310 124 q 392 182 367 160 q 506 324 460 240 q 753 708 622 708 q 799 681 778 708 q 821 629 821 653 q 776 501 821 578 q 688 375 732 425 l 643 324 q 625 176 625 269 q 678 83 625 83 q 738 101 706 83 q 785 128 771 118 q 799 111 789 128 q 810 85 810 94 q 781 53 810 76 q 697 8 751 31 q 585 -15 643 -15 q 499 35 526 -15 q 472 154 472 86 q 474 186 472 176 q 342 53 438 119 q 185 -12 246 -12 q 97 19 125 -12 q 69 101 69 51 q 155 351 69 176 q 240 575 240 526 q 226 592 240 592 z "},"":{"ha":842,"x_min":69,"x_max":835,"o":"m 514 814 q 426 800 486 800 q 344 808 365 800 q 356 883 356 849 q 354 929 356 918 q 430 975 371 954 q 554 996 489 996 q 563 965 563 996 q 547 881 563 933 q 514 814 532 829 m 786 814 q 698 800 758 800 q 617 808 638 800 q 628 883 628 849 q 626 929 628 918 q 702 975 643 954 q 826 996 761 996 q 835 965 835 996 q 819 881 835 933 q 786 814 804 829 m 226 592 q 147 565 194 592 q 129 582 138 565 q 121 608 121 599 q 147 636 121 618 q 225 672 174 654 q 332 689 276 689 q 422 614 422 689 q 381 487 422 571 q 297 310 339 403 q 256 156 256 218 q 263 126 256 138 q 285 113 269 115 q 300 119 290 115 q 338 142 310 124 q 392 182 367 160 q 506 324 460 240 q 753 708 622 708 q 799 681 778 708 q 821 629 821 653 q 776 501 821 578 q 688 375 732 425 l 643 324 q 625 176 625 269 q 678 83 625 83 q 738 101 706 83 q 785 128 771 118 q 799 111 789 128 q 810 85 810 94 q 781 53 810 76 q 697 8 751 31 q 585 -15 643 -15 q 499 35 526 -15 q 472 154 472 86 q 474 186 472 176 q 342 53 438 119 q 185 -12 246 -12 q 97 19 125 -12 q 69 101 69 51 q 155 351 69 176 q 240 575 240 526 q 226 592 240 592 z "},"":{"ha":803,"x_min":-119,"x_max":843,"o":"m 226 592 q 147 565 194 592 q 129 582 138 565 q 121 608 121 599 q 147 636 121 618 q 225 672 174 654 q 332 689 276 689 q 422 614 422 689 q 381 487 422 571 q 297 310 339 403 q 256 156 256 218 q 263 126 256 138 q 285 113 269 115 q 300 119 290 115 q 338 142 310 124 q 392 182 367 160 q 506 324 460 240 q 753 708 622 708 q 799 681 778 708 q 821 629 821 653 q 676 363 821 535 q 421 -207 561 -37 q 103 -376 281 -376 q -39 -347 32 -376 q -97 -303 -75 -333 q -119 -233 -119 -274 q -60 -106 -119 -160 q 50 -51 0 -51 q 72 -65 72 -51 q 60 -108 72 -67 q 47 -188 47 -150 q 71 -258 47 -226 q 139 -290 94 -290 q 224 -263 183 -290 q 296 -189 264 -236 q 353 -94 328 -142 q 400 8 379 -47 q 444 144 426 83 q 315 35 394 83 q 180 -12 235 -12 q 97 19 125 -12 q 69 101 69 51 q 155 351 69 176 q 240 575 240 526 q 226 592 240 592 m 843 890 q 658 852 753 890 q 497 750 564 814 q 478 763 488 750 q 468 790 468 775 q 517 866 468 804 q 640 986 567 928 q 764 1044 713 1044 q 817 1001 790 1044 q 843 890 843 957 z "},"":{"ha":775,"x_min":-139,"x_max":761,"o":"m 546 575 q 446 510 504 563 q 350 410 388 457 l 314 363 q 239 158 296 294 l 219 114 q 323 72 267 72 q 442 152 379 72 q 545 337 506 232 q 585 517 585 442 q 573 558 585 542 q 546 575 561 575 m 188 32 q 153 -41 175 6 q 118 -117 132 -87 q 85 -185 104 -146 q 52 -247 67 -224 q 22 -294 38 -271 q -36 -339 -10 -339 q -101 -316 -62 -339 q -139 -268 -139 -293 q -29 -7 -139 -215 q 168 329 81 201 q 307 885 307 679 q 267 905 296 894 q 214 915 239 915 q 200 942 200 915 q 215 978 200 969 q 316 972 265 972 q 388 974 367 972 q 427 978 408 975 q 454 984 446 982 q 481 992 463 986 q 503 999 499 999 q 514 990 507 1000 q 521 966 521 979 q 511 906 521 953 q 457 741 501 858 q 340 493 413 624 q 345 489 340 492 q 350 485 350 486 q 383 524 353 488 q 435 582 414 561 q 489 633 456 603 q 626 694 558 694 q 761 536 761 694 q 728 367 761 461 q 638 188 694 274 q 494 44 581 103 q 320 -14 407 -14 q 188 32 233 -14 z "},"":{"ha":803,"x_min":-119,"x_max":832,"o":"m 226 592 q 147 565 194 592 q 129 582 138 565 q 121 608 121 599 q 147 636 121 618 q 225 672 174 654 q 332 689 276 689 q 422 614 422 689 q 381 487 422 571 q 297 310 339 403 q 256 156 256 218 q 263 126 256 138 q 285 113 269 115 q 300 119 290 115 q 338 142 310 124 q 392 182 367 160 q 506 324 460 240 q 753 708 622 708 q 799 681 778 708 q 821 629 821 653 q 676 363 821 535 q 421 -207 561 -37 q 103 -376 281 -376 q -39 -347 32 -376 q -97 -303 -75 -333 q -119 -233 -119 -274 q -60 -106 -119 -160 q 50 -51 0 -51 q 72 -65 72 -51 q 60 -108 72 -67 q 47 -188 47 -150 q 71 -258 47 -226 q 139 -290 94 -290 q 224 -263 183 -290 q 296 -189 264 -236 q 353 -94 328 -142 q 400 8 379 -47 q 444 144 426 83 q 315 35 394 83 q 180 -12 235 -12 q 97 19 125 -12 q 69 101 69 51 q 155 351 69 176 q 240 575 240 526 q 226 592 240 592 m 783 814 q 695 800 756 800 q 614 808 635 800 q 625 883 625 849 q 624 929 625 918 q 699 975 640 954 q 824 996 758 996 q 832 965 832 996 q 817 881 832 933 q 783 814 801 829 m 511 814 q 423 800 483 800 q 342 808 363 800 q 353 883 353 849 q 351 929 353 918 q 427 975 368 954 q 551 996 486 996 q 560 965 560 996 q 544 881 560 933 q 511 814 529 829 z "},"":{"ha":731,"x_min":-194,"x_max":899,"o":"m 867 1088 q 472 1051 697 1051 q 463 1074 463 1051 q 511 1196 463 1133 q 701 1181 625 1181 q 892 1188 778 1181 q 899 1169 899 1188 q 867 1088 899 1122 m 433 274 l 433 324 q 446 549 433 436 l 222 274 l 433 274 m 436 204 l 165 204 l 67 83 q -90 -19 -18 -19 q -165 3 -136 -19 q -194 65 -194 25 q -183 100 -194 82 l -143 103 q 88 265 -62 108 q 475 731 239 421 q 535 926 500 851 q 608 1000 571 1000 q 688 966 646 1000 q 731 912 731 932 q 726 874 731 892 q 709 833 721 856 q 690 798 697 811 q 665 757 682 785 q 643 722 647 729 q 613 368 613 531 q 749 63 613 110 q 758 42 758 54 q 703 -10 758 11 q 593 -31 649 -31 q 475 29 508 -31 q 436 204 442 89 z "},"":{"ha":831,"x_min":42,"x_max":831,"o":"m 797 818 q 403 782 628 782 q 393 804 393 782 q 442 926 393 864 q 632 911 556 911 q 822 918 708 911 q 829 900 829 918 q 797 818 829 853 m 579 544 q 542 581 565 567 q 503 597 518 594 l 486 600 q 302 406 386 539 q 218 164 218 274 q 230 127 218 140 q 257 114 242 114 q 347 150 297 114 q 428 222 397 186 l 458 258 q 579 544 493 386 m 446 163 q 426 140 444 161 q 384 95 408 119 q 328 44 360 71 q 183 -14 254 -14 q 77 29 113 -14 q 42 157 42 72 q 111 369 42 242 q 288 592 181 497 q 488 686 394 686 q 566 665 529 686 q 619 617 603 644 q 764 754 707 754 q 811 724 792 754 q 831 655 831 694 q 768 510 831 615 q 614 294 706 406 q 603 176 603 249 q 656 79 603 79 q 744 113 690 79 l 763 124 q 777 107 767 124 q 788 81 788 90 q 760 50 788 72 q 680 6 732 28 q 575 -15 628 -15 q 446 163 446 -15 z "},"":{"ha":731,"x_min":-194,"x_max":936,"o":"m 858 1322 q 894 1321 858 1322 q 935 1303 931 1321 q 936 1290 936 1297 q 853 1126 936 1185 q 676 1068 771 1068 q 524 1105 582 1068 q 467 1208 467 1142 q 488 1273 467 1242 q 549 1322 508 1304 q 607 1235 558 1269 q 710 1200 656 1200 q 805 1231 765 1200 q 858 1322 844 1261 m 433 274 l 433 324 q 446 549 433 436 l 222 274 l 433 274 m 436 204 l 165 204 l 67 83 q -90 -19 -18 -19 q -165 3 -136 -19 q -194 65 -194 25 q -183 100 -194 82 l -143 103 q 88 265 -62 108 q 475 731 239 421 q 535 926 500 851 q 608 1000 571 1000 q 688 966 646 1000 q 731 912 731 932 q 726 874 731 892 q 709 833 721 856 q 690 798 697 811 q 665 757 682 785 q 643 722 647 729 q 613 368 613 531 q 749 63 613 110 q 758 42 758 54 q 703 -10 758 11 q 593 -31 649 -31 q 475 29 508 -31 q 436 204 442 89 z "},"":{"ha":831,"x_min":42,"x_max":949,"o":"m 871 1063 q 906 1061 871 1063 q 947 1043 943 1061 q 949 1031 949 1038 q 866 867 949 925 q 689 808 783 808 q 537 845 594 808 q 479 949 479 882 q 500 1013 479 982 q 561 1063 521 1044 q 619 975 571 1010 q 723 940 668 940 q 817 971 778 940 q 871 1063 857 1001 m 579 544 q 542 581 565 567 q 503 597 518 594 l 486 600 q 302 406 386 539 q 218 164 218 274 q 230 127 218 140 q 257 114 242 114 q 347 150 297 114 q 428 222 397 186 l 458 258 q 579 544 493 386 m 446 163 q 426 140 444 161 q 384 95 408 119 q 328 44 360 71 q 183 -14 254 -14 q 77 29 113 -14 q 42 157 42 72 q 111 369 42 242 q 288 592 181 497 q 488 686 394 686 q 566 665 529 686 q 619 617 603 644 q 764 754 707 754 q 811 724 792 754 q 831 655 831 694 q 768 510 831 615 q 614 294 706 406 q 603 176 603 249 q 656 79 603 79 q 744 113 690 79 l 763 124 q 777 107 767 124 q 788 81 788 90 q 760 50 788 72 q 680 6 732 28 q 575 -15 628 -15 q 446 163 446 -15 z "},"":{"ha":731,"x_min":-194,"x_max":819,"o":"m 436 204 l 165 204 l 67 83 q -90 -19 -18 -19 q -165 3 -136 -19 q -194 65 -194 25 q -183 100 -194 82 l -143 103 q 88 265 -62 108 q 475 731 239 421 q 535 926 500 851 q 608 1000 571 1000 q 688 966 646 1000 q 731 912 731 932 q 726 874 731 892 q 709 833 721 856 q 690 798 697 811 q 665 757 682 785 q 643 722 647 729 q 613 368 613 531 q 749 63 613 110 q 758 42 758 54 q 699 -11 758 8 q 654 -135 654 -75 q 700 -196 654 -196 q 797 -158 735 -196 q 819 -207 819 -178 q 735 -256 789 -235 q 633 -278 681 -278 q 533 -182 533 -278 q 596 -31 533 -101 l 593 -31 q 475 29 508 -31 q 436 204 442 89 m 433 274 l 433 324 q 446 549 433 436 l 222 274 l 433 274 z "},"":{"ha":831,"x_min":42,"x_max":831,"o":"m 446 163 q 426 140 444 161 q 384 95 408 119 q 328 44 360 71 q 183 -14 254 -14 q 77 29 113 -14 q 42 157 42 72 q 111 369 42 242 q 288 592 181 497 q 488 686 394 686 q 566 665 529 686 q 619 617 603 644 q 764 754 707 754 q 811 724 792 754 q 831 655 831 694 q 768 510 831 615 q 614 294 706 406 q 603 176 603 249 q 656 79 603 79 q 744 113 690 79 l 763 124 q 777 107 767 124 q 788 81 788 90 q 751 44 788 71 q 658 -136 658 -42 q 704 -196 658 -196 q 801 -158 739 -196 q 824 -207 824 -178 q 739 -256 793 -235 q 638 -278 685 -278 q 538 -182 538 -278 q 617 -11 538 -93 q 575 -15 596 -15 q 446 163 446 -15 m 579 544 q 542 581 565 567 q 503 597 518 594 l 486 600 q 302 406 386 539 q 218 164 218 274 q 230 127 218 140 q 257 114 242 114 q 347 150 297 114 q 428 222 397 186 l 458 258 q 579 544 493 386 z "},"":{"ha":796,"x_min":97,"x_max":1035,"o":"m 1035 1114 q 850 1076 944 1114 q 689 974 756 1038 q 669 986 679 974 q 660 1013 660 999 q 709 1090 660 1028 q 831 1210 758 1151 q 956 1268 904 1268 q 1008 1224 982 1268 q 1035 1114 1035 1181 m 738 140 q 583 17 692 68 q 350 -33 474 -33 q 162 33 226 -33 q 97 198 97 100 q 132 394 97 296 q 230 586 167 493 q 372 756 293 679 q 551 880 451 833 q 744 926 651 926 q 879 899 838 926 q 921 824 921 872 q 865 719 921 775 q 736 650 810 664 q 717 663 726 651 q 707 681 707 674 q 710 690 707 688 q 735 768 735 733 q 631 842 735 840 q 492 712 568 815 q 363 475 417 608 q 308 244 308 342 q 444 92 308 92 q 690 188 594 92 q 738 140 729 175 z "},"":{"ha":649,"x_min":49,"x_max":839,"o":"m 839 890 q 654 852 749 890 q 493 750 560 814 q 474 763 483 750 q 464 790 464 775 q 513 866 464 804 q 635 986 563 928 q 760 1044 708 1044 q 813 1001 786 1044 q 839 890 839 957 m 544 207 q 547 207 544 207 q 559 194 550 207 q 568 176 568 182 q 551 150 568 169 q 503 103 535 131 q 432 50 471 75 q 242 -14 336 -14 q 98 40 147 -14 q 49 190 49 94 q 115 406 49 286 q 297 610 182 525 q 532 694 411 694 q 676 560 676 694 q 626 451 676 493 q 525 410 576 410 q 501 422 501 410 q 506 489 506 485 q 431 588 506 588 q 375 578 406 588 q 324 524 354 561 q 272 452 293 488 q 234 361 251 417 q 217 247 217 306 q 247 152 217 189 q 326 115 276 115 q 426 138 376 115 q 507 184 475 161 q 544 207 539 207 z "},"":{"ha":796,"x_min":97,"x_max":964,"o":"m 906 976 q 804 1113 864 1049 q 593 979 694 1057 q 569 998 583 979 q 556 1026 556 1017 q 621 1098 556 1036 q 763 1220 686 1160 q 861 1281 839 1281 q 931 1165 897 1281 q 964 1015 964 1049 q 940 990 963 1004 q 906 976 917 976 m 738 140 q 583 17 692 68 q 350 -33 474 -33 q 162 33 226 -33 q 97 198 97 100 q 132 394 97 296 q 230 586 167 493 q 372 756 293 679 q 551 880 451 833 q 744 926 651 926 q 879 899 838 926 q 921 824 921 872 q 865 719 921 775 q 736 650 810 664 q 717 663 726 651 q 707 681 707 674 q 710 690 707 688 q 735 768 735 733 q 631 842 735 840 q 492 712 568 815 q 363 475 417 608 q 308 244 308 342 q 444 92 308 92 q 690 188 594 92 q 738 140 729 175 z "},"":{"ha":649,"x_min":49,"x_max":726,"o":"m 668 743 q 567 879 626 815 q 356 746 457 824 q 332 765 346 746 q 318 793 318 783 q 383 865 318 803 q 525 987 449 926 q 624 1047 601 1047 q 693 931 660 1047 q 726 782 726 815 q 702 757 725 771 q 668 743 679 743 m 544 207 q 547 207 544 207 q 559 194 550 207 q 568 176 568 182 q 551 150 568 169 q 503 103 535 131 q 432 50 471 75 q 242 -14 336 -14 q 98 40 147 -14 q 49 190 49 94 q 115 406 49 286 q 297 610 182 525 q 532 694 411 694 q 676 560 676 694 q 626 451 676 493 q 525 410 576 410 q 501 422 501 410 q 506 489 506 485 q 431 588 506 588 q 375 578 406 588 q 324 524 354 561 q 272 452 293 488 q 234 361 251 417 q 217 247 217 306 q 247 152 217 189 q 326 115 276 115 q 426 138 376 115 q 507 184 475 161 q 544 207 539 207 z "},"":{"ha":796,"x_min":97,"x_max":921,"o":"m 813 1021 q 714 1007 785 1007 q 615 1015 643 1007 q 626 1090 626 1056 q 625 1136 626 1125 q 713 1181 640 1160 q 853 1203 785 1203 q 861 1172 861 1203 q 846 1089 861 1142 q 813 1021 831 1036 m 738 140 q 583 17 692 68 q 350 -33 474 -33 q 162 33 226 -33 q 97 198 97 100 q 132 394 97 296 q 230 586 167 493 q 372 756 293 679 q 551 880 451 833 q 744 926 651 926 q 879 899 838 926 q 921 824 921 872 q 865 719 921 775 q 736 650 810 664 q 717 663 726 651 q 707 681 707 674 q 710 690 707 688 q 735 768 735 733 q 631 842 735 840 q 492 712 568 815 q 363 475 417 608 q 308 244 308 342 q 444 92 308 92 q 690 188 594 92 q 738 140 729 175 z "},"":{"ha":649,"x_min":49,"x_max":700,"o":"m 651 788 q 553 774 624 774 q 454 782 482 774 q 465 857 465 822 q 464 903 465 892 q 551 948 479 926 q 692 969 624 969 q 700 939 700 969 q 685 856 700 908 q 651 788 669 803 m 544 207 q 547 207 544 207 q 559 194 550 207 q 568 176 568 182 q 551 150 568 169 q 503 103 535 131 q 432 50 471 75 q 242 -14 336 -14 q 98 40 147 -14 q 49 190 49 94 q 115 406 49 286 q 297 610 182 525 q 532 694 411 694 q 676 560 676 694 q 626 451 676 493 q 525 410 576 410 q 501 422 501 410 q 506 489 506 485 q 431 588 506 588 q 375 578 406 588 q 324 524 354 561 q 272 452 293 488 q 234 361 251 417 q 217 247 217 306 q 247 152 217 189 q 326 115 276 115 q 426 138 376 115 q 507 184 475 161 q 544 207 539 207 z "},"":{"ha":796,"x_min":97,"x_max":1065,"o":"m 1021 1283 q 1049 1267 1032 1283 q 1065 1237 1065 1251 q 956 1102 1065 1222 q 817 982 846 982 q 719 1104 781 982 q 657 1242 657 1226 q 676 1272 657 1258 q 707 1286 696 1286 q 836 1138 796 1172 q 1021 1283 928 1190 m 738 140 q 583 17 692 68 q 350 -33 474 -33 q 162 33 226 -33 q 97 198 97 100 q 132 394 97 296 q 230 586 167 493 q 372 756 293 679 q 551 880 451 833 q 744 926 651 926 q 879 899 838 926 q 921 824 921 872 q 865 719 921 775 q 736 650 810 664 q 717 663 726 651 q 707 681 707 674 q 710 690 707 688 q 735 768 735 733 q 631 842 735 840 q 492 712 568 815 q 363 475 417 608 q 308 244 308 342 q 444 92 308 92 q 690 188 594 92 q 738 140 729 175 z "},"":{"ha":649,"x_min":49,"x_max":836,"o":"m 792 1053 q 819 1037 803 1053 q 836 1006 836 1021 q 726 872 836 992 q 588 751 617 751 q 490 874 551 751 q 428 1012 428 996 q 447 1042 428 1028 q 478 1056 467 1056 q 607 907 567 942 q 792 1053 699 960 m 544 207 q 547 207 544 207 q 559 194 550 207 q 568 176 568 182 q 551 150 568 169 q 503 103 535 131 q 432 50 471 75 q 242 -14 336 -14 q 98 40 147 -14 q 49 190 49 94 q 115 406 49 286 q 297 610 182 525 q 532 694 411 694 q 676 560 676 694 q 626 451 676 493 q 525 410 576 410 q 501 422 501 410 q 506 489 506 485 q 431 588 506 588 q 375 578 406 588 q 324 524 354 561 q 272 452 293 488 q 234 361 251 417 q 217 247 217 306 q 247 152 217 189 q 326 115 276 115 q 426 138 376 115 q 507 184 475 161 q 544 207 539 207 z "},"":{"ha":929,"x_min":104,"x_max":971,"o":"m 864 1293 q 892 1277 875 1293 q 908 1247 908 1261 q 799 1112 908 1232 q 660 992 689 992 q 562 1114 624 992 q 500 1252 500 1236 q 519 1282 500 1268 q 550 1296 539 1296 q 679 1147 639 1182 q 864 1293 771 1200 m 532 819 q 476 643 532 781 q 363 360 419 506 q 306 156 306 215 q 381 90 306 90 q 503 126 438 90 q 626 224 568 163 q 721 378 683 286 q 758 585 758 471 q 708 760 758 699 q 572 822 658 822 q 532 819 557 822 m 236 918 q 405 906 349 906 q 548 912 461 906 q 707 918 635 918 q 898 841 825 918 q 971 626 971 764 q 861 301 971 453 q 590 65 751 149 q 267 -19 429 -19 q 104 101 104 -19 q 158 293 104 156 q 267 576 213 431 q 321 796 321 722 q 307 824 321 814 q 277 838 293 835 q 226 844 261 840 q 214 866 214 847 q 222 901 214 885 q 236 918 231 918 z "},"":{"ha":833,"x_min":42,"x_max":1264,"o":"m 576 -14 q 446 168 446 -14 q 431 149 440 161 q 393 105 422 136 q 333 49 364 74 q 260 6 303 25 q 176 -14 217 -14 q 77 29 113 -14 q 42 156 42 72 q 111 369 42 240 q 288 592 181 497 q 488 686 394 686 q 599 639 556 686 q 824 972 747 972 q 895 949 858 972 q 932 874 932 925 q 842 672 932 822 q 632 357 753 522 q 604 185 604 290 q 657 81 604 81 q 746 114 692 81 l 764 125 q 778 108 768 125 q 789 83 789 92 q 761 51 789 74 q 681 8 733 29 q 576 -14 629 -14 m 565 561 q 486 600 535 594 q 302 406 386 539 q 218 163 218 272 q 230 126 218 139 q 257 114 242 114 q 347 150 297 114 q 428 222 397 186 l 458 258 q 565 561 488 376 m 938 647 q 1039 678 989 650 q 1114 757 1089 706 q 1039 769 1058 757 q 1035 799 1035 782 q 1078 907 1035 868 q 1194 944 1122 944 q 1254 936 1228 944 q 1264 911 1264 931 q 1229 772 1264 844 q 1128 644 1194 699 q 985 590 1063 590 q 938 647 938 590 z "},"":{"ha":929,"x_min":39,"x_max":971,"o":"m 236 918 q 405 906 349 906 q 548 912 461 906 q 707 918 635 918 q 898 841 825 918 q 971 626 971 764 q 861 301 971 453 q 590 65 751 149 q 267 -19 429 -19 q 104 101 104 -19 q 189 376 104 165 q 90 313 97 363 q 57 333 75 313 q 39 389 39 354 q 89 481 39 456 q 243 510 139 507 q 321 796 321 714 q 307 824 321 814 q 277 838 293 835 q 226 844 261 840 q 214 866 214 847 q 222 901 214 885 q 236 918 231 918 m 532 819 q 424 517 532 774 q 549 568 510 529 q 572 494 572 535 q 519 415 572 436 q 372 388 467 393 q 306 156 306 217 q 381 90 306 90 q 503 126 438 90 q 626 224 568 163 q 721 378 683 286 q 758 585 758 471 q 708 760 758 699 q 572 822 658 822 q 532 819 557 822 z "},"":{"ha":831,"x_min":42,"x_max":1004,"o":"m 565 561 q 486 600 535 594 q 302 406 386 539 q 218 163 218 272 q 230 126 218 139 q 257 114 242 114 q 347 150 297 114 q 428 222 397 186 l 458 258 q 565 561 488 376 m 599 639 l 656 753 q 536 821 586 789 q 532 834 532 822 q 560 869 532 846 q 618 901 589 892 q 706 843 656 875 q 824 972 781 972 q 895 949 858 972 q 932 885 932 925 q 881 747 932 846 q 1000 699 950 717 q 1004 689 1004 697 q 983 663 1004 681 q 944 640 961 644 q 840 674 894 656 q 632 357 749 518 q 604 185 604 290 q 657 81 604 81 q 746 114 692 81 l 764 125 q 778 108 768 125 q 789 83 789 92 q 761 51 789 74 q 681 8 733 29 q 576 -14 629 -14 q 446 168 446 -14 q 431 149 440 161 q 393 105 422 136 q 333 49 364 74 q 260 6 303 25 q 176 -14 217 -14 q 77 29 113 -14 q 42 156 42 72 q 111 369 42 240 q 288 592 181 497 q 488 686 394 686 q 599 639 556 686 z "},"":{"ha":732,"x_min":49,"x_max":954,"o":"m 922 1019 q 528 983 753 983 q 518 1006 518 983 q 567 1128 518 1065 q 757 1113 681 1113 q 947 1119 833 1113 q 954 1101 954 1119 q 922 1019 954 1054 m 632 521 q 578 433 632 469 q 459 397 524 397 q 360 424 394 397 q 349 417 356 421 q 325 397 342 413 q 294 363 308 381 q 260 244 260 314 q 399 92 260 92 q 644 188 549 92 q 692 140 683 175 q 537 17 646 68 q 310 -33 428 -33 q 120 20 192 -33 q 49 178 49 74 q 115 365 49 283 q 289 503 182 446 q 260 603 260 542 q 384 838 260 749 q 703 926 508 926 q 829 899 788 926 q 871 820 871 871 q 810 714 871 769 q 669 653 749 658 q 650 665 660 654 q 640 683 640 676 q 643 693 640 690 q 690 793 690 742 q 658 828 690 817 q 584 840 625 840 q 528 831 543 840 q 443 633 443 754 q 456 561 443 606 q 563 576 494 576 q 632 521 632 576 z "},"":{"ha":656,"x_min":49,"x_max":760,"o":"m 728 818 q 333 782 558 782 q 324 804 324 782 q 372 926 324 864 q 563 911 486 911 q 753 918 639 911 q 760 900 760 918 q 728 818 760 853 m 375 578 q 297 483 342 549 q 232 361 251 418 q 368 388 310 368 q 453 431 426 407 q 506 513 506 476 q 485 571 506 550 q 433 592 464 592 q 375 578 401 592 m 217 294 q 214 258 214 264 q 240 156 214 197 q 322 115 267 115 q 513 185 429 115 q 521 186 514 186 q 539 175 528 186 q 550 151 550 164 q 508 100 550 139 q 389 24 467 61 q 232 -14 311 -14 q 101 39 153 -14 q 49 178 49 92 q 90 354 49 264 q 198 519 132 444 q 354 644 264 594 q 519 694 444 694 q 635 662 594 694 q 676 571 676 629 q 628 433 676 496 q 217 294 525 306 z "},"":{"ha":732,"x_min":49,"x_max":921,"o":"m 872 1033 q 774 1019 844 1019 q 675 1028 703 1019 q 686 1103 686 1068 q 685 1149 686 1138 q 772 1194 700 1172 q 913 1215 844 1215 q 921 1185 921 1215 q 906 1101 921 1154 q 872 1033 890 1049 m 632 521 q 578 433 632 469 q 459 397 524 397 q 360 424 394 397 q 349 417 356 421 q 325 397 342 413 q 294 363 308 381 q 260 244 260 314 q 399 92 260 92 q 644 188 549 92 q 692 140 683 175 q 537 17 646 68 q 310 -33 428 -33 q 120 20 192 -33 q 49 178 49 74 q 115 365 49 283 q 289 503 182 446 q 260 603 260 542 q 384 838 260 749 q 703 926 508 926 q 829 899 788 926 q 871 820 871 871 q 810 714 871 769 q 669 653 749 658 q 650 665 660 654 q 640 683 640 676 q 643 693 640 690 q 690 793 690 742 q 658 828 690 817 q 584 840 625 840 q 528 831 543 840 q 443 633 443 754 q 456 561 443 606 q 563 576 494 576 q 632 521 632 576 z "},"":{"ha":656,"x_min":49,"x_max":711,"o":"m 663 814 q 564 800 635 800 q 465 808 493 800 q 476 883 476 849 q 475 929 476 918 q 563 974 490 953 q 703 996 635 996 q 711 965 711 996 q 696 882 711 935 q 663 814 681 829 m 375 578 q 297 483 342 549 q 232 361 251 418 q 368 388 310 368 q 453 431 426 407 q 506 513 506 476 q 485 571 506 550 q 433 592 464 592 q 375 578 401 592 m 217 294 q 214 258 214 264 q 240 156 214 197 q 322 115 267 115 q 513 185 429 115 q 521 186 514 186 q 539 175 528 186 q 550 151 550 164 q 508 100 550 139 q 389 24 467 61 q 232 -14 311 -14 q 101 39 153 -14 q 49 178 49 92 q 90 354 49 264 q 198 519 132 444 q 354 644 264 594 q 519 694 444 694 q 635 662 594 694 q 676 571 676 629 q 628 433 676 496 q 217 294 525 306 z "},"":{"ha":732,"x_min":49,"x_max":871,"o":"m 632 521 q 578 433 632 469 q 459 397 524 397 q 360 424 394 397 q 349 417 356 421 q 325 397 342 413 q 294 363 308 381 q 260 244 260 314 q 399 92 260 92 q 644 188 549 92 q 692 140 683 175 q 593 47 657 89 q 497 -136 497 -39 q 543 -196 497 -196 q 640 -158 578 -196 q 663 -207 663 -178 q 578 -256 632 -235 q 476 -278 524 -278 q 376 -182 376 -278 q 454 -12 376 -94 q 313 -33 386 -33 q 120 20 192 -33 q 49 178 49 74 q 115 365 49 283 q 289 503 182 446 q 260 603 260 542 q 384 838 260 749 q 703 926 508 926 q 829 899 788 926 q 871 820 871 871 q 810 714 871 769 q 669 653 749 658 q 650 665 660 654 q 640 683 640 676 q 643 693 640 690 q 690 793 690 742 q 658 828 690 817 q 584 840 625 840 q 528 831 543 840 q 443 633 443 754 q 456 561 443 606 q 563 576 494 576 q 632 521 632 576 z "},"":{"ha":656,"x_min":49,"x_max":676,"o":"m 217 294 q 214 258 214 264 q 240 156 214 197 q 322 115 267 115 q 513 185 429 115 q 521 186 514 186 q 539 175 528 186 q 550 153 550 164 q 517 110 550 143 q 438 49 485 78 q 340 -136 340 -39 q 386 -196 340 -196 q 483 -158 421 -196 q 506 -207 506 -178 q 421 -256 475 -235 q 319 -278 367 -278 q 219 -183 219 -278 q 306 -6 219 -87 q 235 -14 258 -14 q 101 39 153 -14 q 49 178 49 92 q 90 354 49 264 q 198 519 132 444 q 354 644 264 594 q 519 694 444 694 q 635 662 594 694 q 676 571 676 629 q 628 433 676 496 q 217 294 525 306 m 375 578 q 297 483 342 549 q 232 361 251 418 q 368 388 310 368 q 453 431 426 407 q 506 513 506 476 q 485 571 506 550 q 433 592 464 592 q 375 578 401 592 z "},"":{"ha":732,"x_min":49,"x_max":1010,"o":"m 965 1289 q 993 1273 976 1289 q 1010 1242 1010 1257 q 900 1108 1010 1228 q 761 988 790 988 q 663 1110 725 988 q 601 1248 601 1232 q 621 1278 601 1264 q 651 1292 640 1292 q 781 1143 740 1178 q 965 1289 872 1196 m 632 521 q 578 433 632 469 q 459 397 524 397 q 360 424 394 397 q 349 417 356 421 q 325 397 342 413 q 294 363 308 381 q 260 244 260 314 q 399 92 260 92 q 644 188 549 92 q 692 140 683 175 q 537 17 646 68 q 310 -33 428 -33 q 120 20 192 -33 q 49 178 49 74 q 115 365 49 283 q 289 503 182 446 q 260 603 260 542 q 384 838 260 749 q 703 926 508 926 q 829 899 788 926 q 871 820 871 871 q 810 714 871 769 q 669 653 749 658 q 650 665 660 654 q 640 683 640 676 q 643 693 640 690 q 690 793 690 742 q 658 828 690 817 q 584 840 625 840 q 528 831 543 840 q 443 633 443 754 q 456 561 443 606 q 563 576 494 576 q 632 521 632 576 z "},"":{"ha":656,"x_min":49,"x_max":771,"o":"m 726 1042 q 754 1026 738 1042 q 771 995 771 1010 q 661 860 771 981 q 522 740 551 740 q 424 863 486 740 q 363 1001 363 985 q 382 1031 363 1017 q 413 1044 401 1044 q 542 896 501 931 q 726 1042 633 949 m 375 578 q 297 483 342 549 q 232 361 251 418 q 368 388 310 368 q 453 431 426 407 q 506 513 506 476 q 485 571 506 550 q 433 592 464 592 q 375 578 401 592 m 217 294 q 214 258 214 264 q 240 156 214 197 q 322 115 267 115 q 513 185 429 115 q 521 186 514 186 q 539 175 528 186 q 550 151 550 164 q 508 100 550 139 q 389 24 467 61 q 232 -14 311 -14 q 101 39 153 -14 q 49 178 49 92 q 90 354 49 264 q 198 519 132 444 q 354 644 264 594 q 519 694 444 694 q 635 662 594 694 q 676 571 676 629 q 628 433 676 496 q 217 294 525 306 z "},"":{"ha":936,"x_min":18,"x_max":1040,"o":"m 957 1022 q 856 1158 915 1094 q 644 1025 746 1103 q 621 1044 635 1025 q 607 1072 607 1063 q 672 1144 607 1082 q 814 1266 738 1206 q 913 1326 890 1326 q 982 1210 949 1326 q 1015 1061 1015 1094 q 991 1036 1014 1050 q 957 1022 968 1022 m 646 303 l 647 328 q 772 585 656 585 q 847 560 811 585 q 882 503 882 536 q 781 318 882 435 q 804 96 804 185 q 654 -269 804 -149 q 261 -389 504 -389 q 18 -236 18 -389 q 85 -92 18 -149 q 211 -35 151 -35 q 233 -54 233 -35 q 220 -98 233 -56 q 207 -186 207 -140 q 317 -310 207 -310 q 534 -180 449 -310 q 636 211 619 -50 q 268 32 435 32 q 144 85 189 32 q 100 239 100 138 q 158 459 100 340 q 313 684 217 578 q 554 862 410 790 q 854 933 699 933 q 991 903 942 933 q 1040 829 1040 872 q 983 708 1040 765 q 850 636 926 651 q 831 648 840 638 q 822 666 822 658 q 837 697 822 674 q 851 755 851 721 q 813 815 851 789 q 707 842 774 842 q 549 751 640 842 q 390 525 457 660 q 322 277 322 390 q 413 164 322 164 q 646 303 521 164 z "},"":{"ha":783,"x_min":-126,"x_max":828,"o":"m 742 778 q 640 914 700 850 q 429 781 531 858 q 406 799 419 781 q 392 828 392 818 q 457 899 392 838 q 599 1022 522 961 q 697 1082 675 1082 q 767 966 733 1082 q 800 817 800 850 q 776 792 799 806 q 742 778 753 778 m 576 542 q 539 578 563 564 q 500 594 515 592 l 483 597 q 299 403 383 536 q 215 161 215 271 q 227 124 215 138 q 254 111 239 111 q 344 147 294 111 q 425 219 394 183 l 456 256 q 576 542 490 383 m 672 369 q 407 -215 554 -43 q 96 -376 269 -376 q -46 -347 25 -376 q -104 -303 -82 -333 q -126 -233 -126 -274 q -67 -106 -126 -160 q 43 -51 -7 -51 q 65 -65 65 -51 q 53 -108 65 -67 q 40 -188 40 -150 q 64 -258 40 -226 q 138 -290 88 -290 q 238 -247 188 -290 q 319 -140 288 -203 q 411 92 385 -12 l 422 135 q 424 138 422 136 q 174 -17 288 -17 q 74 26 110 -17 q 39 154 39 69 q 108 367 39 239 q 285 589 178 494 q 485 683 392 683 q 563 663 526 683 q 617 614 600 642 q 761 751 704 751 q 808 722 789 751 q 828 661 828 692 q 672 369 828 579 z "},"":{"ha":936,"x_min":18,"x_max":1142,"o":"m 1064 1279 q 1100 1278 1064 1279 q 1140 1260 1136 1278 q 1142 1247 1142 1254 q 1059 1083 1142 1142 q 882 1025 976 1025 q 730 1062 788 1025 q 672 1165 672 1099 q 693 1230 672 1199 q 754 1279 714 1261 q 813 1192 764 1226 q 916 1157 861 1157 q 1010 1188 971 1157 q 1064 1279 1050 1218 m 646 303 l 647 328 q 772 585 656 585 q 847 560 811 585 q 882 503 882 536 q 781 318 882 435 q 804 96 804 185 q 654 -269 804 -149 q 261 -389 504 -389 q 18 -236 18 -389 q 85 -92 18 -149 q 211 -35 151 -35 q 233 -54 233 -35 q 220 -98 233 -56 q 207 -186 207 -140 q 317 -310 207 -310 q 534 -180 449 -310 q 636 211 619 -50 q 268 32 435 32 q 144 85 189 32 q 100 239 100 138 q 158 459 100 340 q 313 684 217 578 q 554 862 410 790 q 854 933 699 933 q 991 903 942 933 q 1040 829 1040 872 q 983 708 1040 765 q 850 636 926 651 q 831 648 840 638 q 822 666 822 658 q 837 697 822 674 q 851 755 851 721 q 813 815 851 789 q 707 842 774 842 q 549 751 640 842 q 390 525 457 660 q 322 277 322 390 q 413 164 322 164 q 646 303 521 164 z "},"":{"ha":783,"x_min":-126,"x_max":856,"o":"m 778 1075 q 814 1074 778 1075 q 854 1056 850 1074 q 856 1043 856 1050 q 773 879 856 938 q 596 821 690 821 q 444 858 501 821 q 386 961 386 894 q 407 1026 386 994 q 468 1075 428 1057 q 526 988 478 1022 q 630 953 575 953 q 724 983 685 953 q 778 1075 764 1014 m 576 542 q 539 578 563 564 q 500 594 515 592 l 483 597 q 299 403 383 536 q 215 161 215 271 q 227 124 215 138 q 254 111 239 111 q 344 147 294 111 q 425 219 394 183 l 456 256 q 576 542 490 383 m 672 369 q 407 -215 554 -43 q 96 -376 269 -376 q -46 -347 25 -376 q -104 -303 -82 -333 q -126 -233 -126 -274 q -67 -106 -126 -160 q 43 -51 -7 -51 q 65 -65 65 -51 q 53 -108 65 -67 q 40 -188 40 -150 q 64 -258 40 -226 q 138 -290 88 -290 q 238 -247 188 -290 q 319 -140 288 -203 q 411 92 385 -12 l 422 135 q 424 138 422 136 q 174 -17 288 -17 q 74 26 110 -17 q 39 154 39 69 q 108 367 39 239 q 285 589 178 494 q 485 683 392 683 q 563 663 526 683 q 617 614 600 642 q 761 751 704 751 q 808 722 789 751 q 828 661 828 692 q 672 369 828 579 z "},"":{"ha":936,"x_min":18,"x_max":1040,"o":"m 961 1061 q 863 1047 933 1047 q 764 1056 792 1047 q 775 1131 775 1096 q 774 1176 775 1165 q 861 1222 789 1200 q 1001 1243 933 1243 q 1010 1213 1010 1243 q 994 1129 1010 1182 q 961 1061 979 1076 m 646 303 l 647 328 q 772 585 656 585 q 847 560 811 585 q 882 503 882 536 q 781 318 882 435 q 804 96 804 185 q 654 -269 804 -149 q 261 -389 504 -389 q 18 -236 18 -389 q 85 -92 18 -149 q 211 -35 151 -35 q 233 -54 233 -35 q 220 -98 233 -56 q 207 -186 207 -140 q 317 -310 207 -310 q 534 -180 449 -310 q 636 211 619 -50 q 268 32 435 32 q 144 85 189 32 q 100 239 100 138 q 158 459 100 340 q 313 684 217 578 q 554 862 410 790 q 854 933 699 933 q 991 903 942 933 q 1040 829 1040 872 q 983 708 1040 765 q 850 636 926 651 q 831 648 840 638 q 822 666 822 658 q 837 697 822 674 q 851 755 851 721 q 813 815 851 789 q 707 842 774 842 q 549 751 640 842 q 390 525 457 660 q 322 277 322 390 q 413 164 322 164 q 646 303 521 164 z "},"":{"ha":783,"x_min":-126,"x_max":828,"o":"m 735 844 q 636 831 707 831 q 538 839 565 831 q 549 914 549 879 q 547 960 549 949 q 635 1005 563 983 q 775 1026 707 1026 q 783 996 783 1026 q 768 913 783 965 q 735 844 753 860 m 576 542 q 539 578 563 564 q 500 594 515 592 l 483 597 q 299 403 383 536 q 215 161 215 271 q 227 124 215 138 q 254 111 239 111 q 344 147 294 111 q 425 219 394 183 l 456 256 q 576 542 490 383 m 672 369 q 407 -215 554 -43 q 96 -376 269 -376 q -46 -347 25 -376 q -104 -303 -82 -333 q -126 -233 -126 -274 q -67 -106 -126 -160 q 43 -51 -7 -51 q 65 -65 65 -51 q 53 -108 65 -67 q 40 -188 40 -150 q 64 -258 40 -226 q 138 -290 88 -290 q 238 -247 188 -290 q 319 -140 288 -203 q 411 92 385 -12 l 422 135 q 424 138 422 136 q 174 -17 288 -17 q 74 26 110 -17 q 39 154 39 69 q 108 367 39 239 q 285 589 178 494 q 485 683 392 683 q 563 663 526 683 q 617 614 600 642 q 761 751 704 751 q 808 722 789 751 q 828 661 828 692 q 672 369 828 579 z "},"":{"ha":936,"x_min":18,"x_max":1040,"o":"m 68 -764 q 169 -733 119 -761 q 244 -654 219 -706 q 169 -642 189 -654 q 165 -612 165 -629 q 208 -504 165 -543 q 325 -467 253 -467 q 385 -475 358 -467 q 394 -500 394 -481 q 360 -640 394 -567 q 259 -767 325 -712 q 115 -821 193 -821 q 68 -764 68 -821 m 646 303 l 647 328 q 772 585 656 585 q 847 560 811 585 q 882 503 882 536 q 781 318 882 435 q 804 96 804 185 q 654 -269 804 -149 q 261 -389 504 -389 q 18 -236 18 -389 q 85 -92 18 -149 q 211 -35 151 -35 q 233 -54 233 -35 q 220 -98 233 -56 q 207 -186 207 -140 q 317 -310 207 -310 q 534 -180 449 -310 q 636 211 619 -50 q 268 32 435 32 q 144 85 189 32 q 100 239 100 138 q 158 459 100 340 q 313 684 217 578 q 554 862 410 790 q 854 933 699 933 q 991 903 942 933 q 1040 829 1040 872 q 983 708 1040 765 q 850 636 926 651 q 831 648 840 638 q 822 666 822 658 q 837 697 822 674 q 851 755 851 721 q 813 815 851 789 q 707 842 774 842 q 549 751 640 842 q 390 525 457 660 q 322 277 322 390 q 413 164 322 164 q 646 303 521 164 z "},"":{"ha":783,"x_min":-126,"x_max":1103,"o":"m 926 1044 q 1001 1032 983 1044 q 1006 1003 1006 1019 q 963 895 1006 933 q 846 857 919 857 q 786 865 814 857 q 776 890 776 871 q 811 1030 776 957 q 912 1157 846 1103 q 1056 1211 978 1211 q 1103 1154 1103 1211 q 1001 1124 1051 1151 q 926 1044 951 1096 m 576 542 q 539 578 563 564 q 500 594 515 592 l 483 597 q 299 403 383 536 q 215 161 215 271 q 227 124 215 138 q 254 111 239 111 q 344 147 294 111 q 425 219 394 183 l 456 256 q 576 542 490 383 m 672 369 q 407 -215 554 -43 q 96 -376 269 -376 q -46 -347 25 -376 q -104 -303 -82 -333 q -126 -233 -126 -274 q -67 -106 -126 -160 q 43 -51 -7 -51 q 65 -65 65 -51 q 53 -108 65 -67 q 40 -188 40 -150 q 64 -258 40 -226 q 138 -290 88 -290 q 238 -247 188 -290 q 319 -140 288 -203 q 411 92 385 -12 l 422 135 q 424 138 422 136 q 174 -17 288 -17 q 74 26 110 -17 q 39 154 39 69 q 108 367 39 239 q 285 589 178 494 q 485 683 392 683 q 563 663 526 683 q 617 614 600 642 q 761 751 704 751 q 808 722 789 751 q 828 661 828 692 q 672 369 828 579 z "},"":{"ha":996,"x_min":100,"x_max":1124,"o":"m 899 986 q 797 1122 857 1058 q 586 989 688 1067 q 563 1008 576 989 q 549 1036 549 1026 q 614 1108 549 1046 q 756 1230 679 1169 q 854 1290 832 1290 q 924 1174 890 1290 q 957 1025 957 1058 q 933 1000 956 1014 q 899 986 910 986 m 394 379 q 329 203 347 261 q 311 107 311 146 q 324 43 311 68 q 273 4 311 22 q 190 -14 235 -14 q 123 5 146 -14 q 100 76 100 24 q 165 272 100 128 q 296 567 231 415 q 361 794 361 718 q 319 827 361 811 q 251 843 278 843 q 239 860 239 843 q 248 894 239 878 q 261 911 257 911 q 298 908 282 910 q 333 904 314 906 q 415 901 372 901 q 490 906 458 901 q 542 917 521 911 q 568 924 564 924 q 581 912 572 924 q 589 881 589 900 q 574 815 589 863 q 544 729 560 767 q 496 615 529 692 q 447 503 463 539 q 578 492 503 492 q 718 501 653 492 q 731 529 725 515 q 1000 938 900 938 q 1082 919 1040 938 q 1124 860 1124 901 q 1056 688 1124 794 q 892 506 989 581 q 817 294 851 417 q 783 106 783 172 q 827 80 783 89 q 906 71 871 71 q 914 21 924 71 q 903 0 910 0 q 611 -14 681 0 q 596 -2 606 -14 q 586 17 586 10 q 650 297 586 117 q 688 418 678 378 q 394 379 551 379 z "},"":{"ha":800,"x_min":7,"x_max":744,"o":"m 542 1000 q 440 1136 500 1072 q 229 1003 331 1081 q 206 1022 219 1003 q 192 1050 192 1040 q 257 1122 192 1060 q 399 1244 322 1183 q 497 1304 475 1304 q 567 1188 533 1304 q 600 1039 600 1072 q 576 1014 599 1028 q 542 1000 553 1000 m 211 978 l 371 972 q 463 987 431 972 q 499 1001 494 1001 q 510 990 504 1001 q 517 974 517 979 q 319 481 517 861 l 326 475 q 464 610 354 522 q 631 699 574 699 q 717 667 689 699 q 744 585 744 635 q 666 329 744 510 q 588 100 588 149 q 601 83 588 83 q 683 117 636 83 l 700 128 q 717 111 708 128 q 725 85 725 94 q 697 53 725 75 q 612 8 668 31 q 496 -14 556 -14 q 406 61 406 -14 q 478 280 406 108 q 551 531 551 451 q 544 560 551 549 q 522 574 536 571 q 481 547 507 564 q 399 474 456 529 q 308 363 342 419 q 215 106 278 224 q 118 -11 153 -11 q 45 2 83 -11 q 7 42 7 15 q 44 161 7 89 q 117 282 81 233 l 154 331 q 258 619 217 458 q 300 871 300 781 q 210 915 300 908 q 196 919 199 917 q 193 935 193 922 q 200 963 193 947 q 211 978 207 978 z "},"":{"ha":996,"x_min":83,"x_max":1107,"o":"m 378 379 q 313 203 331 261 q 294 107 294 146 q 307 43 294 68 q 256 4 294 22 q 174 -14 218 -14 q 106 5 129 -14 q 83 68 83 24 q 115 193 83 113 q 204 399 146 274 q 288 583 263 524 l 207 583 q 140 557 143 579 q 118 579 129 560 q 107 620 107 599 q 128 660 107 642 q 182 679 150 679 q 321 676 214 679 q 344 794 344 751 q 303 827 344 811 q 235 843 261 843 q 222 860 222 843 q 231 894 222 878 q 244 911 240 911 q 281 908 265 910 q 317 904 297 906 q 399 901 356 901 q 473 906 442 901 q 526 917 504 911 q 551 924 547 924 q 564 912 556 924 q 572 893 572 900 q 503 671 572 832 l 771 663 q 983 938 897 938 q 1065 919 1024 938 q 1107 860 1107 901 q 1040 688 1107 794 q 875 506 972 581 q 801 294 835 417 q 767 106 767 172 q 810 80 767 89 q 889 71 854 71 q 897 21 907 71 q 886 0 893 0 q 594 -14 664 0 q 579 -2 589 -14 q 569 17 569 10 q 633 297 569 117 q 671 418 661 378 q 378 379 535 379 m 714 529 l 736 585 l 465 583 q 431 503 449 550 q 561 492 486 492 q 701 501 636 492 q 714 529 708 515 z "},"":{"ha":800,"x_min":7,"x_max":744,"o":"m 211 978 l 371 972 q 463 987 431 972 q 499 1001 494 1001 q 510 990 504 1001 q 517 974 517 979 q 474 808 517 917 q 579 815 519 808 q 586 801 586 815 q 554 739 586 764 q 438 724 515 732 q 319 481 388 611 l 326 475 q 464 610 354 522 q 631 699 574 699 q 717 667 689 699 q 744 585 744 635 q 666 329 744 510 q 588 100 588 149 q 601 83 588 83 q 683 117 636 83 l 700 128 q 717 111 708 128 q 725 85 725 94 q 697 53 725 75 q 612 8 668 31 q 496 -14 556 -14 q 406 61 406 -14 q 478 280 406 108 q 551 531 551 451 q 544 560 551 549 q 522 574 536 571 q 481 547 507 564 q 399 474 456 529 q 308 363 342 419 q 215 106 278 224 q 118 -11 153 -11 q 45 2 83 -11 q 7 42 7 15 q 44 161 7 89 q 117 282 81 233 l 154 331 q 279 714 239 507 q 160 713 242 713 q 150 729 150 713 q 199 821 150 774 q 296 813 246 815 q 300 871 300 844 q 210 915 300 908 q 196 919 199 917 q 193 935 193 922 q 200 963 193 947 q 211 978 207 978 z "},"":{"ha":628,"x_min":28,"x_max":885,"o":"m 849 1249 q 885 1215 885 1243 q 826 1091 885 1161 q 682 1021 768 1021 q 524 1096 596 1021 q 367 1024 421 1096 q 332 1057 332 1029 q 397 1172 332 1104 q 536 1251 461 1240 q 717 1163 633 1163 q 849 1249 801 1163 m 529 157 q 547 79 547 119 q 521 12 547 39 q 452 -15 494 -15 q 325 -7 410 -15 q 192 1 240 1 q 42 -31 86 1 q 28 19 28 -8 q 72 103 28 67 q 189 139 117 139 q 218 136 199 139 q 288 453 232 257 q 410 779 343 649 q 376 781 397 781 q 267 746 321 781 q 249 824 249 783 q 275 891 249 864 q 344 918 301 918 q 471 910 386 918 q 604 901 556 901 q 754 933 710 901 q 768 883 768 911 q 724 800 768 836 q 607 764 679 764 q 578 767 597 764 q 463 466 539 706 q 386 124 388 226 q 419 122 399 122 q 529 157 475 122 z "},"":{"ha":451,"x_min":63,"x_max":685,"o":"m 649 986 q 685 953 685 981 q 626 828 685 899 q 482 758 568 758 q 324 833 396 758 q 167 761 221 833 q 132 794 132 767 q 197 910 132 842 q 336 989 261 978 q 517 900 433 900 q 649 986 601 900 m 374 111 q 378 103 374 111 q 382 85 382 94 q 353 53 382 75 q 269 8 325 31 q 153 -14 213 -14 q 63 61 63 -14 q 106 234 63 129 q 192 433 149 339 q 236 571 236 528 q 225 585 236 585 q 181 572 210 585 q 146 558 153 558 q 130 577 139 558 q 121 606 121 596 q 161 633 121 613 q 263 672 201 653 q 358 690 324 690 q 421 674 392 690 q 450 635 450 658 q 399 506 450 613 q 297 278 349 399 q 246 100 246 157 q 260 83 246 83 q 342 117 293 83 l 357 128 q 374 111 365 128 z "},"":{"ha":628,"x_min":28,"x_max":857,"o":"m 825 1075 q 431 1039 656 1039 q 421 1061 421 1039 q 469 1183 421 1121 q 660 1168 583 1168 q 850 1175 736 1168 q 857 1157 857 1175 q 825 1075 857 1110 m 529 157 q 547 79 547 119 q 521 12 547 39 q 452 -15 494 -15 q 325 -7 410 -15 q 192 1 240 1 q 42 -31 86 1 q 28 19 28 -8 q 72 103 28 67 q 189 139 117 139 q 218 136 199 139 q 288 453 232 257 q 410 779 343 649 q 376 781 397 781 q 267 746 321 781 q 249 824 249 783 q 275 891 249 864 q 344 918 301 918 q 471 910 386 918 q 604 901 556 901 q 754 933 710 901 q 768 883 768 911 q 724 800 768 836 q 607 764 679 764 q 578 767 597 764 q 463 466 539 706 q 386 124 388 226 q 419 122 399 122 q 529 157 475 122 z "},"":{"ha":451,"x_min":63,"x_max":614,"o":"m 582 818 q 188 782 413 782 q 178 804 178 782 q 226 926 178 864 q 417 911 340 911 q 607 918 493 911 q 614 900 614 918 q 582 818 614 853 m 374 111 q 378 103 374 111 q 382 85 382 94 q 353 53 382 75 q 269 8 325 31 q 153 -14 213 -14 q 63 61 63 -14 q 106 234 63 129 q 192 433 149 339 q 236 571 236 528 q 225 585 236 585 q 181 572 210 585 q 146 558 153 558 q 130 577 139 558 q 121 606 121 596 q 161 633 121 613 q 263 672 201 653 q 358 690 324 690 q 421 674 392 690 q 450 635 450 658 q 399 506 450 613 q 297 278 349 399 q 246 100 246 157 q 260 83 246 83 q 342 117 293 83 l 357 128 q 374 111 365 128 z "},"":{"ha":592,"x_min":-28,"x_max":757,"o":"m 340 136 l 388 135 q 485 153 446 135 q 503 82 503 115 q 457 -1 503 24 q 406 -132 406 -68 q 453 -196 406 -196 q 549 -158 486 -196 q 571 -207 571 -178 q 381 -276 482 -276 q 312 -249 339 -276 q 285 -182 285 -222 q 363 -14 285 -94 q 278 -6 361 -14 q 150 1 196 1 q 0 -31 44 1 q -28 11 -28 -31 q 31 115 -28 76 q 167 154 90 153 q 244 483 186 293 q 383 796 301 674 l 382 796 q 326 797 368 797 q 243 779 285 797 q 225 855 225 817 q 251 920 225 893 q 320 947 278 947 q 447 939 363 947 q 581 931 532 931 q 731 963 686 931 q 757 921 757 963 q 697 817 757 854 q 561 778 636 779 q 429 477 517 715 q 340 136 342 239 z "},"":{"ha":451,"x_min":63,"x_max":556,"o":"m 374 111 q 378 103 374 111 q 382 85 382 94 q 349 50 382 75 q 250 -136 250 -39 q 296 -196 250 -196 q 393 -158 331 -196 q 415 -207 415 -178 q 331 -256 385 -235 q 229 -278 276 -278 q 129 -183 129 -278 q 213 -8 129 -89 q 153 -14 174 -14 q 63 61 63 -14 q 106 234 63 129 q 192 433 149 339 q 236 571 236 528 q 225 585 236 585 q 181 572 210 585 q 146 558 153 558 q 130 577 139 558 q 121 606 121 596 q 161 633 121 613 q 263 672 201 653 q 358 690 324 690 q 421 674 392 690 q 450 635 450 658 q 399 506 450 613 q 297 278 349 399 q 246 100 246 157 q 260 83 246 83 q 342 117 293 83 l 357 128 q 374 111 365 128 m 507 814 q 408 800 479 800 q 310 808 338 800 q 321 883 321 849 q 319 929 321 918 q 407 974 335 953 q 547 996 479 996 q 556 965 556 996 q 540 882 556 935 q 507 814 525 829 z "},"":{"ha":628,"x_min":28,"x_max":768,"o":"m 696 1075 q 597 1061 668 1061 q 499 1069 526 1061 q 510 1144 510 1110 q 508 1190 510 1179 q 596 1235 524 1214 q 736 1257 668 1257 q 744 1226 744 1257 q 729 1143 744 1196 q 696 1075 714 1090 m 529 157 q 547 79 547 119 q 521 12 547 39 q 452 -15 494 -15 q 325 -7 410 -15 q 192 1 240 1 q 42 -31 86 1 q 28 19 28 -8 q 72 103 28 67 q 189 139 117 139 q 218 136 199 139 q 288 453 232 257 q 410 779 343 649 q 376 781 397 781 q 267 746 321 781 q 249 824 249 783 q 275 891 249 864 q 344 918 301 918 q 471 910 386 918 q 604 901 556 901 q 754 933 710 901 q 768 883 768 911 q 724 800 768 836 q 607 764 679 764 q 578 767 597 764 q 463 466 539 706 q 386 124 388 226 q 419 122 399 122 q 529 157 475 122 z "},"":{"ha":451,"x_min":63,"x_max":450,"o":"m 374 111 q 378 103 374 111 q 382 85 382 94 q 353 53 382 75 q 269 8 325 31 q 153 -14 213 -14 q 63 61 63 -14 q 106 234 63 129 q 192 433 149 339 q 236 571 236 528 q 225 585 236 585 q 181 572 210 585 q 146 558 153 558 q 130 577 139 558 q 121 606 121 596 q 161 633 121 613 q 263 672 201 653 q 358 690 324 690 q 421 674 392 690 q 450 635 450 658 q 399 506 450 613 q 297 278 349 399 q 246 100 246 157 q 260 83 246 83 q 342 117 293 83 l 357 128 q 374 111 365 128 z "},"":{"ha":650,"x_min":-222,"x_max":789,"o":"m 419 1061 q 318 1197 378 1133 q 107 1064 208 1142 q 83 1083 97 1064 q 69 1111 69 1101 q 135 1183 69 1121 q 276 1305 200 1244 q 375 1365 353 1365 q 444 1249 411 1365 q 478 1100 478 1133 q 453 1075 476 1089 q 419 1061 431 1061 m 519 738 q 269 808 347 808 q 204 775 224 808 q 185 664 185 742 q 163 656 176 656 q 113 724 136 656 q 89 851 89 792 q 130 952 89 911 q 242 993 171 993 q 650 833 396 993 q 729 856 703 856 q 789 811 789 856 q 763 710 789 744 q 699 675 736 675 q 601 703 661 675 q 467 115 522 288 q 156 -332 353 -240 q -15 -369 78 -369 q -165 -333 -107 -369 q -222 -220 -222 -297 q -152 -81 -222 -143 q -25 -19 -82 -19 q 0 -36 0 -19 q -15 -85 0 -37 q -29 -167 -29 -132 q 11 -233 -29 -201 q 117 -264 51 -264 q 256 11 188 -264 q 319 266 286 135 q 404 530 351 397 q 519 738 457 663 z "},"":{"ha":432,"x_min":-360,"x_max":560,"o":"m 501 735 q 400 871 460 807 q 189 738 290 815 q 165 756 179 738 q 151 785 151 775 q 217 856 151 794 q 358 978 282 918 q 457 1039 435 1039 q 526 923 493 1039 q 560 774 560 807 q 535 749 558 763 q 501 735 513 735 m 443 611 q 440 602 443 611 q 421 553 436 593 q 330 296 406 514 q 225 3 254 78 q 163 -131 196 -72 q 81 -251 131 -190 q -37 -344 32 -311 q -187 -378 -106 -378 q -315 -337 -269 -378 q -360 -228 -360 -297 q -299 -106 -360 -160 q -190 -51 -239 -51 q -168 -65 -168 -51 q -181 -108 -168 -67 q -193 -182 -193 -150 q -114 -292 -193 -292 q -14 -206 -47 -292 q 33 -46 10 -146 q 69 97 56 54 q 125 253 82 139 q 236 565 236 544 q 225 585 236 585 q 181 572 210 585 q 146 558 153 558 q 130 577 139 558 q 121 606 121 596 q 161 633 121 613 q 263 672 201 653 q 358 690 324 690 q 421 674 392 690 q 450 644 450 658 q 443 611 450 629 z "},"":{"ha":858,"x_min":7,"x_max":1039,"o":"m 67 -357 q 168 -326 118 -354 q 243 -247 218 -299 q 168 -235 186 -247 q 164 -206 164 -222 q 207 -97 164 -136 q 324 -60 251 -60 q 383 -68 356 -60 q 393 -93 393 -74 q 358 -233 393 -160 q 258 -360 324 -306 q 114 -414 192 -414 q 67 -357 67 -414 m 250 915 q 390 910 328 910 q 553 925 453 910 q 567 911 558 925 q 575 890 575 897 q 494 661 549 789 q 428 501 440 533 l 439 501 q 705 806 565 688 q 935 924 844 924 q 1012 898 985 924 q 1039 828 1039 872 q 1017 747 1039 783 q 976 710 994 710 q 946 726 974 710 q 896 743 918 743 q 726 676 824 743 q 550 513 628 610 q 623 213 581 322 q 735 103 665 103 q 835 143 786 103 q 849 108 849 133 q 795 18 849 64 q 667 -28 742 -28 q 548 3 592 -28 q 483 94 504 33 q 442 399 444 203 l 347 275 q 238 65 289 143 q 140 -14 186 -14 q 51 4 94 -14 q 7 64 7 22 q 79 186 7 101 q 157 274 104 215 q 350 799 350 711 q 308 831 350 815 q 240 847 267 847 q 228 865 228 847 q 237 899 228 882 q 250 915 246 915 z "},"":{"ha":749,"x_min":0,"x_max":769,"o":"m 18 -387 q 119 -357 69 -385 q 194 -278 169 -329 q 119 -265 139 -278 q 115 -236 115 -253 q 158 -128 115 -167 q 275 -90 203 -90 q 335 -99 308 -90 q 344 -124 344 -104 q 310 -263 344 -190 q 209 -390 275 -336 q 65 -444 143 -444 q 18 -387 18 -444 m 204 978 l 364 972 q 456 987 425 972 q 492 1001 488 1001 q 503 990 497 1001 q 510 974 510 979 q 313 481 510 861 l 319 475 q 488 642 413 586 q 649 699 563 699 q 739 664 708 699 q 769 569 769 629 q 744 463 769 510 q 669 383 718 415 q 469 290 590 331 q 515 160 475 236 q 594 85 556 85 q 696 119 633 85 q 709 106 704 119 q 714 82 714 92 q 614 1 682 39 q 478 -36 546 -36 q 409 3 435 -36 q 374 103 383 43 q 360 256 364 163 q 347 259 353 256 q 337 265 342 263 q 331 269 332 267 q 326 275 329 271 q 322 297 322 279 q 349 342 322 314 q 399 369 375 369 q 453 339 422 369 q 543 408 508 361 q 578 511 578 456 q 536 567 578 567 q 301 363 392 536 q 208 106 271 224 q 111 -11 146 -11 q 38 2 76 -11 q 0 42 0 15 q 37 161 0 89 q 111 282 74 233 l 147 331 q 251 619 210 458 q 293 871 293 781 q 203 915 293 908 q 189 919 192 917 q 186 935 186 922 q 193 963 186 947 q 204 978 200 978 z "},"":{"ha":669,"x_min":-60,"x_max":706,"o":"m 258 297 q 258 305 258 297 q 285 342 258 314 q 335 369 311 369 q 389 339 358 369 q 479 408 444 361 q 514 511 514 456 q 502 547 514 532 q 472 561 490 561 q 242 363 321 535 q 149 106 211 224 q 51 -11 86 -11 q -22 2 17 -11 q -60 42 -60 15 q -23 162 -60 89 q 50 283 14 235 l 88 332 q 113 420 100 357 q 125 535 125 483 q 106 588 125 588 q 69 576 92 588 q 40 564 47 564 q 24 581 32 564 q 15 606 15 597 q 47 637 15 615 q 131 679 78 658 q 229 700 183 700 q 264 603 264 700 q 249 483 264 542 l 256 475 q 424 642 349 586 q 585 699 499 699 q 675 664 644 699 q 706 569 706 629 q 680 463 706 510 q 606 383 654 415 q 406 290 526 331 q 451 160 411 236 q 531 85 492 85 q 632 119 569 85 q 645 106 640 119 q 650 82 650 92 q 550 1 618 39 q 414 -36 482 -36 q 345 3 371 -36 q 310 103 319 43 q 296 256 300 163 q 283 259 289 256 q 273 265 278 263 q 267 269 268 267 q 263 275 265 271 q 258 297 258 279 z "},"":{"ha":688,"x_min":-69,"x_max":956,"o":"m 956 1169 q 771 1131 865 1169 q 610 1029 676 1093 q 590 1042 600 1029 q 581 1069 581 1054 q 630 1145 581 1083 q 752 1265 679 1207 q 876 1324 825 1324 q 929 1280 903 1324 q 956 1169 956 1236 m -69 15 q -25 145 -69 82 q 69 208 19 208 q 183 165 119 208 q 260 403 236 271 l 300 644 q 444 911 331 832 q 674 982 549 982 q 789 956 751 982 q 826 881 826 929 q 786 790 826 833 q 715 746 746 746 q 692 771 700 746 q 640 849 675 822 q 567 876 606 876 q 510 848 528 876 q 485 747 492 819 l 454 440 q 381 242 443 317 q 319 180 349 204 q 244 124 290 156 q 284 99 251 119 q 329 72 317 79 q 370 50 342 65 q 414 28 399 35 q 493 11 458 11 q 657 92 585 11 q 697 57 694 92 q 463 -165 626 -165 q 308 -115 376 -165 q 154 50 240 -65 q -25 -29 53 -29 q -69 15 -69 -29 z "},"":{"ha":428,"x_min":42,"x_max":894,"o":"m 894 1147 q 710 1109 804 1147 q 549 1007 615 1071 q 529 1019 539 1007 q 519 1047 519 1032 q 569 1123 519 1061 q 691 1243 618 1185 q 815 1301 764 1301 q 868 1258 842 1301 q 894 1147 894 1214 m 229 76 q 350 121 274 76 q 367 104 358 121 q 375 78 375 88 q 342 45 375 68 q 249 1 310 22 q 129 -21 189 -21 q 42 74 42 -21 q 119 362 42 144 q 301 776 197 579 q 464 972 406 972 q 560 949 525 972 q 594 897 594 926 q 329 474 594 789 q 201 100 201 201 q 229 76 201 76 z "},"":{"ha":688,"x_min":-69,"x_max":826,"o":"m -54 -422 q 47 -392 -3 -419 q 122 -312 97 -364 q 47 -300 67 -312 q 43 -271 43 -287 q 86 -162 43 -201 q 203 -125 131 -125 q 263 -133 236 -125 q 272 -158 272 -139 q 238 -298 272 -225 q 137 -425 203 -371 q -7 -479 71 -479 q -54 -422 -54 -479 m -69 15 q -25 145 -69 82 q 69 208 19 208 q 183 165 119 208 q 260 403 236 271 l 300 644 q 444 911 331 832 q 674 982 549 982 q 789 956 751 982 q 826 881 826 929 q 786 790 826 833 q 715 746 746 746 q 692 771 700 746 q 640 849 675 822 q 567 876 606 876 q 510 848 528 876 q 485 747 492 819 l 454 440 q 381 242 443 317 q 319 180 349 204 q 244 124 290 156 q 284 99 251 119 q 329 72 317 79 q 370 50 342 65 q 414 28 399 35 q 493 11 458 11 q 657 92 585 11 q 697 57 694 92 q 463 -165 626 -165 q 308 -115 376 -165 q 154 50 240 -65 q -25 -29 53 -29 q -69 15 -69 -29 z "},"":{"ha":428,"x_min":-153,"x_max":594,"o":"m -153 -401 q -51 -371 -101 -399 q 24 -292 -1 -343 q -51 -279 -32 -292 q -56 -250 -56 -267 q -12 -142 -56 -181 q 104 -104 32 -104 q 164 -112 136 -104 q 174 -137 174 -118 q 139 -277 174 -204 q 38 -404 104 -350 q -106 -458 -28 -458 q -153 -401 -153 -458 m 229 76 q 350 121 274 76 q 367 104 358 121 q 375 78 375 88 q 342 45 375 68 q 249 1 310 22 q 129 -21 189 -21 q 42 74 42 -21 q 119 362 42 144 q 301 776 197 579 q 464 972 406 972 q 560 949 525 972 q 594 897 594 926 q 329 474 594 789 q 201 100 201 201 q 229 76 201 76 z "},"":{"ha":688,"x_min":-69,"x_max":828,"o":"m 501 356 q 603 386 553 358 q 678 465 653 414 q 603 478 622 465 q 599 507 599 490 q 642 615 599 576 q 758 653 686 653 q 818 644 792 653 q 828 619 828 639 q 793 480 828 553 q 692 353 758 407 q 549 299 626 299 q 501 356 501 299 m -69 15 q -25 145 -69 82 q 69 208 19 208 q 183 165 119 208 q 260 403 236 271 l 300 644 q 444 911 331 832 q 674 982 549 982 q 789 956 751 982 q 826 881 826 929 q 786 790 826 833 q 715 746 746 746 q 692 771 700 746 q 640 849 675 822 q 567 876 606 876 q 510 848 528 876 q 485 747 492 819 l 454 440 q 381 242 443 317 q 319 180 349 204 q 244 124 290 156 q 284 99 251 119 q 329 72 317 79 q 370 50 342 65 q 414 28 399 35 q 493 11 458 11 q 657 92 585 11 q 697 57 694 92 q 463 -165 626 -165 q 308 -115 376 -165 q 154 50 240 -65 q -25 -29 53 -29 q -69 15 -69 -29 z "},"":{"ha":428,"x_min":42,"x_max":894,"o":"m 568 751 q 669 782 619 754 q 744 861 719 810 q 669 874 689 861 q 665 903 665 886 q 708 1011 665 972 q 825 1049 753 1049 q 885 1040 858 1049 q 894 1015 894 1035 q 860 876 894 949 q 759 749 825 803 q 615 694 693 694 q 568 751 568 694 m 229 76 q 350 121 274 76 q 367 104 358 121 q 375 78 375 88 q 342 45 375 68 q 249 1 310 22 q 129 -21 189 -21 q 42 74 42 -21 q 119 362 42 144 q 301 776 197 579 q 464 972 406 972 q 560 949 525 972 q 594 897 594 926 q 329 474 594 789 q 201 100 201 201 q 229 76 201 76 z "},"":{"ha":688,"x_min":-69,"x_max":826,"o":"m -69 15 q -25 145 -69 82 q 69 208 19 208 q 183 165 119 208 q 257 389 236 268 q 143 324 150 376 q 110 344 128 324 q 92 400 92 365 q 138 490 92 464 q 279 521 183 517 l 300 644 q 444 911 331 832 q 674 982 549 982 q 789 956 751 982 q 826 881 826 929 q 786 790 826 833 q 715 746 746 746 q 692 771 700 746 q 640 849 675 822 q 567 876 606 876 q 510 848 528 876 q 485 747 492 819 l 463 526 q 601 579 560 538 q 625 506 625 546 q 449 400 625 413 q 381 243 431 303 q 244 124 332 183 q 284 99 251 119 q 329 72 317 79 q 370 50 342 65 q 414 28 399 35 q 493 11 458 11 q 657 92 585 11 q 697 57 694 92 q 463 -165 626 -165 q 308 -115 376 -165 q 154 50 240 -65 q -25 -29 53 -29 q -69 15 -69 -29 z "},"":{"ha":428,"x_min":-21,"x_max":594,"o":"m 229 76 q 350 121 274 76 q 367 104 358 121 q 375 78 375 88 q 342 45 375 68 q 249 1 310 22 q 129 -21 189 -21 q 42 74 42 -21 q 131 388 42 149 q 31 324 38 374 q -3 344 15 324 q -21 400 -21 365 q 28 492 -21 467 q 182 521 78 518 q 338 842 261 713 q 464 972 415 972 q 560 949 525 972 q 594 897 594 926 q 375 529 594 800 q 489 579 453 543 q 513 510 513 546 q 495 452 513 474 q 444 419 478 431 q 294 397 394 403 q 201 100 201 190 q 229 76 201 76 z "},"":{"ha":992,"x_min":-14,"x_max":1158,"o":"m 1042 1131 q 857 1092 951 1131 q 696 990 763 1054 q 676 1003 686 990 q 667 1030 667 1015 q 716 1106 667 1044 q 838 1226 765 1168 q 963 1285 911 1285 q 1015 1241 989 1285 q 1042 1131 1042 1197 m 824 4 l 817 -21 q 736 -40 782 -40 q 660 -25 690 -40 q 600 26 629 -10 q 549 93 571 61 q 500 185 528 125 q 457 281 472 246 q 413 390 442 317 q 372 492 385 463 q 226 94 275 186 q 88 -26 163 -26 q 13 1 40 -26 q -14 57 -14 28 q 0 92 -14 86 q 36 96 14 96 q 172 255 88 96 q 317 628 256 414 q 288 824 288 765 q 306 916 288 882 q 369 950 324 950 q 497 876 497 950 q 467 747 497 839 q 513 630 482 708 q 556 519 543 551 q 593 428 569 486 q 631 339 617 371 q 706 189 668 256 l 724 278 q 853 828 817 744 q 896 897 872 869 q 1038 968 957 968 q 1124 935 1089 968 q 1158 849 1158 903 q 1151 799 1158 822 q 1109 804 1132 804 q 1056 790 1086 804 q 983 730 1025 776 q 904 608 940 683 q 833 393 868 532 q 778 72 799 254 q 824 4 778 43 z "},"":{"ha":835,"x_min":42,"x_max":836,"o":"m 836 890 q 651 852 746 890 q 490 750 557 814 q 471 763 481 750 q 461 790 461 775 q 510 866 461 804 q 633 986 560 928 q 757 1044 706 1044 q 810 1001 783 1044 q 836 890 836 957 m 343 363 q 250 106 313 224 q 153 -11 188 -11 q 80 2 118 -11 q 42 42 42 15 q 78 161 42 89 q 153 282 115 233 l 189 331 q 217 538 217 425 q 196 588 217 588 q 158 576 181 588 q 129 564 136 564 q 114 581 122 564 q 106 606 106 597 q 137 637 106 615 q 221 679 168 658 q 319 700 274 700 q 355 663 340 700 q 369 581 369 625 q 367 488 369 538 q 505 626 406 554 q 664 699 604 699 q 751 667 724 699 q 779 585 779 635 q 701 329 779 510 q 622 100 622 149 q 636 83 622 83 q 719 117 671 83 l 735 128 q 751 111 743 128 q 760 85 760 94 q 731 53 760 75 q 647 8 703 31 q 531 -14 590 -14 q 440 61 440 -14 q 513 280 440 108 q 586 531 586 451 q 579 560 586 549 q 557 574 572 571 q 516 547 542 564 q 433 474 490 529 q 343 363 376 419 z "},"":{"ha":992,"x_min":-14,"x_max":1158,"o":"m 174 -382 q 275 -351 225 -379 q 350 -272 325 -324 q 275 -260 294 -272 q 271 -231 271 -247 q 314 -123 271 -161 q 431 -85 357 -85 q 490 -93 464 -85 q 500 -118 500 -99 q 465 -258 500 -185 q 365 -385 431 -331 q 221 -439 299 -439 q 174 -382 174 -439 m 824 4 l 817 -21 q 736 -40 782 -40 q 660 -25 690 -40 q 600 26 629 -10 q 549 93 571 61 q 500 185 528 125 q 457 281 472 246 q 413 390 442 317 q 372 492 385 463 q 226 94 275 186 q 88 -26 163 -26 q 13 1 40 -26 q -14 57 -14 28 q 0 92 -14 86 q 36 96 14 96 q 172 255 88 96 q 317 628 256 414 q 288 824 288 765 q 306 916 288 882 q 369 950 324 950 q 497 876 497 950 q 467 747 497 839 q 513 630 482 708 q 556 519 543 551 q 593 428 569 486 q 631 339 617 371 q 706 189 668 256 l 724 278 q 853 828 817 744 q 896 897 872 869 q 1038 968 957 968 q 1124 935 1089 968 q 1158 849 1158 903 q 1151 799 1158 822 q 1109 804 1132 804 q 1056 790 1086 804 q 983 730 1025 776 q 904 608 940 683 q 833 393 868 532 q 778 72 799 254 q 824 4 778 43 z "},"":{"ha":835,"x_min":42,"x_max":779,"o":"m 61 -364 q 163 -333 113 -361 q 238 -254 213 -306 q 163 -242 181 -254 q 158 -212 158 -229 q 201 -105 158 -143 q 318 -67 244 -67 q 378 -75 350 -67 q 388 -100 388 -81 q 353 -240 388 -167 q 252 -367 318 -312 q 108 -421 186 -421 q 61 -364 61 -421 m 343 363 q 250 106 313 224 q 153 -11 188 -11 q 80 2 118 -11 q 42 42 42 15 q 78 161 42 89 q 153 282 115 233 l 189 331 q 217 538 217 425 q 196 588 217 588 q 158 576 181 588 q 129 564 136 564 q 114 581 122 564 q 106 606 106 597 q 137 637 106 615 q 221 679 168 658 q 319 700 274 700 q 355 663 340 700 q 369 581 369 625 q 367 488 369 538 q 505 626 406 554 q 664 699 604 699 q 751 667 724 699 q 779 585 779 635 q 701 329 779 510 q 622 100 622 149 q 636 83 622 83 q 719 117 671 83 l 735 128 q 751 111 743 128 q 760 85 760 94 q 731 53 760 75 q 647 8 703 31 q 531 -14 590 -14 q 440 61 440 -14 q 513 280 440 108 q 586 531 586 451 q 579 560 586 549 q 557 574 572 571 q 516 547 542 564 q 433 474 490 529 q 343 363 376 419 z "},"":{"ha":992,"x_min":-14,"x_max":1158,"o":"m 903 1299 q 931 1283 914 1299 q 947 1252 947 1267 q 838 1117 947 1238 q 699 997 728 997 q 601 1119 663 997 q 539 1258 539 1242 q 558 1288 539 1274 q 589 1301 578 1301 q 718 1153 678 1188 q 903 1299 810 1206 m 824 4 l 817 -21 q 736 -40 782 -40 q 660 -25 690 -40 q 600 26 629 -10 q 549 93 571 61 q 500 185 528 125 q 457 281 472 246 q 413 390 442 317 q 372 492 385 463 q 226 94 275 186 q 88 -26 163 -26 q 13 1 40 -26 q -14 57 -14 28 q 0 92 -14 86 q 36 96 14 96 q 172 255 88 96 q 317 628 256 414 q 288 824 288 765 q 306 916 288 882 q 369 950 324 950 q 497 876 497 950 q 467 747 497 839 q 513 630 482 708 q 556 519 543 551 q 593 428 569 486 q 631 339 617 371 q 706 189 668 256 l 724 278 q 853 828 817 744 q 896 897 872 869 q 1038 968 957 968 q 1124 935 1089 968 q 1158 849 1158 903 q 1151 799 1158 822 q 1109 804 1132 804 q 1056 790 1086 804 q 983 730 1025 776 q 904 608 940 683 q 833 393 868 532 q 778 72 799 254 q 824 4 778 43 z "},"":{"ha":835,"x_min":42,"x_max":814,"o":"m 769 1060 q 797 1044 781 1060 q 814 1013 814 1028 q 704 878 814 999 q 565 758 594 758 q 467 881 529 758 q 406 1019 406 1003 q 425 1049 406 1035 q 456 1063 444 1063 q 585 914 544 949 q 769 1060 676 967 m 343 363 q 250 106 313 224 q 153 -11 188 -11 q 80 2 118 -11 q 42 42 42 15 q 78 161 42 89 q 153 282 115 233 l 189 331 q 217 538 217 425 q 196 588 217 588 q 158 576 181 588 q 129 564 136 564 q 114 581 122 564 q 106 606 106 597 q 137 637 106 615 q 221 679 168 658 q 319 700 274 700 q 355 663 340 700 q 369 581 369 625 q 367 488 369 538 q 505 626 406 554 q 664 699 604 699 q 751 667 724 699 q 779 585 779 635 q 701 329 779 510 q 622 100 622 149 q 636 83 622 83 q 719 117 671 83 l 735 128 q 751 111 743 128 q 760 85 760 94 q 731 53 760 75 q 647 8 703 31 q 531 -14 590 -14 q 440 61 440 -14 q 513 280 440 108 q 586 531 586 451 q 579 560 586 549 q 557 574 572 571 q 516 547 542 564 q 433 474 490 529 q 343 363 376 419 z "},"":{"ha":1003,"x_min":-14,"x_max":1136,"o":"m 467 -129 l 454 -222 q 474 -274 454 -254 q 524 -294 493 -294 q 675 -65 636 -294 q 372 492 510 150 q 226 94 275 186 q 88 -26 163 -26 q 13 1 40 -26 q -14 53 -14 28 q -3 93 -14 79 q 36 96 6 93 q 172 255 88 96 q 317 628 256 414 q 288 824 288 765 q 306 916 288 882 q 369 950 324 950 q 497 876 497 950 q 467 747 497 839 q 513 629 479 717 q 561 506 546 542 q 604 404 576 469 q 718 181 651 294 q 756 408 736 285 q 785 596 775 531 q 810 729 796 661 q 871 897 835 854 q 1008 968 928 968 q 1099 933 1061 968 q 1136 840 1136 899 q 1132 799 1136 819 q 1097 803 1119 803 q 1047 788 1075 803 q 981 723 1018 772 q 911 594 943 674 q 794 46 835 406 q 689 -283 768 -185 q 469 -381 610 -381 q 340 -342 389 -381 q 290 -250 290 -304 q 342 -156 290 -196 q 444 -115 393 -115 q 467 -129 467 -115 z "},"":{"ha":819,"x_min":6,"x_max":778,"o":"m 342 363 q 249 106 311 224 q 151 -11 186 -11 q 78 2 117 -11 q 40 42 40 15 q 77 161 40 89 q 150 282 114 233 l 188 331 q 215 538 215 425 q 194 588 215 588 q 158 576 181 588 q 128 564 136 564 q 113 581 121 564 q 104 606 104 597 q 135 637 104 615 q 219 679 167 658 q 318 700 272 700 q 353 663 339 700 q 368 581 368 625 q 365 488 368 538 q 503 626 404 554 q 663 699 603 699 q 750 667 722 699 q 778 585 778 635 q 597 13 778 433 q 420 -261 531 -144 q 185 -378 310 -378 q 54 -345 103 -378 q 6 -260 6 -312 q 56 -172 6 -207 q 160 -136 107 -136 q 182 -150 182 -136 q 176 -186 182 -156 q 169 -242 169 -217 q 225 -292 169 -292 q 378 -120 290 -292 q 526 248 467 51 q 585 531 585 444 q 577 560 585 549 q 556 574 569 571 q 515 547 540 564 q 432 474 489 529 q 342 363 375 419 z "},"":{"ha":899,"x_min":97,"x_max":957,"o":"m 925 1019 q 531 983 756 983 q 521 1006 521 983 q 569 1128 521 1065 q 760 1113 683 1113 q 950 1119 836 1113 q 957 1101 957 1119 q 925 1019 957 1054 m 408 96 q 563 177 486 96 q 685 367 640 258 q 731 567 731 476 q 563 769 731 769 q 511 764 535 769 q 483 753 488 758 q 467 733 479 749 q 422 669 454 718 q 364 569 389 619 q 319 443 339 518 q 299 287 299 368 q 328 151 299 206 q 408 96 358 96 m 333 -21 q 159 44 221 -21 q 97 222 97 108 q 149 461 97 335 q 285 688 200 588 q 488 853 369 789 q 733 917 607 917 q 872 860 817 917 q 926 711 926 803 q 840 354 926 525 q 617 81 754 183 q 333 -21 479 -21 z "},"":{"ha":693,"x_min":49,"x_max":764,"o":"m 732 801 q 338 765 563 765 q 328 788 328 765 q 376 910 328 847 q 567 894 490 894 q 757 901 643 894 q 764 883 764 901 q 732 801 764 836 m 297 110 q 451 224 379 110 q 522 438 522 338 q 406 579 522 579 q 369 575 386 579 q 350 567 353 571 q 338 553 347 564 q 307 508 329 543 q 267 439 285 474 q 221 265 221 343 q 242 148 221 186 q 297 110 263 110 m 203 -12 q 49 144 49 -12 q 88 326 49 229 q 188 506 126 424 q 336 642 250 588 q 512 697 422 697 q 644 662 601 697 q 686 547 686 626 q 608 283 686 415 q 417 69 531 150 q 203 -12 304 -12 z "},"":{"ha":899,"x_min":97,"x_max":1128,"o":"m 1128 1203 q 888 976 988 1097 q 853 989 871 976 q 836 1011 836 1001 q 921 1163 836 1032 q 1022 1294 1006 1294 q 1081 1270 1050 1294 q 1128 1203 1111 1246 m 858 1203 q 624 976 728 1104 q 590 989 607 976 q 572 1011 572 1001 q 654 1164 572 1033 q 753 1294 736 1294 q 811 1270 781 1294 q 858 1203 842 1246 m 408 96 q 563 177 486 96 q 685 367 640 258 q 731 567 731 476 q 563 769 731 769 q 511 764 535 769 q 483 753 488 758 q 467 733 479 749 q 422 669 454 718 q 364 569 389 619 q 319 443 339 518 q 299 287 299 368 q 328 151 299 206 q 408 96 358 96 m 333 -21 q 159 44 221 -21 q 97 222 97 108 q 149 461 97 335 q 285 688 200 588 q 488 853 369 789 q 733 917 607 917 q 872 860 817 917 q 926 711 926 803 q 840 354 926 525 q 617 81 754 183 q 333 -21 479 -21 z "},"":{"ha":693,"x_min":49,"x_max":906,"o":"m 906 990 q 665 764 765 885 q 631 776 649 764 q 614 799 614 789 q 699 951 614 819 q 800 1082 783 1082 q 858 1058 828 1082 q 906 990 889 1033 m 636 990 q 401 764 506 892 q 367 776 385 764 q 350 799 350 789 q 432 951 350 821 q 531 1082 514 1082 q 589 1058 558 1082 q 636 990 619 1033 m 297 110 q 451 224 379 110 q 522 438 522 338 q 406 579 522 579 q 369 575 386 579 q 350 567 353 571 q 338 553 347 564 q 307 508 329 543 q 267 439 285 474 q 221 265 221 343 q 242 148 221 186 q 297 110 263 110 m 203 -12 q 49 144 49 -12 q 88 326 49 229 q 188 506 126 424 q 336 642 250 588 q 512 697 422 697 q 644 662 601 697 q 686 547 686 626 q 608 283 686 415 q 417 69 531 150 q 203 -12 304 -12 z "},"":{"ha":1174,"x_min":97,"x_max":1313,"o":"m 497 124 q 490 189 490 149 q 557 365 490 283 q 731 503 624 446 q 701 589 701 542 q 729 725 701 672 l 739 744 q 730 758 736 750 q 697 781 724 767 q 638 796 669 796 q 570 786 607 796 q 510 767 533 776 q 483 753 488 758 q 467 733 479 749 q 422 669 454 718 q 364 569 389 619 q 319 443 339 518 q 299 287 299 368 q 328 151 299 206 q 405 96 358 96 q 497 124 451 96 m 1074 521 q 1019 433 1074 469 q 901 397 965 397 q 801 424 836 397 q 790 417 797 421 q 767 397 783 413 q 736 363 750 381 q 701 244 701 314 q 840 92 701 92 q 1086 188 990 92 q 1133 140 1125 175 q 978 17 1088 68 q 754 -33 869 -33 q 538 43 606 -33 q 334 -21 447 -21 q 159 44 221 -21 q 97 222 97 108 q 149 461 97 335 q 285 688 200 588 q 488 853 369 789 q 733 917 607 917 q 801 899 774 917 q 836 861 828 881 l 843 843 q 879 867 856 853 q 981 903 903 881 q 1144 926 1060 926 q 1271 899 1229 926 q 1313 820 1313 871 q 1251 714 1313 769 q 1111 653 1190 658 q 1092 665 1101 654 q 1082 683 1082 676 q 1085 693 1082 690 q 1132 793 1132 742 q 1099 828 1132 817 q 1026 840 1067 840 q 969 831 985 840 q 885 633 885 754 q 897 561 885 606 q 1005 576 936 576 q 1074 521 1074 576 z "},"":{"ha":1089,"x_min":56,"x_max":1110,"o":"m 808 578 q 730 483 775 549 q 665 361 685 418 q 876 422 814 375 q 939 510 939 468 q 918 572 939 553 q 866 592 897 592 q 808 578 835 592 m 304 110 q 458 224 386 110 q 529 438 529 338 q 413 579 529 579 q 376 575 393 579 q 357 567 360 571 q 345 553 354 564 q 314 508 336 543 q 275 439 292 474 q 228 265 228 343 q 249 148 228 186 q 304 110 269 110 m 489 124 q 210 -12 346 -12 q 56 144 56 -12 q 94 326 56 229 q 195 506 133 424 q 343 642 257 588 q 514 697 429 697 q 641 669 599 697 q 692 578 683 640 q 967 694 826 694 q 1069 658 1029 694 q 1110 571 1110 622 q 650 294 1110 318 q 647 258 647 282 q 674 156 647 197 q 756 115 700 115 q 946 185 863 115 q 954 186 947 186 q 972 175 961 186 q 983 151 983 164 q 942 100 983 139 q 822 24 900 61 q 673 -14 744 -14 q 553 22 601 -14 q 489 124 504 57 z "},"":{"ha":899,"x_min":83,"x_max":940,"o":"m 913 1100 q 728 1062 822 1100 q 567 960 633 1024 q 547 972 557 960 q 538 999 538 985 q 587 1076 538 1014 q 709 1196 636 1138 q 833 1254 782 1254 q 886 1210 860 1254 q 913 1100 913 1167 m 406 910 l 697 918 q 874 867 808 918 q 940 707 940 815 q 858 513 940 599 q 660 393 776 428 q 803 103 703 103 q 913 143 854 103 q 926 108 926 133 q 873 18 926 64 q 733 -28 819 -28 q 525 282 525 -28 q 528 350 525 306 q 490 342 506 342 q 450 375 450 342 q 485 459 450 413 q 557 506 519 506 q 632 465 594 506 q 728 671 728 557 q 692 785 728 743 q 590 826 657 826 q 535 824 554 826 q 468 612 525 757 q 360 322 411 467 q 310 92 310 178 q 322 42 310 72 q 306 26 317 36 q 259 1 296 17 q 181 -14 222 -14 q 83 65 83 -14 q 146 260 83 118 q 272 556 208 403 q 335 793 335 710 q 313 828 335 818 q 236 843 292 839 q 225 876 225 850 q 246 918 225 901 q 285 915 256 918 q 406 910 343 910 z "},"":{"ha":646,"x_min":42,"x_max":774,"o":"m 774 882 q 589 844 683 882 q 428 742 494 806 q 408 754 418 742 q 399 781 399 767 q 448 858 399 796 q 570 978 497 919 q 694 1036 643 1036 q 747 992 721 1036 q 774 882 774 949 m 504 557 q 425 465 485 547 q 333 322 365 382 q 245 86 301 183 q 153 -11 189 -11 q 80 2 118 -11 q 42 42 42 15 q 78 161 42 89 q 153 282 115 233 l 189 331 q 217 538 217 425 q 196 588 217 588 q 158 576 181 588 q 129 564 136 564 q 114 581 122 564 q 106 606 106 597 q 137 637 106 615 q 221 679 168 658 q 319 700 274 700 q 355 661 340 700 q 369 578 369 622 q 368 513 369 535 q 367 483 367 492 q 484 636 418 574 q 610 699 550 699 q 699 667 669 699 q 729 578 729 635 q 651 425 729 500 q 517 350 574 350 q 489 368 489 350 q 510 417 489 372 q 532 509 532 461 q 504 557 532 557 z "},"":{"ha":899,"x_min":83,"x_max":940,"o":"m 194 -357 q 296 -326 246 -354 q 371 -247 346 -299 q 296 -235 314 -247 q 292 -206 292 -222 q 335 -98 292 -136 q 451 -60 378 -60 q 511 -68 483 -60 q 521 -93 521 -74 q 486 -233 521 -160 q 385 -360 451 -306 q 242 -414 319 -414 q 194 -357 194 -414 m 406 910 l 697 918 q 874 867 808 918 q 940 707 940 815 q 858 513 940 599 q 660 393 776 428 q 803 103 703 103 q 913 143 854 103 q 926 108 926 133 q 873 18 926 64 q 733 -28 819 -28 q 525 282 525 -28 q 528 350 525 306 q 490 342 506 342 q 450 375 450 342 q 485 459 450 413 q 557 506 519 506 q 632 465 594 506 q 728 671 728 557 q 692 785 728 743 q 590 826 657 826 q 535 824 554 826 q 468 612 525 757 q 360 322 411 467 q 310 92 310 178 q 322 42 310 72 q 306 26 317 36 q 259 1 296 17 q 181 -14 222 -14 q 83 65 83 -14 q 146 260 83 118 q 272 556 208 403 q 335 793 335 710 q 313 828 335 818 q 236 843 292 839 q 225 876 225 850 q 246 918 225 901 q 285 915 256 918 q 406 910 343 910 z "},"":{"ha":646,"x_min":-172,"x_max":729,"o":"m -172 -375 q -71 -344 -121 -372 q 4 -265 -21 -317 q -71 -253 -53 -265 q -75 -224 -75 -240 q -32 -115 -75 -154 q 85 -78 13 -78 q 144 -86 117 -78 q 154 -111 154 -92 q 119 -251 154 -178 q 19 -378 85 -324 q -125 -432 -47 -432 q -172 -375 -172 -432 m 504 557 q 425 465 485 547 q 333 322 365 382 q 245 86 301 183 q 153 -11 189 -11 q 80 2 118 -11 q 42 42 42 15 q 78 161 42 89 q 153 282 115 233 l 189 331 q 217 538 217 425 q 196 588 217 588 q 158 576 181 588 q 129 564 136 564 q 114 581 122 564 q 106 606 106 597 q 137 637 106 615 q 221 679 168 658 q 319 700 274 700 q 355 661 340 700 q 369 578 369 622 q 368 513 369 535 q 367 483 367 492 q 484 636 418 574 q 610 699 550 699 q 699 667 669 699 q 729 578 729 635 q 651 425 729 500 q 517 350 574 350 q 489 368 489 350 q 510 417 489 372 q 532 509 532 461 q 504 557 532 557 z "},"":{"ha":899,"x_min":83,"x_max":940,"o":"m 803 1292 q 831 1276 814 1292 q 847 1245 847 1260 q 738 1110 847 1231 q 599 990 628 990 q 501 1113 563 990 q 439 1251 439 1235 q 458 1281 439 1267 q 489 1294 478 1294 q 618 1146 578 1181 q 803 1292 710 1199 m 406 910 l 697 918 q 874 867 808 918 q 940 707 940 815 q 858 513 940 599 q 660 393 776 428 q 803 103 703 103 q 913 143 854 103 q 926 108 926 133 q 873 18 926 64 q 733 -28 819 -28 q 525 282 525 -28 q 528 350 525 306 q 490 342 506 342 q 450 375 450 342 q 485 459 450 413 q 557 506 519 506 q 632 465 594 506 q 728 671 728 557 q 692 785 728 743 q 590 826 657 826 q 535 824 554 826 q 468 612 525 757 q 360 322 411 467 q 310 92 310 178 q 322 42 310 72 q 306 26 317 36 q 259 1 296 17 q 181 -14 222 -14 q 83 65 83 -14 q 146 260 83 118 q 272 556 208 403 q 335 793 335 710 q 313 828 335 818 q 236 843 292 839 q 225 876 225 850 q 246 918 225 901 q 285 915 256 918 q 406 910 343 910 z "},"":{"ha":646,"x_min":42,"x_max":729,"o":"m 682 1058 q 710 1042 693 1058 q 726 1012 726 1026 q 617 877 726 997 q 478 757 507 757 q 380 879 442 757 q 318 1017 318 1001 q 338 1047 318 1033 q 368 1061 357 1061 q 497 913 457 947 q 682 1058 589 965 m 504 557 q 425 465 485 547 q 333 322 365 382 q 245 86 301 183 q 153 -11 189 -11 q 80 2 118 -11 q 42 42 42 15 q 78 161 42 89 q 153 282 115 233 l 189 331 q 217 538 217 425 q 196 588 217 588 q 158 576 181 588 q 129 564 136 564 q 114 581 122 564 q 106 606 106 597 q 137 637 106 615 q 221 679 168 658 q 319 700 274 700 q 355 661 340 700 q 369 578 369 622 q 368 513 369 535 q 367 483 367 492 q 484 636 418 574 q 610 699 550 699 q 699 667 669 699 q 729 578 729 635 q 651 425 729 500 q 517 350 574 350 q 489 368 489 350 q 510 417 489 372 q 532 509 532 461 q 504 557 532 557 z "},"":{"ha":686,"x_min":35,"x_max":854,"o":"m 854 1115 q 669 1077 764 1115 q 508 975 575 1039 q 489 988 499 975 q 479 1015 479 1000 q 528 1091 479 1029 q 651 1211 578 1153 q 775 1269 724 1269 q 828 1226 801 1269 q 854 1115 854 1182 m 628 613 q 604 646 604 621 q 629 724 629 676 q 594 806 629 771 q 500 840 558 840 q 454 835 475 840 q 406 717 406 781 q 445 594 406 654 q 532 487 485 535 q 619 375 579 439 q 658 253 658 311 q 551 43 658 118 q 289 -32 444 -32 q 101 15 168 -32 q 35 134 35 63 q 81 253 35 206 q 210 300 126 300 q 225 286 225 300 q 214 244 225 281 q 203 178 203 207 q 238 87 203 121 q 328 53 272 53 q 420 90 385 53 q 456 188 456 126 q 369 343 456 243 q 297 431 333 385 q 211 649 211 540 q 319 856 211 782 q 589 931 428 931 q 742 892 686 931 q 797 793 797 854 q 746 680 797 732 q 628 613 694 628 z "},"":{"ha":639,"x_min":14,"x_max":789,"o":"m 789 890 q 604 852 699 890 q 443 750 510 814 q 424 763 433 750 q 414 790 414 775 q 463 866 414 804 q 585 986 513 928 q 710 1044 658 1044 q 763 1001 736 1044 q 789 890 789 957 m 492 454 q 484 482 472 454 q 496 538 496 510 q 470 583 496 565 q 412 601 444 601 q 343 593 379 601 q 322 520 322 558 q 358 441 322 482 q 435 372 393 400 q 513 303 478 343 q 549 225 549 264 q 454 51 549 114 q 249 -12 360 -12 q 76 38 139 -12 q 14 142 14 88 q 52 230 14 197 q 167 263 90 263 q 178 251 178 263 q 169 219 178 247 q 161 169 161 192 q 192 97 161 122 q 267 71 224 71 q 342 96 311 71 q 374 158 374 121 q 352 219 374 194 q 299 265 331 243 q 236 311 268 286 q 163 457 163 368 q 256 633 163 568 q 468 697 349 697 q 592 668 544 697 q 639 583 639 639 q 624 521 639 547 q 589 482 608 494 q 544 463 569 469 q 492 454 514 454 z "},"":{"ha":686,"x_min":35,"x_max":807,"o":"m 749 1004 q 647 1140 707 1076 q 436 1007 538 1085 q 413 1026 426 1007 q 399 1054 399 1044 q 464 1126 399 1064 q 606 1248 529 1188 q 704 1308 682 1308 q 774 1192 740 1308 q 807 1043 807 1076 q 783 1018 806 1032 q 749 1004 760 1004 m 628 613 q 604 646 604 621 q 629 724 629 676 q 594 806 629 771 q 500 840 558 840 q 454 835 475 840 q 406 717 406 781 q 445 594 406 654 q 532 487 485 535 q 619 375 579 439 q 658 253 658 311 q 551 43 658 118 q 289 -32 444 -32 q 101 15 168 -32 q 35 134 35 63 q 81 253 35 206 q 210 300 126 300 q 225 286 225 300 q 214 244 225 281 q 203 178 203 207 q 238 87 203 121 q 328 53 272 53 q 420 90 385 53 q 456 188 456 126 q 369 343 456 243 q 297 431 333 385 q 211 649 211 540 q 319 856 211 782 q 589 931 428 931 q 742 892 686 931 q 797 793 797 854 q 746 680 797 732 q 628 613 694 628 z "}}}
